<?xml version="1.0" standalone="no"?>
<!DOCTYPE svg PUBLIC "-//W3C//DTD SVG 1.1//EN" "http://www.w3.org/Graphics/SVG/1.1/DTD/svg11.dtd" >
<svg>
<metadata>
Created by FontForge 20120731 at Tue Jul  2 17:07:54 2019
 By www
Copyright (c)1986-1995 SWFTE International, Ltd. All rights reserved.
</metadata>
<defs>
<font id="ChalkDustRegularSWFTE" horiz-adv-x="344" >
  <font-face 
    font-family="ChalkDust"
    font-weight="400"
    font-stretch="normal"
    units-per-em="1000"
    panose-1="0 0 4 0 0 0 0 0 0 0"
    ascent="800"
    descent="-200"
    x-height="695"
    cap-height="940"
    bbox="0 -211 1194 1089"
    underline-thickness="20"
    underline-position="-123"
    unicode-range="U+0020-203A"
  />
<missing-glyph horiz-adv-x="500" 
d="M63 0v800h375v-800h-375zM125 63h250v675h-250v-675z" />
    <glyph glyph-name=".notdef" horiz-adv-x="500" 
d="M63 0v800h375v-800h-375zM125 63h250v675h-250v-675z" />
    <glyph glyph-name=".null" horiz-adv-x="0" 
 />
    <glyph glyph-name="nonmarkingreturn" 
 />
    <glyph glyph-name="space" unicode=" " 
 />
    <glyph glyph-name="exclam" unicode="!" horiz-adv-x="313" 
d="M178 854v2v-2zM250 758l9 8zM167 828l9 13zM308 812q-4 3 -13 13.5t-16 17.5q-1 -1 -4 -1.5t-3 -7.5q0 -5 8.5 -15.5t13.5 -12.5q-4 -7 -13 -18q1 -2 9.5 -9t8.5 -15q0 -21 -25 -31t-23 -48l25 17q-15 -78 -31 -168v-121q-22 7 -26 6q7 -16 14 -50q9 -39 13 -51
q-19 -9 -42 -28q-12 31 -24 31q-11 0 -11 -5q1 4 -5 18q-12 0 -12 -18q-11 28 -11 44q0 6 8.5 30t8.5 29q0 16 -10 25q-12 -20 -31 -62q-15 26 -35 36q0 -10 9 -53q-8 11 -34 31q0 7 2.5 27t2.5 28q21 5 21 21q0 18 -7 46q-8 -8 -8 -15v28q3 -4 13 -4q12 -1 20 7q-8 8 -17 7
q-1 15 17 32q-8 15 -26 16v32q0 4 35 98q38 105 50 145q39 32 49 32q12 0 25.5 -22t37.5 -22q6 0 11 6.5l5 6.5q2 -5 6 -28q2 -15 14 -25zM206 438l5 8zM222 367v2v-2zM131 355l-4 8zM215 173q0 -50 -14 -63q-2 -2 1 -8q4 -9 4 -14t-10.5 -27.5t-12.5 -34.5q-6 7 -25 14.5
t-26 7.5t-9.5 -6t-2.5 -7q0 4 -11.5 18.5t-11.5 18.5q0 6 5 11q11 10 12 12q-5 8 -5 15q0 6 5 18.5t5 23.5q0 14 -4.5 19t-30.5 13q12 5 24 11q16 8 16 29h31q13 0 36.5 -19t23.5 -32zM136 91l5 12zM140 464q-18 0 -31 -2t-12 -2q0 -6 11 -16q13 8 32 20z" />
    <glyph glyph-name="quotedbl" unicode="&#x22;" horiz-adv-x="410" 
d="M349 801v3v-3zM296 810v2v-2zM391 674q-6 -6 -6 -15q-15 12 -22 26q3 -65 -66 -101q-2 1 -23 22q-15 0 -28 -26q-2 7 -17 21q1 27 31 45.5t30 32.5q-16 13 -26 24q-26 29 -27 54l14 6q0 12 -17 8q-5 10 -5 29q0 54 46 69q10 -23 39 -52q39 -39 44 -47q10 -33 33 -96z
M210 811l5 12zM178 823v3v-3zM220 696q-6 -6 -6 -15q-16 12 -23 26q-10 -76 -66 -101q-14 16 -26 22q-1 0 -27 -26q-5 14 -19 18q-1 5 -1 10q0 19 26 34q20 12 41 24v21q-21 9 -34 33l-19 36l13 7q0 12 -16 8q-5 10 -5 29q0 54 46 69q9 -17 42 -50.5t40.5 -47t16.5 -46.5
q11 -37 17 -51zM39 833l5 12zM241 626v-21v21zM108 744v3v-3zM67 628v21v-21z" />
    <glyph glyph-name="numbersign" unicode="#" 
 />
    <glyph glyph-name="dollar" unicode="$" horiz-adv-x="533" 
d="M215 663q-26 10 -26 31q0 6 4.5 8.5t4.5 3.5q12 0 17 -5v-38zM311 500l5 25zM523 259q0 -6 -8 -29q-9 -26 -11 -37q-17 7 -17 22t24 62q12 -6 12 -18zM478 221q0 -39 -43 -59q-52 -24 -63 -52q-7 0 -11 2t-10 2q-41 0 -41 -63q0 -21 5 -55q5 -28 4 -30q-19 -35 -19 -46
q0 -3 3.5 -8.5t2.5 -14.5q-3 -6 -9 -16q-3 2 -41 13q-23 6 -23 27q0 5 7 22.5t8.5 24.5t1.5 34q0 5 1 17.5t1 19.5q0 53 -39 53q-5 0 -12 -4.5t-12 -4.5q-41 0 -68 29l-40 46q-4 0 -18 -13q-36 59 -36 69v54q5 -7 19 -22q6 10 18 31q10 -14 19 -14q7 0 30 12.5t27 18.5
q-5 -8 -5 -19q0 -9 4 -27.5t4 -25.5q0 -8 -3 -13q31 -16 49 -16q33 0 43 9.5t10 29.5v16q-1 12 -1 18q0 41 18 74q-2 2 -5 1q-5 -3 -10 -3q-2 0 -60 31t-73 32q-12 7 -20.5 34t-27.5 36q-1 4 0 10q2 8 2 11q0 9 -12 14q9 19 23 56q19 -2 34 4q6 31 7 33q9 25 35 25
q5 0 8.5 -2.5t8.5 -2.5q23 0 55 16q-1 6 -1 11q0 15 14 42t16 39q-1 13 -1 40q6 10 20 10q17 0 37 -22.5t20 -36.5q0 -7 -9 -19q-11 -15 -13 -20q7 -12 16 -12q5 0 6 2.5t7 2.5q5 0 27 -9t28 -9q5 0 8.5 4.5t8.5 4.5q12 0 35 -30.5t22 -36.5v-25q-22 4 -51 12q-22 5 -36 5
q-6 0 -26 -6q-26 -8 -32 -10q6 -11 25 -40q15 -23 15 -29q0 -5 -22 -48t-22 -49t11.5 -15t19.5 -9q5 0 6.5 2t6.5 2q22 0 67 -50t51 -51v-64zM108 217v3v-3zM245 420v120q-19 -14 -49 -35q-5 2 -15 9q0 -10 -9.5 -28t-9.5 -23q0 -15 11 -24q7 0 14.5 2.5t12.5 2.5t22 -11.5
t23 -12.5zM395 256q-7 34 -25 47q-14 10 -44 13q0 -47 -14 -59q15 -15 14 -24q40 8 69 23z" />
    <glyph glyph-name="percent" unicode="%" 
 />
    <glyph glyph-name="ampersand" unicode="&#x26;" horiz-adv-x="619" 
d="M171 732l8 32zM610 237q0 -1 -13.5 -33.5t-9.5 -58.5q-2 -3 -5.5 -7t-3.5 -6q1 15 -9 26q-2 -1 -48 -51q-31 -32 -38 -32q-5 0 -9.5 2t-10.5 2q-15 0 -59 -24l-44 -24q-4 0 -14.5 4t-16.5 4t-9 -4t-5 -9q-5 0 -11 7.5t-12 14.5q-9 -10 -27 -21q0 9 -9 26q-5 -1 -12 -9.5
t-8 -16.5q-6 0 -18 4.5t-15 4.5q0 21 -5 35q-4 2 -11 8q-5 -9 -13 -26q-6 6 -6 18q-4 0 -12 8q-12 -12 -20 -12q5 9 5 25q0 32 -24 35q-2 -6 -9 -22q-1 2 -20 39q2 0 7.5 -2t10.5 -2l4 19q-8 5 -26 4q-7 17 -28.5 32.5t-24.5 27.5h29q2 -6 12 -21q4 7 7 25v33q-9 6 -30 4
q6 26 22 69q7 4 16.5 16.5t9.5 18.5q4 1 27 -12q1 2 7 35q4 25 16 35q1 -7 7 -29q12 -3 25 21q20 36 22 39q-1 -13 17 -36q10 6 10 29q-16 39 -46 90q-9 -5 -9 -27q1 -33 1 -32q-7 32 -27 94q-9 -8 -9 -15q0 7 -3 29.5t-3 27.5q0 25 12 56q15 39 16 45q-1 4 -3 4
q-3 0 -11.5 -11.5t-12.5 -13.5q4 33 18 98l22 -22q28 30 83 94q22 1 58 13q46 16 46 36q0 4 -13 39.5t-13 43.5q0 14 20 42q8 -18 2 -37l10 -12q7 19 35 44h20q0 -18 7 -55.5t7 -40.5q0 -27 -31 -52q-3 -8 21 -12q6 1 15.5 -5t14.5 -6t7 2t8 2q35 0 67 -62q25 -50 25 -69
q0 -5 -2.5 -18.5t-2.5 -20.5q-1 0 -6 -2.5t-11 -2.5q-7 0 -10 4.5t-6 8.5q-2 0 -9.5 -5.5t-11.5 -7.5h-20q4 19 31 42q-98 85 -147 85q-58 0 -103 -67q-40 -60 -40 -117q0 -40 44 -97t75 -57q12 0 33 22q0 -14 4 -18q13 14 17 14q22 0 63 -16q54 -21 54 -50q0 -60 -60 -79
q-5 12 -21 35q-4 -3 -18 -31q-46 35 -61 35q-37 0 -104 -38q-83 -47 -83 -105q0 -56 65 -92q50 -28 93 -28q51 0 110 35q50 31 81 70l13 -13q6 19 22 55q0 -1 37 -9q22 -5 22 -33zM453 -57v-6v6zM88 267l10 23zM207 136v-5v5zM470 -78q-9 -11 -66 -67q-38 -38 -50 -66
q-18 7 -21.5 30t-9.5 23q-7 0 -10.5 -2t-4.5 -2v23q0 3 13 29t13 42q0 10 -5 18q1 0 35 18q18 11 18 24q0 7 -4 16q15 -1 30 -1q20 0 33 11q15 -12 21 -46zM390 -205l4 29zM48 140l-6 22z" />
    <glyph glyph-name="quotesingle" unicode="'" horiz-adv-x="243" 
d="M178 823v3v-3zM220 696q-6 -6 -6 -15q-15 12 -22 26q2 -65 -67 -101q-1 1 -23 22q-14 0 -27 -26q-2 7 -18 21q2 27 32 45.5t30 32.5q-54 60 -53 78l13 6q0 12 -16 8q-5 11 -5 29q0 55 46 69q3 -3 52 -72q8 -13 31 -27q9 -33 33 -96zM39 833l3 14zM108 744v3v-3zM69 650
v-23v23z" />
    <glyph glyph-name="parenleft" unicode="(" horiz-adv-x="430" 
d="M377 856v-23v23zM315 838l-9 9zM206 790v-14v14zM426 822q-11 -8 -35 -29q20 -12 25 -30q5 -23 10 -47h-50q-6 0 -26 8.5t-25 8.5q-64 0 -96 -70q-23 -49 -30 -138q-4 -49 -7 -97q-5 -20 -9 -28q-7 -15 -21 -21q22 -32 22 -56q0 -9 -5 -24q-6 -19 -7 -23q21 -22 21 -57
q0 -18 -6 -32q32 -50 102 -64q59 -7 119 -14v-95q-29 0 -111 17q-2 -2 -5.5 -3.5t-6.5 -3.5l22 -23q-28 4 -59 30q-12 -12 -12 -13q-15 8 -27 8q-13 0 -13 -13q-7 21 -46 24q-7 20 -28 60q-7 9 -23 14q-23 6 -27 8q-4 20 1 41q-4 4 -21 16q-12 9 -12 16v84q1 0 8.5 -2
t11.5 -1q2 3 2 7q0 7 -10 17.5t-12 16.5v24q7 -4 17 -4q20 0 20 29q0 12 -4.5 43t-4.5 46q0 14 3 24l6 2q3 5 -1 31q5 -7 19 -22q19 8 19 27q0 65 -17 77q24 0 16 -1q13 2 19 14v16q-8 0 -16 8q-3 -2 -13 -22q0 9 -6 16q37 26 54 66q11 25 18.5 73t15.5 68q5 2 23 -8
q24 24 41 26q4 0 3 27q-1 -9 4 -15q9 -10 19 -20q4 2 17 28q10 3 31 16t26 13q6 0 26.5 -22t26.5 -22q17 0 19 -1q-2 -15 5 -29zM70 557v-22v22zM48 354v2v-2zM88 268v2v-2zM257 51v2v-2zM86 191v2v-2zM74 92v-18v18z" />
    <glyph glyph-name="parenright" unicode=")" horiz-adv-x="434" 
d="M251 741l-13 22zM92 875q-2 -2 -8 -5t-8 -5q0 2 -2.5 10.5t-2.5 10.5q21 0 21 -11zM54 807l-7 23zM404 403l4 71zM320 328l5 9zM398 330q-5 0 -14 -9q-9 22 -22 22t-24 -12q11 -14 21 -11q3 -14 -13 -25q-24 -15 -29 -21l8 -28q4 -16 4 -22t-4 -13.5t-4 -17.5t4 -25
q-2 -1 -32 -1q-16 -17 -31 -33q-20 -22 -17 -41q-7 0 -31 4q-10 -16 -20 -31q-19 -26 -34 -26q-5 0 -25 9q-23 10 -31 13q-9 -17 -19 -33q-11 -20 -30 -20q-5 0 -14.5 2.5t-13.5 2.5q2 5 6 14.5t7 13.5q0 3 -7 8t-11 8v47l98 14q23 6 40 32q31 51 63 103q9 14 10 54
q0 35 22 51q-14 66 -39 142q-34 106 -62 127q6 1 17 7l-7 19q-4 -2 -12 -8q-10 9 -16 33q11 2 31 9q-6 6 -11 6q-6 0 -9 -2.5t-9 -2.5q-5 0 -39 13.5t-40 13.5q-8 0 -36 -4q-14 70 -14 76q0 10 8.5 26t8.5 30q0 19 -12 47q12 -13 25.5 -28t19.5 -15t7 4t6 4l7.5 -3.5
t15.5 -3.5q7 0 13 3q7 -11 -3 -28q11 -6 23 1q3 5 2 16q-2 18 -2 20q9 3 20 -20q14 -31 25 -42q3 13 14 40q4 -13 19 -13q12 0 16 4q12 -14 28 -38q-8 -8 -5 -15q17 -1 27 27q3 -19 13 -36t10 -21q0 -6 -10 -11q23 -12 23 -27q0 -4 -1 -10.5t-1 -9.5q0 -14 13 -26
q15 6 15 18q0 6 -8.5 34t-8.5 31q15 -7 21 -52q3 -32 6 -63q2 -12 14 -38.5t14 -42t6 -28t4 -17.5t-11 -34t-11 -34q0 -15 10.5 -33.5t7.5 -44.5q0 -1 1 -4.5t7 -3.5q11 0 12 7v-28zM369 267q-12 -4 -29 -17q0 10 8 17h21zM377 208q-5 -1 -16 -8t-13 -11q7 20 19 57
q0 -23 10 -38zM66 43l4 9zM334 604q0 8 -11 42q-3 -9 -8 -31t-7 -30q26 12 26 19zM350 518q0 18 -10 48q0 -4 -3 -13t-3 -15q0 -10 16 -20z" />
    <glyph glyph-name="asterisk" unicode="*" 
 />
    <glyph glyph-name="plus" unicode="+" horiz-adv-x="609" 
d="M615 481v2v-2zM562 462q-10 -5 -27 -5q-3 -11 -10 -27q-5 5 -10 17.5t-10 16.5q38 2 38 22q0 8 -7 18q20 -8 26 -23v-19zM329 674q-11 -11 -24 -11q-6 0 -14 -8q2 4 2 9q0 9 -7 17t-14 8q-6 0 -11 -1.5t-6 -1.5q9 18 23 25q8 0 15.5 -2.5t8.5 -2.5q0 -1 -2 -9t-2 -13
q5 -2 16 -4.5t15 -5.5zM380 367v2v-2zM363 342l-17 13zM505 496q0 -7 -8 -24.5t-8 -27.5q0 -7 3 -12q-55 -13 -128 -27q2 -14 35 -15q-2 -9 -11.5 -23.5t-9.5 -19.5l8.5 -28.5t8.5 -57.5q0 -34 -15 -81q-2 6 -11.5 14t-17.5 8q-5 0 -13 -2t-13 -2q-17 0 -23.5 13t-7.5 13
q-12 0 -20 -9q0 14 -20.5 35t-29.5 19q17 13 53 41q-1 0 -38 21q8 9 20 27l-15 15q-8 -7 -8 -17l-40 26q-5 -4 -39 -13t-43 -9q-39 0 -74 15q15 16 14 38q-1 35 0 39q2 0 8.5 2t8.5 2q5 13 -3 38q0 -2 9 -11q35 26 48 53q12 -28 35 -57q7 13 22 39l23 -22q30 12 30 69
q0 14 -2 26q22 20 22 28q0 6 -18 15q15 20 22 20q6 0 24.5 -8.5t23.5 -8.5q9 0 26 8q4 -45 21 -131q1 0 13 10q9 7 15 7t20 -8.5t20 -8.5t9 4.5t6 8.5q2 -2 14 -16q8 -10 14 -10q15 0 20 17q8 -13 14 -17t6 -5zM200 406v2v-2zM219 394v-13v13zM355 307l-26 -11q10 0 16 -6
q4 4 10 17zM382 231q0 15 -20 15q-15 -7 -15 -21q17 -16 26 -13q0 1 4.5 6.5t4.5 12.5zM161 404q0 16 -10 26q0 -2 -2.5 -10.5t-2.5 -10.5q10 0 15 -5zM96 403q-10 10 -16 10q-14 -15 -14 -25q14 -14 26 -14l2 9t2 20z" />
    <glyph glyph-name="comma" unicode="," horiz-adv-x="247" 
d="M178 130v2v-2zM220 2q-6 -6 -6 -15q-15 12 -22 26q3 -63 -67 -101q-1 1 -23 22q-14 0 -27 -26q-2 7 -18 21q-1 25 30.5 45.5t31.5 32.5q-54 60 -53 78l13 6q0 12 -16 8q-5 11 -5 29q0 55 46 69q3 -3 52 -72q8 -13 31 -26q9 -33 33 -97zM39 140l4 13zM108 50v3v-3zM69 -44
v-23v23z" />
    <glyph glyph-name="hyphen" unicode="-" horiz-adv-x="576" 
d="M562 458q-8 -8 -24 -1q-5 -5 -8.5 -17t-4.5 -14q-5 12 -20 38q39 0 39 19q0 7 -8 17q21 -9 26 -19v-23zM505 494q0 -12 -7.5 -27.5t-7.5 -22.5q0 -8 6 -17l-138 -27q-5 0 -9.5 4t-10.5 4q-5 0 -12 -4t-12 -4q-6 0 -8 4t-7 4q-6 0 -9 -4t-9 -4q-5 0 -5 4t-6 4
q-13 0 -25 -25q-5 -15 -10 -29q-9 1 -23 10t-19 9t-39 -8.5t-40 -8.5q-34 0 -79 15q26 28 32 123q3 -3 10 -11q14 11 29 21q21 17 19 32q2 -6 35 -62q14 19 22 44q7 -6 22 -22q7 5 21 15.5t20 14.5q-4 -5 3 -12q14 6 41 22q2 -31 25 -31q10 0 32 22q-3 -13 10 -13
q10 0 19 17q4 -1 24 -12q16 -10 23 -10q6 0 9 4.5t6 9.5q9 -9 31 -27q16 7 17 22q10 -14 20 -24zM197 398l9 14zM217 384v2v-2zM153 426v-18v18zM97 391q0 17 -17 17q-14 -14 -14 -25q8 -5 20 -14q11 11 11 22z" />
    <glyph glyph-name="hyphen" unicode="&#x2010;" horiz-adv-x="576" 
d="M562 458q-8 -8 -24 -1q-5 -5 -8.5 -17t-4.5 -14q-5 12 -20 38q39 0 39 19q0 7 -8 17q21 -9 26 -19v-23zM505 494q0 -12 -7.5 -27.5t-7.5 -22.5q0 -8 6 -17l-138 -27q-5 0 -9.5 4t-10.5 4q-5 0 -12 -4t-12 -4q-6 0 -8 4t-7 4q-6 0 -9 -4t-9 -4q-5 0 -5 4t-6 4
q-13 0 -25 -25q-5 -15 -10 -29q-9 1 -23 10t-19 9t-39 -8.5t-40 -8.5q-34 0 -79 15q26 28 32 123q3 -3 10 -11q14 11 29 21q21 17 19 32q2 -6 35 -62q14 19 22 44q7 -6 22 -22q7 5 21 15.5t20 14.5q-4 -5 3 -12q14 6 41 22q2 -31 25 -31q10 0 32 22q-3 -13 10 -13
q10 0 19 17q4 -1 24 -12q16 -10 23 -10q6 0 9 4.5t6 9.5q9 -9 31 -27q16 7 17 22q10 -14 20 -24zM197 398l9 14zM217 384v2v-2zM153 426v-18v18zM97 391q0 17 -17 17q-14 -14 -14 -25q8 -5 20 -14q11 11 11 22z" />
    <glyph glyph-name="period" unicode="." horiz-adv-x="255" 
d="M178 152v2v-2zM220 24q-6 -6 -6 -15q-5 5 -16.5 11t-12.5 7q-6 7 -33 16.5t-36 9.5q-4 0 -13 -9q-14 23 -37 62l13 7q0 12 -16 8q-5 11 -5 29q0 55 46 69q70 -88 80 -101q11 -16 14 -30q5 -25 22 -64zM39 161l5 13zM108 72v3v-3z" />
    <glyph glyph-name="slash" unicode="/" horiz-adv-x="668" 
d="M716 920q0 -19 -110 -179q-92 -133 -134 -187q-88 -114 -195 -277q-131 -199 -187 -277q-1 11 -5 31q-14 -13 -40 -31q2 25 -4 40q-15 -3 -41 -8q40 66 80 133q47 73 96 105q-3 3 -11 1q-14 -2 -24 -2q8 21 41.5 59.5t36 43.5t2.5 36q1 14 4 21q21 44 53 80q5 0 18 -13
q16 37 16 46q0 8 -4 15q38 66 94 133q18 23 110 126q4 24 27 54q19 24 39 48l6 -21q19 -1 30.5 16.5t20.5 17.5q4 0 12 -6.5t14 -6.5q12 0 45 21q0 -1 5 -7t5 -12zM228 336q-5 5 -5 15q-26 -13 -36 -39q-5 -20 -10 -39z" />
    <glyph glyph-name="zero" unicode="0" horiz-adv-x="740" 
d="M614 684l3 36zM522 377l3 49zM724 445l-9.5 -3t-17.5 -2q-7 -90 -53 -154q-4 -1 -22 17q-12 -27 -51 -50q-34 -21 -34 -32t16 -27q-7 6 -12 34t-20 40q-13 -12 -18 -59q-4 -37 -32 -38q-4 7 -17 22q-8 -4 -13 -16q-6 -16 -13 -23q-9 8 -12 20.5t-10 18.5q-17 -9 -17 -33
q0 -5 1 -14.5t1 -12.5q0 -19 -18 -19q-4 0 -16.5 6.5t-18.5 6.5q-5 0 -35 -19.5t-35 -19.5t-29 15.5t-30 15.5q-7 0 -22 -18q-21 18 -27 18q-5 0 -6 -2.5t-7 -2.5q-16 0 -36 40q-25 -13 -27 -13q1 4 1 8q0 10 -19.5 21t-24.5 25q-23 66 -23 161q0 75 23 139q15 42 56 110
q45 77 64 120q-1 -13 12 -27q10 12 8 25q-2 17 0 22q6 14 40 45q39 36 60 36q15 0 20 -5q6 7 8 20q2 10 7 10q0 -17 8 -26q6 0 21 14q39 -30 51 -49q7 5 4 22q20 -5 40 -11q29 -11 38 -42h16q13 7 13 23q2 -6 27 -44q9 5 27 13q1 -3 11 -26q8 -18 8 -25q0 -6 -10.5 -19
t-12.5 -19q7 -3 20 1t16 4q7 0 10 -4.5t6 -8.5q8 3 39 22q8 -34 27 -101q7 -1 22 13q9 -50 9 -82v-16q-1 -8 -1 -11q0 -11 19 -34zM413 266l10 2zM518 512q0 61 -35 118q-40 67 -104 77q-3 -4 -52 -53q-6 -6 -10 -19.5t-7 -15.5q-4 4 -10 4q6 -47 6 -39q0 -18 -21 -18
q-5 0 -14 2.5t-15 2.5q-9 -20 -23 -19q22 -32 22 -38q0 4 -28.5 -68t-28.5 -101q0 -17 2 -49.5t2 -53.5q6 -2 21 -12t21 -10q17 0 89 48q63 43 112 84q37 30 51 55q22 39 22 105zM180 291q-4 21 -16 60q0 -6 -4.5 -24t-4.5 -26q0 -10 4 -15q5 0 12 2.5t9 2.5z" />
    <glyph glyph-name="one" unicode="1" horiz-adv-x="313" 
d="M131 780v-26v26zM316 1025q0 -142 -41.5 -392.5t-41.5 -322.5v-168q0 -33 -24 -142q-7 11 -29 35q-10 -12 -10 -35q-15 11 -29 30q-7 10 -25 10q-5 0 -16.5 -2t-15.5 -2q3 87 9 169q3 34 0 62q18 6 34 53q14 39 14 62q0 10 -12 22q-28 -16 -28 -37q0 -6 7 -19
q10 -18 15 -30h-41v63q2 37 28 44q-8 20 -31 64l6 104q9 -5 26 -13q3 5 3 24q0 40 -17.5 40t-17.5 32q0 15 9 32q16 31 20 42q2 3 4 55q1 13 3 23q5 17 23 66q16 42 16 48q0 5 -13.5 20t-13.5 19q0 6 16.5 36.5t16.5 43.5q0 -5 9 -12.5t18 -7.5q20 0 21.5 19.5t8.5 19.5
q5 0 17.5 -8.5t20.5 -8.5q12 0 37 26q24 -14 24 -64z" />
    <glyph glyph-name="two" unicode="2" horiz-adv-x="716" 
d="M694 82q-11 -33 -74 -47q-35 -9 -64 -9q-5 0 -12.5 4.5t-14.5 4.5q-44 0 -215 -35q-177 -36 -194 -52q3 12 -15 12q-6 0 -19 -7.5t-18 -9.5q-14 9 -25 31q-8 18 -8 28q0 7 144 142q27 55 101 156q82 109 110 158q51 91 51 166q0 25 -5 50q-1 4 7 14t9 12l-10 12
q-8 10 -8 22q0 5 1 10q-44 38 -60 38q-20 0 -44 -42q-30 -49 -58 -63q-2 -5 -21 -43q-16 -31 -17 -49q-57 -27 -90 -27q-2 0 -74 36q9 68 114 156.5t186 88.5q30 0 110 -16q-1 -14 64 -44l20 7q9 -14 9 -25q0 -7 -4 -17.5t-4 -16.5q0 -17 17 -34q9 -2 15 14h21q8 -7 8 -21
q0 -8 -4 -28t-3 -30h-29q-2 -2 2 -8t4 -11v-25l-28 5q-4 -9 -4 -20q0 -9 5 -30.5t5 -31.5q0 -13 -5 -24q-25 5 -52 -15q15 -4 48 -16v-21q-20 -5 -62 -15q-8 -5 -8 -22t-17 -23q10 -6 34 -20v-17q-17 -6 -52 -25q1 -5 7 -17.5t6 -19.5q0 -26 -22 -41q-3 -2 -42 -18
q-23 -10 -23 -24q0 -6 3 -12q-3 0 -21 -9v-68q7 -8 13 -8q3 0 39 8.5t54 8.5q2 13 22 35.5t28 22.5q5 0 12.5 -2.5t13.5 -2.5q48 0 105 48h28q-9 -6 -9 -16q0 -6 5 -19.5t5 -18.5v-24q-9 -8 -18 -8q-5 0 -14 3t-15 3q-5 0 -10 -2q0 -10 26 -22q31 -14 40 -24zM258 74l-6 14z
" />
    <glyph glyph-name="three" unicode="3" horiz-adv-x="718" 
d="M551 744v2v-2zM637 621h-13h13zM515 377v31v-31zM522 337v-13v13zM553 289l5 17zM698 716q0 -10 -56 -114.5t-66 -118.5q-10 6 -10 15q0 5 8 19.5t9 23.5q-9 -3 -25 -20q-18 -20 -18 -31q0 -12 24.5 -29t34.5 -17q9 0 18 8q18 -16 31 -32l28 -35q-4 -10 -4 -21
q0 -9 4.5 -21.5t4.5 -15.5q0 -5 -11 -18.5t-13 -20.5q-3 7 -5 15q-6 12 -21 18q-3 -3 -3 -22q0 -25 9.5 -52.5t16.5 -33.5q-11 -18 -47 -57q-41 -45 -51 -59q-9 8 -25 8q-18 0 -22 -10q-6 -19 -11 -38q1 6 -9 26q-12 -12 -13 -39q-1 -18 -28 -18q-18 0 -28 19q-5 13 -10 25
q-14 -5 -20 -34t-19 -36q-2 1 -15 13q-10 9 -16 9q-5 0 -17 -9t-18 -9t-41.5 23t-41.5 30q-15 -13 -22 -37q-7 17 -2 44q4 27 1 34q-5 13 -34 12q-9 -6 -9 -14q0 -4 3 -13.5t3 -15.5q0 -5 -1 -10q-45 49 -99 137q-11 1 -11 -14q-4 18 11 72q17 64 46 64q10 0 24 -6
q-6 -15 -6 -32q0 -65 81 -122q74 -51 138 -51q26 0 102 83q13 15 23 69q9 46 9 75q0 41 -29 41q-11 0 -26.5 -17.5t-21.5 -17.5q-5 0 -13 9q-52 -48 -73 -48q-16 0 -44 22l-34 -22q2 26 -5 26q-8 0 -47 -13q-3 2 -6.5 4t-3.5 9q0 39 42 65q36 21 73 41q28 20 57 40
q37 29 48 56l11 -2.5t24 -2.5q20 41 40 101q2 0 23 -21q16 19 17 22q11 37 25 72q-8 8 -30 7q-5 6 -5 17q0 20 26 64l-3 29q-3 -5 -6.5 -9.5t-10.5 -4.5q-5 0 -24 11t-24 11q-56 0 -155 -56q-94 -53 -119 -92q0 -63 -42 -63q-6 0 -25.5 7t-25.5 7q-10 0 -10 -14
q-16 30 -16 57q0 43 14 92h29q6 -21 5 -66q11 1 27 12q-16 7 -16 16q0 3 3 11t3 15q0 11 -8 24q3 4 23.5 14t26.5 10q1 0 27 -13q15 3 25 57q3 -2 10 -10t13 -8t20 12q20 17 22 18q0 2 -4 9t-4 9h24q7 -16 21 -21q15 7 15 15q0 3 -4 11t-4 13l11 13q2 -6 40 -44q16 4 16 53
q15 -9 29 -9q11 0 16 18q11 -22 26 -22q6 0 14.5 2t14.5 2q27 0 72 -28.5t46 -28.5q6 0 8 2.5t8 2.5q28 0 48 -63q15 -47 15 -69zM39 706v-13v13zM151 328l11 26zM93 184l-5 13zM118 655l-33 34q-1 -2 -1 -34h34z" />
    <glyph glyph-name="four" unicode="4" horiz-adv-x="720" 
d="M715 474q-14 -21 -36 -57q-9 9 -14 9q-17 0 -26 -18q-4 16 -13 40q-50 -62 -55 -62q-6 0 -9.5 2.5t-4.5 2.5q-3 -13 1 -39l4 -31q0 -22 -10 -140q-9 -121 -14 -144q-1 -7 -35 -37l-18 18q-3 -1 -11.5 -7.5t-14.5 -6.5t-14 7t-13 7h-11.5h-28.5q-3 6 4.5 20.5t7.5 20.5
q0 4 -11 26.5t-11 28.5q0 7 13 52q15 54 16 61q3 11 3 23q0 10 -3 30t-3 30q0 25 14 48q-6 7 -24 7l-284 -84q-2 0 -5.5 2t-9.5 2t-7 -4t-6 -4q-23 0 -41.5 18t-18.5 39q0 26 9 27q18 4 29 15q13 55 88 187q72 126 82 187q8 10 16 10q4 0 28 -7t33 -7q0 -1 2.5 -9t2.5 -15
q0 -61 -50 -174q-36 -77 -73 -155q6 -7 18 -7q4 0 51 16q52 18 73 22l56 6q34 6 47 34q5 12 8 82q2 76 14 111q-2 19 -2 48v114q1 -7 12 -7q5 0 15 4.5t16 4.5q21 0 90 -40q1 -110 -6 -177l-7 -70q0 -27 13 -86q7 8 35.5 26t38.5 18q6 0 19.5 -12.5t17.5 -14.5z" />
    <glyph glyph-name="five" unicode="5" horiz-adv-x="668" 
d="M715 822q-15 1 -31 -4q-25 -8 -26 -31l-175 8q-5 0 -32.5 -4.5t-33.5 -4.5q2 0 -42 3q-40 3 -62 2q-6 5 -6 15q0 21 17 48q20 33 49 33q6 0 20 -4.5t20 -4.5q5 0 22.5 4.5t23.5 4.5q5 0 47 -9t47 -9t33 7t33 7q29 0 64 -28q28 -22 32 -33zM522 400l-31 -4q10 -27 10 -38
q0 -16 -12 -33t-12 -33q0 -14 6 -32q-24 -1 -32.5 -28t-25.5 -28q-12 -4 -17.5 -20.5t-17.5 -18.5q-63 -52 -104 -72q-44 -22 -91 -23q-2 3 -7 0q-7 -4 -12 -4t-15.5 8.5t-15.5 8.5q-6 0 -18 -2t-17 -2q-41 0 -51.5 21t-36.5 24q1 17 -8 46q1 0 7 3t12 3q5 0 37 -15.5
t38 -15.5q5 0 16.5 9.5t17.5 10.5q249 51 249 268v32q-4 19 -29 49q-33 -18 -91 -50l-40 -44q-36 -38 -66 -38q-4 0 -11.5 6.5t-12.5 6.5q-6 0 -13.5 -9t-14.5 -17q-1 0 -24.5 8t-34.5 6q0 1 -3 7t-3 12q0 11 15 87q47 143 57 186q21 91 17 181q1 0 8 -4t13 -4t7 4t6 4
q6 0 20 -6.5t20 -6.5q-1 0 28 4q24 2 37 0q0 -9 4.5 -30.5t4.5 -26.5q0 -11 -15.5 -28t-15.5 -39q0 -12 3 -27q0 -4 -29 -23q18 -38 18 -52q0 -23 -26 -48q10 -7 28 -7q10 0 56 9t52 9q2 0 17.5 -15.5t21.5 -15.5q7 0 16 9q19 -25 47 -39q4 4 4 34q27 -11 60 -80v-77z" />
    <glyph glyph-name="six" unicode="6" horiz-adv-x="831" 
d="M676 214v-26v26zM830 377q-22 -94 -28 -114q-19 -64 -40 -87l-22 22q-14 -28 -36 -51q-1 -1 -52 -46q-5 12 -17 26q-44 -53 -101 -89q-61 -38 -108 -38q-5 0 -15.5 6.5t-15.5 6.5t-16 -6.5t-17 -6.5t-36.5 13t-35.5 13t-13.5 -4t-13.5 -4t-23.5 15t-24.5 15
q-7 0 -10 -4.5t-6 -8.5q-5 12 -5 36q-7 4 -34 -5q-5 6 -22 22q-2 -2 -8.5 -6.5t-8.5 -6.5q-10 8 -25 42q-12 28 -24 28t-12 -9q-17 18 -12 61.5t-2 52.5q-9 -7 -12 -15q-4 -13 -6 -15q-6 10 -6 20v117q0 2 1.5 4t1.5 3q0 4 -16 11q9 25 9 49v113q0 6 7 19.5t9 18.5
q-4 -14 4 -70q17 13 33.5 44.5t16.5 58.5q0 12 -4 22q13 -7 18 -7q18 22 35 64q20 1 39.5 23.5t17.5 35.5h25q0 -10 7 -17q4 4 15 32q8 20 24 18l32 25q3 -4 10 -15.5t11 -15.5l10 30q6 19 22 27q0 -4 9 -22q28 3 37 23l10 34q2 -9 3 -18q5 -15 27 -17q0 15 4 45q12 4 37 12
q4 -2 9.5 -13t11.5 -18q4 13 13 40q3 -1 22 -11q16 -7 23 -7q10 0 17 13q13 -8 48 -8q6 0 24.5 2t24.5 2q21 0 44 -31q9 9 17 9q11 0 48 -34.5t37 -48.5q-1 0 -9.5 -4.5t-13.5 -4.5q-6 0 -22.5 4.5t-21.5 4.5q-6 0 -7 -4.5t-6 -4.5q4 0 -49.5 11t-130.5 11q-13 0 -112 -55
q-102 -57 -137 -87q-44 -36 -95 -125q-4 -6 -20 -59.5t-16 -57.5q0 -19 24 -51l68 70q6 -4 15 -4q6 0 44.5 15.5t43.5 15.5t10.5 -2.5t11.5 -2.5t8.5 2.5l3.5 3.5q13 8 93 23q77 15 95 15q4 0 35 -17.5t37 -17.5q4 0 17 6.5t18 6.5q6 0 31 -12t37 -15q5 -13 25 -33zM66 587
l4 8zM118 355l-8 21zM43 433l-12 14zM57 376v-34v34zM789 329q-7 -16 -27 -43.5t-20 -26.5q0 -4 7 -11.5t19 -9.5q-9 27 -5 35q5 0 13 2t9 2q4 14 4 52zM637 279q-10 17 -16 49t-13 42q-12 16 -42 16q-11 0 -66 -13q-62 -15 -95 -28q-15 -6 -35.5 -25.5t-26.5 -21.5
q0 -1 3.5 -21t3.5 -34q0 -37 -23 -37h-17q-8 24 -8 39l-21 -3q-6 0 -11 5.5t-9 9.5q-6 -15 -9 -20q-7 -13 -17 -17q-17 16 -20 16q22 -50 29 -91q1 16 17 22q46 -56 73 -68q15 -7 68 -7q76 0 148 77q43 55 87 110z" />
    <glyph glyph-name="seven" unicode="7" horiz-adv-x="528" 
d="M566 813q-13 3 -26 -23q-16 -33 -31 -42q9 -16 9 -34q0 -21 -9 -68q-46 -21 -81 -140q-25 -92 -49 -184q-17 -89 -33 -177q-28 -141 -65 -141q-5 0 -21.5 11t-22.5 11q-13 0 -24 -26q-9 20 -31 62q-15 -14 -22 -27q-7 17 -13 17q-3 0 -7 -1q-4 0 -10.5 8.5t-6.5 12.5
q0 23 17 69q25 71 28 81q24 83 122 313q88 207 88 223q0 8 -11 13.5t-20 5.5q-6 0 -20 -4.5t-20 -4.5q-74 0 -155 18q-91 20 -121 50q7 12 18 37q7 0 15 -2t13 -2q22 0 66 27q14 -13 33 -13q4 0 11 2t13 2q5 0 8.5 -6.5t8.5 -6.5q7 0 16.5 7.5t19.5 14.5q35 -27 39 -27
q5 0 14.5 7t14.5 7t16 -4.5t17 -4.5q8 0 17 9q13 -14 29 -14q5 0 14 2.5t14 2.5q9 0 22 -13q9 8 18 26q23 -35 39 -35q5 0 18 13q5 -11 18 -31q2 0 10 2t13 2v-25zM325 135l3 19z" />
    <glyph glyph-name="eight" unicode="8" horiz-adv-x="726" 
d="M581 650l-13 9zM496 443l3 18zM456 460l4 14zM583 250v-14v14zM729 279q0 -24 -22 -72q-27 -58 -57 -58q-7 0 -10 4.5t-6 8.5q-16 -10 -34 -48l-31 18q-9 -13 -26 -40l-14 13q-3 -3 -2 -20q-5 -3 -34 -5q-22 -1 -22 -12q0 -5 2 -11q-7 9 -23 9q-6 0 -51 -24
q-56 -30 -73 -37q-4 11 -17 30q-6 -4 -23 -22q-12 -13 -18 -13q-101 0 -223 84q-23 79 -23 116q0 38 52 123q54 89 97 110v13q-7 5 -24 19q-8 -6 -8 -26q-24 23 -55 61q4 -1 21 8q-1 3 -7 11h-19v24q8 8 26 36q10 15 31 25l-8.5 5.5t-8.5 11.5q0 18 32 71q21 32 41 63
q-1 -8 8 -35q17 37 57 114q8 -8 15 -8q15 0 27 17l14 26q1 0 5.5 -2t10.5 -2q8 0 34 13l5 -31q17 0 46 49q13 -7 22 -24q12 -21 15 -25q7 3 31 27l5 -40q15 -3 24 14q37 -35 75 -47q23 -4 47 -9q15 -5 15 -29q0 -14 -3 -39q9 7 26 18l14 -72q0 -44 -35 -106q-36 -65 -77 -81
q-5 7 -13 18q-10 -17 -42 -51q4 -8 33 -20.5t40 -12.5q5 0 8.5 2.5t8.5 2.5q29 0 35 -43q0 -23 1 -45q8 4 20 17t14 22q7 -13 34 -49q17 -24 17 -45zM540 637q0 27 -23 68q-28 50 -62 50q-48 0 -110 -57l-15 13q2 -7 -9.5 -23t-24.5 -18q-37 -40 -37 -106q0 -41 16 -59
t59 -18q19 0 110 61q96 63 96 89zM566 279q-82 85 -164 85q-6 0 -17 -10.5t-16 -10.5q-11 0 -39 15q0 -26 -7 -33q-8 5 -18 5h-7q-5 -1 -7 -1q-10 0 -17 14q-2 -8 -18.5 -28t-24.5 -25q-6 8 -15 19q-2 -32 -17 -92.5t-15 -62.5q0 -30 43 -56q39 -23 69 -23q22 0 116 52
q102 58 135 98q3 4 6 24.5t13 29.5zM166 163q0 19 -2.5 31.5t-2.5 11.5q-16 -16 -16 -24v-19h21z" />
    <glyph glyph-name="nine" unicode="9" horiz-adv-x="678" 
d="M645 649l-4 13zM615 310v-12v12zM564 742q10 0 18 9q5 -11 25.5 -39t20.5 -34q0 -4 -11 -16.5t-11 -18.5q0 -16 12 -38q14 -25 30 -25q5 0 12 1.5t11 1.5q0 -27 -9 -40q-10 -3 -33 19q-7 0 -14 -7v-16q13 -7 26 -13q18 -8 18 -21q0 -4 -14 -41t-12 -54q-9 -14 -9 -31
q0 -7 2 -18.5t2 -15.5q0 -11 -11 -16q-8 8 -11.5 23.5t-10.5 20.5q-8 -6 -16 -28.5t-8 -34.5q0 -9 26 -22q-11 -5 -13 -22q-5 -32 -6 -32.5t-7 -2.5t-8 -2q-2 10 -12 34q-7 -6 -15 -32q1 -1 0.5 -6t5.5 -5q7 3 9 3q9 0 15 -24q-12 -6 -41 3q-13 -11 -13 -34q0 -22 14 -28
v-21q-7 2 -13 2q-33 0 -54 -53q-15 -40 -30 -81q-4 0 -16.5 6.5t-17.5 6.5q-21 0 -33 -37.5t-26 -37.5q-8 0 -17 9q-11 -21 -44 -26q-49 -9 -50 -9q-12 24 -47 40l-50 18v25q6 0 21 4.5t20 4.5q6 0 15.5 -4.5t15.5 -4.5q19 0 34.5 13.5t12.5 41.5q10 -7 22 -7l116 192
q96 162 111 214q-3 4 -35 12.5t-42 8.5q-28 -22 -61 -22q-39 0 -41 22q-19 -3 -29 -17t-20 -14q-6 0 -32 26.5t-32 26.5q-4 0 -11 -7t-13 -7t-17 14.5t-30 14.5q-14 11 -45 26q3 4 13 35l-12 12q-6 -8 -26 -31q-4 9 -8.5 26.5t-8.5 25.5q-7 -4 -17 -17q-20 49 -20 72
q0 31 16 53q22 29 34 75q2 -6 18 -25q22 13 22 39q0 4 -1 7q7 -10 18 -10q17 0 35 26t25 26q5 0 9.5 -2t9.5 -2q16 0 78 38q5 -28 23 -34q20 23 57 25q41 2 63 19q9 -22 21 -22q5 0 17.5 6.5t17.5 6.5q50 -19 101 -39q24 0 30 -2q5 -18 -12 -33h-120q-8 13 -16 13
q-79 0 -160 -29q-115 -43 -115 -123q0 -30 48 -96q19 2 39 -20t36 -22h25q4 -2 12 -9q14 14 22 14q15 0 35 -14q5 11 19 35q-3 -13 14 -13q6 0 21.5 9t20.5 9q6 0 10.5 -2.5t6.5 -2.5q3 7 10 18q-1 -8 13 -22q15 3 15 55q0 36 -18 72q-12 24 -34 51q-18 23 -18 24
q0 16 20 35q10 -25 63 -20q11 -15 24 -15z" />
    <glyph glyph-name="colon" unicode=":" horiz-adv-x="257" 
d="M211 400q0 -40 -15 -57q-10 8 -35 39q-21 26 -27 26q-13 0 -13 -8q-4 22 -18 57q-8 -8 -8 -13q-5 9 -11 19.5t-18 16.5v22q0 7 7.5 14t16.5 7q4 0 27 -13t32 -15q-10 -11 -5 -21q4 1 24 22q43 -5 43 -96zM178 152v2v-2zM119 161l8 3zM217 14q-5 0 -32 13q-6 7 -33 16.5
t-36 9.5q-4 0 -13 -9q-14 23 -37 62l13 7q0 12 -16 8q-5 10 -5 29q0 55 46 69q10 -18 42 -57t46 -64q22 -40 25 -84zM39 161l5 13zM108 72v3v-3z" />
    <glyph glyph-name="semicolon" unicode=";" horiz-adv-x="258" 
d="M211 404q0 -21 -10 -61q-11 6 -38 37q-24 28 -29 28q-13 0 -13 -8q-2 22 -18 57q-8 -9 -8 -13q-2 4 -17 41q-9 24 -16 27q3 0 13 5.5t15 5.5q6 0 28.5 -13t30.5 -15q-10 -11 -6 -21q11 9 31 22q37 -23 37 -92zM42 173v3v-3zM217 14l-25 13q-2 -20 -20 -48
q-22 -32 -47 -45q-14 16 -26 22q-2 -1 -27 -26q0 13 -14 20q-4 8 -4 14q0 15 24 28q34 16 41 24v21q-38 28 -53 67q9 0 13 5q2 4 -17 12q-5 10 -5 27q0 51 47 71l62 -78q46 -62 51 -127zM108 72v3v-3zM66 -46v23v-23z" />
    <glyph glyph-name="equal" unicode="=" horiz-adv-x="639" 
d="M562 458q-1 -1 -27 -1q-3 -11 -10 -31q-5 13 -20 38q33 1 33 28q0 4 -1 8q20 -8 25 -19v-23zM615 288v2v-2zM562 269q-10 -5 -27 -5q-5 -9 -5 -27q-14 8 -25 34q14 -1 35 13q0 4 -2 13.5t-2 13.5q8 0 26 -18v-24zM505 492q0 -7 -8 -25t-8 -27q0 -7 3 -13
q-138 -27 -136 -27q-5 0 -8.5 4t-9.5 4q-5 0 -13 -4t-13 -4q-6 0 -8 4t-8 4q-5 0 -8.5 -4t-8.5 -4q-6 0 -6 4t-5 4q-13 0 -24.5 -28.5t-12.5 -28.5q-9 0 -36 27q-27 -18 -83 -18q-23 0 -72 10q24 59 27 124q3 -3 10 -11q14 11 29 21q21 17 19 32q13 -27 36 -57q11 10 21 39
q7 -6 22 -22q7 5 21 15.5t20 14.5q-4 -5 3 -12q14 6 41 22q1 -12 9.5 -21.5t13.5 -9.5q12 0 34 22q-3 -13 10 -13q10 0 19 17q4 -1 24 -12q16 -10 23 -10q6 0 9 4.5t6 9.5q17 -20 31 -27q16 8 16 22q21 -12 21 -26zM217 384v2v-2zM193 394l13 16zM153 424v-16v16zM505 303
q0 -8 -7.5 -26t-7.5 -31q0 -6 1 -12l-131 -23q-5 0 -11 4.5t-11 4.5t-12 -4.5t-12 -4.5q-6 0 -8 4.5t-7 4.5q-6 0 -9 -4.5t-9 -4.5q-5 0 -6.5 4.5t-6.5 4.5q-13 0 -22 -23q-6 -16 -11 -32q-9 1 -23 10t-19 9t-41.5 -8.5t-41.5 -8.5q-24 0 -75 15q18 9 19 34v43q4 -1 21 8
q0 16 -8 40q3 -6 10 -17q35 26 48 53q16 -31 35 -58q15 23 22 40l22 -22q14 14 39 26q7 0 46 13q0 -7 7 -18.5t14 -11.5q8 0 29 22q2 0 6 -4.5t11 -4.5q3 0 24 18q33 -22 39 -22q5 0 18 13q17 -20 31 -27q16 9 16 22q21 -10 21 -26zM189 196l13 17zM153 231v-17v17zM97 391
q0 17 -17 17l-19 -19q9 -10 25 -20q11 11 11 22zM96 209q-2 3 -7.5 5.5t-7.5 5.5q-15 -16 -15 -25q14 -14 26 -14l2 9t2 19z" />
    <glyph glyph-name="question" unicode="?" horiz-adv-x="405" 
d="M387 595v2v-2zM329 531v-14v14zM391 665q0 -14 -8.5 -18.5t-18.5 -7.5q9 -18 22 -21q-27 -28 -32.5 -67t-43.5 -77q-3 2 -7.5 4.5t-7.5 4.5q-8 1 -14 -15l3 -20q13 12 14 12q-3 -32 -23 -34q-11 -4 -67 -61q-63 -63 -63 -86q0 -24 35 -49q38 -28 44 -44q-10 -10 -10 -14
q-21 12 -60 24q-44 13 -63 23q-36 19 -65 55q0 35 12 40q27 6 34 35q0 12 -16 -10h-21q10 21 32 59q24 2 36.5 19t12.5 35l2.5 -6.5t8.5 -6.5q7 0 11.5 2t6.5 2v-38q-7 -1 -18 -8q4 -1 12 -6q19 4 19 31q0 19 -31 41q4 7 8.5 14t15.5 6q6 4 17.5 21.5t13.5 26.5l5.5 -10.5
t5.5 -16.5t-4 -10l12 -11q2 0 14 12q1 6 -17 25l5 50q18 -2 18 18v3q0 23 20 26q18 12 32 72q16 1 25 15q2 3 14 27q-5 4 -13 4q-10 -1 -13 0q-6 2 -8 12q-7 -7 -7 -18l-18 9q-1 -1 -3 -1t-11 14q-4 -7 -12 -17q-2 0 -5 5.5t-5 7.5q-10 -10 -12 -31q-9 9 -14 9t-17.5 -13.5
t-17.5 -13.5q-4 0 -13 9q-8 -8 -8 -17q-3 1 -72 62v20q1 0 4 -2t10 -2q-6 0 43.5 26.5t94.5 26.5q64 0 116 -40q60 -46 60 -116zM158 350l13 13zM95 336v2v-2zM215 20q0 -7 -5 -12.5t-5 -7.5q-71 31 -75 31q-15 0 -28 -13q0 16 12 28q-11 4 -28 13q1 3 -3 7.5t-8 4.5
q3 9 29 21l3 -8.5t9 -8.5t16 2t15 2q23 0 43 -14q25 -17 25 -45z" />
    <glyph glyph-name="at" unicode="@" 
 />
    <glyph glyph-name="A" unicode="A" horiz-adv-x="682" 
d="M263 820l5 13zM434 592l-4 35zM503 472v2v-2zM720 -33q0 -4 -9.5 -17t-10.5 -20q0 3 -3 15t-3 17q-3 3 -11 3q-6 0 -20 -17.5t-20 -17.5q-7 0 -72 134q-71 146 -91 172q-12 1 -65.5 12t-54.5 11q-5 0 -13.5 -4.5t-12.5 -4.5q-6 0 -8 6.5t-8 6.5q-31 0 -44 -56
q-8 -32 -8 -62q-14 26 -13 30l15 8q-22 44 -22 52q0 4 7 10.5t7 11.5q0 2 -1 5q-19 -2 -31 -51q-8 -36 -8 -68q0 -5 11 -19t11 -19q0 -9 -23 -55q-21 -42 -25 -45q1 4 -4 10.5t-12 6.5q-6 0 -18 -9t-17 -9q-37 0 -54 -4q-1 2 -9 19q-7 12 -7 18q0 10 11 14q-23 30 -23 37
q0 10 11 24.5t18 14.5q5 0 13 -8q11 6 11 19q0 6 -8.5 21.5t-8.5 20.5q0 14 16 53.5t28 45.5q-21 27 -21 35q0 9 7 17q-19 18 -26 31q17 15 33 30q32 29 29 42q1 0 7 -2t12 -2q8 0 20 12q2 7 2 14q0 26 -24 79q3 0 9.5 -2t9.5 -2q1 3 2 26q0 15 19 21q-18 20 -31 20
q0 5 4 21.5t7 16.5q1 0 2 -4t11 -4q40 18 40 25q0 4 -2 8q-8 3 -30 -11q9 46 9 74q4 -3 4.5 -14.5t5.5 -15.5q19 8 19 26q0 35 -6 76q-5 8 -15 6q-2 7 28.5 46t49.5 39q-2 0 73 -30q20 -29 20 -56q0 -12 -4 -27t-4 -19q0 -6 3 -9q35 -19 38 -88t30 -85q-2 -24 -2 -20
q0 -20 13 -80t21 -74q2 0 22 9v-24q1 -7 -6.5 -13.5t-14.5 -12.5l34 -19q26 -14 35 -32q12 -1 21 18q4 -12 22.5 -28.5t18.5 -23.5q0 -3 -1 -5q-3 2 -17 16.5t-19 14.5t-11 -5.5t-9 -7.5q0 -7 18 -34q-10 -10 -17 -10q1 4 -8 22q-10 1 -10 -12t13.5 -20.5t14.5 -14.5
q0 -11 2 -33q11 -1 16.5 2t4.5 12q-4 -34 51.5 -119t55.5 -112zM158 469l4 21zM171 249l5 22zM202 184l4 43zM140 148l5 13zM166 87l10 48zM241 25l5 17zM64 178v2v-2zM57 139l4 13zM41 35l-5 12zM460 527q-5 15 -13.5 35.5t-9.5 25.5q0 -1 -3.5 -6t-3.5 -11q0 -5 10.5 -22
t19.5 -22zM324 637v30q-27 -27 -31 -47q7 8 31 17zM250 604q-14 15 -21 15v-26q11 0 21 11zM421 343v55q0 2 -67 177q-19 -9 -24 -43q15 1 21 -7v-17q-13 -5 -35 -15q12 3 27 -12q-11 -4 -31 -22q18 -18 18 -21q-14 -13 -22 -13l13 -14q-1 0 -12 -11q-6 -5 -6 -11
q0 -28 33 -32q63 -6 85 -14zM267 493v19q-4 6 -16 6q0 -11 -5 -25h21zM201 412q-8 -4 -16.5 -14.5t-8.5 -17.5q0 -6 5 -12.5t5 -7.5q5 17 15 52zM223 277q0 12 -20 12v-16zM144 225q0 23 -10 34q-2 -3 -6.5 -7t-4.5 -10q0 -17 21 -17z" />
    <glyph glyph-name="B" unicode="B" horiz-adv-x="627" 
d="M548 843l-31 17zM413 871h-18h18zM448 767l9 22zM512 707v2v-2zM390 838v-22v22zM338 868l4 9zM455 678v3v-3zM490 643v2v-2zM562 459v2v-2zM592 339q-11 0 -17 6q2 2 5.5 7.5t5.5 7.5q6 -6 6 -21zM448 403v-17v17zM465 363v-17v17zM154 658l-11 13zM618 743
q-18 9 -50 34q-7 0 -15 -7q9 -33 20 -54q11 13 23 12h18q-4 -13 -17 -16q-2 -4 -0.5 -15.5t-1.5 -15.5q-4 4 -12 4l-12 -11q6 -4 22 -17q-29 -27 -84 -85q0 -7 14 -7q-13 -6 -37 -29q-1 0 -19 17q-8 0 -21 -13q-15 12 -26 18q-7 -6 -7 -18t16 -26q-1 0 32 8q-3 -6 -19 -29
q-12 -17 -12 -23q0 -11 20 -31q22 11 20 52h21q6 -33 18 -114q3 0 12 -8q13 9 11 56q14 7 39 -6q-17 -9 -21 -19q-1 -4 -1 -25q0 -4 8.5 -21.5t8.5 -21.5q0 -13 -17 -31q6 -3 30 -3v-20q0 2 -13 -17q-16 -21 -24 -46q-2 11 2 29.5t4 22.5q0 14 -19 14q-8 0 -29 -21
q0 -9 23 -20q-20 -26 -23 -103q-6 0 -16 -9q0 3 4 17t4 20q0 4 -11 15q-19 -25 -37 -51q-20 -29 -19 -63q-1 1 -5.5 9t-9.5 13q-5 -3 -7 -9.5t-4 -12.5q-3 0 -9.5 2.5t-8.5 2.5q-16 -25 -57 -44q-36 -17 -37 -27v28q-9 7 -15 7q-7 0 -29 -22q-6 12 -6 37q-3 3 -11 3
q-5 0 -31 -13q-6 11 -22 30q-8 -8 -8 -22q-2 6 -36 40q-16 -7 -16 -23q0 -19 -5 -25q-14 6 -14 16v5q1 4 1 5q0 13 -26 22q-4 -9 -15 -22q-10 27 -10 42q0 5 8.5 23.5t8.5 24.5q0 33 -25 29v95q8 6 19 34t11 44q0 14 -7.5 45t-7.5 43q0 14 6 22q-7 7 -13 2q4 17 4 55
q0 5 9 18.5t9 18.5q0 7 -6.5 14.5t-13.5 7.5q-6 0 -10 -1.5t-5 -1.5q9 11 24 36q-12 69 -12 112q0 62 24 94l34 17q24 12 29 12q8 0 22 -13q30 30 37 30q5 0 8.5 -4t8.5 -4t19.5 17.5t40.5 17.5q12 0 17 -17t19 -17q6 0 15 2q2 12 -3 16q-13 9 -15 12q7 2 20.5 -3t18.5 -5
q10 0 17 11v-31q3 -3 12 -3q8 0 34 30q4 0 11.5 -8.5t13.5 -8.5q5 0 15.5 1.5t15.5 1.5q-5 -5 -18 -14q15 -10 42 -13q36 -23 72 -45q49 -30 65 -62zM140 636v-13v13zM553 196v-12v12zM189 520l17 4zM171 491v-13v13zM138 446v2v-2zM476 81q-7 3 -19 15q19 0 19 1
q-8 -8 0 -16zM162 381v-22v22zM101 420l4 13zM52 351l-4 13zM93 96v31v-31zM518 734q0 20 -5 30q-13 0 -12 -16v-18q2 0 8 2t9 2zM426 642v55q0 8 -40.5 48.5t-51.5 40.5q-6 0 -9 -4.5t-9 -4.5q-19 0 -50 31l-14 -14q-7 -8 -13 -8q-8 0 -39 31q-29 -22 -36 -101q19 31 30 35
q-1 -10 -7.5 -17t-6.5 -12q0 -3 12 -31q15 -33 24 -108q2 -12 24 -56q-2 5 -2 10q0 25 55 22l28 29q21 21 31 23q11 -46 9 -71q20 16 20 30q0 6 -5.5 18t-5.5 20q0 20 32 46q12 -12 24 -12zM184 599q-2 2 -5 8t-5 8q-20 -18 -20 -31t21 -26q-3 33 9 41zM439 288q0 5 -11 44
q-13 47 -16 63q-6 -2 -13 -2q-31 0 -31 28q-1 0 -16 -10q-10 -7 -16 -7q-7 0 -19 14q-9 10 -18 21q5 -7 5 -12v-1q-2 -11 -27 -7q-3 83 -1 90q-18 -12 -18 -27q0 -5 2.5 -16t2.5 -17q0 -8 -3 -15q-21 0 -29 -8q-14 13 -13 26q-9 -23 -31 -68q12 -3 33 -10v-15q-4 -4 -18 -4
q18 -30 18 -89q0 -6 -6.5 -13t-6.5 -15q0 -9 5 -21q-1 -29 -1 -75q14 -6 17 -21q4 -25 6 -29h44q58 0 113 83q48 72 48 113zM109 475q0 6 -6 11t-10 5l-5 -16h21zM193 294q0 10 -12 22q3 -9 3 -17q0 -11 -8 -26.5t-8 -26.5q25 37 25 48zM108 316v62q-11 -23 -11 -44
q0 -6 11 -18zM184 213l-16 15q0 -14 10 -35q0 14 6 20zM114 209q-6 6 -16 6q-3 -10 -10 -30h21z" />
    <glyph glyph-name="C" unicode="C" horiz-adv-x="855" 
d="M606 844l-13 16zM860 127l-8 7zM896 158q0 -25 -24 -58q-27 -36 -30 -56q-6 2 -14 14t-13 12q-9 0 -24.5 -12.5t-18.5 -26.5h-20l-8 9q-19 -22 -30 -22q-9 0 -18 8q-8 -6 -8 -26q-11 7 -36 22q-33 -22 -39 -22q-8 0 -53 11q-50 12 -57 20q-17 -13 -13 -31q-13 23 -47 37
q-30 12 -60 13q-2 2 -23 32q-14 19 -20 19q-5 0 -23.5 -6.5t-24.5 -6.5q-4 0 -55.5 27t-60.5 26q4 20 -12 46q-13 21 -27 42q-18 0 -18 -18q0 -4 2 -19q2 -12 0 -18q-6 7 -14 27t-15 29q0 4 18 22q-11 8 -39 8q0 12 4 36.5t4 28.5q0 12 -19 37q2 23 -15 43q-2 6 -2 11
t2.5 13.5t2.5 12.5q0 8 -7 15q-28 -14 -28 -35q0 -5 2 -9q-1 5 -1 9q0 12 9.5 29.5t9.5 26.5q0 4 -2 9q4 -1 7 -1q10 0 15 23q7 30 26 47v21q-8 7 -13 7q-6 0 -11 -1.5t-6 -1.5q15 20 30 41q21 29 19 50q2 -16 3 -33q5 -23 32 -25q21 55 21 72q0 11 -2 21q-2 -10 10.5 -29
t26.5 -19q12 0 25 27q10 23 10 30q0 5 -6 10q-10 9 -11 10q12 0 28 -16q19 9 30 31q7 17 14 35q-1 -11 10 -49q18 3 15 35q27 -2 43 18q22 28 38 35q0 -5 8 -13q5 2 20.5 23t21.5 21q5 0 17 -6t15 -7q7 13 23 40q-1 -25 1 -31q1 0 3 -2t9 -2q10 0 17 17q17 -17 22 -17
q3 0 29 20.5t42 27.5q6 -12 13 -44l18 17q6 -13 26 -13q8 0 13 5q6 -7 6 -13t-22 -50q14 -7 30 1q-1 -5 -31 -35q-4 0 -12 6.5t-13 6.5t-10.5 -6.5t-11.5 -6.5q-5 0 -32.5 11t-33.5 11q-47 0 -125 -35q-83 -38 -135 -89q-62 -60 -53 -117q-4 4 -14 4q-15 0 -19 -20
q-18 -111 -18 -156q0 -21 55 -97q57 -80 78 -71q4 2 22.5 -14t27.5 -19q58 -18 84 -58q9 -1 15 18q158 -53 164 -53q4 0 15.5 9t15.5 7q9 -4 21 -4q38 0 78 30t40 65q0 12 -5 22q5 -6 15 -6t27 25q9 16 19 32q35 -49 35 -101zM189 445v-15v15zM406 74l2 11zM101 284l4 7z
M52 320l-4 11zM154 166l4 7zM854 189q-4 -3 -9.5 -7t-5.5 -11q0 -13 12 -13q9 19 3 31z" />
    <glyph glyph-name="D" unicode="D" horiz-adv-x="772" 
d="M540 758l4 7zM566 719l5 11zM733 539l-8 38zM516 766v2v-2zM657 599v3v-3zM472 744v2v-2zM685 263l9 33zM162 794l5 11zM755 424q-41 -46 -41 -82q0 -12 5 -23q-1 1 -10 24q-11 -15 -59 -90q-45 -69 -46 -69q-24 0 -48 14q-2 -9 -6 -43q-3 -21 -17 -36q-9 11 -27 35
q-13 -4 -18 -30q-5 -30 -11 -36q-9 -1 -22 13q-21 -22 -33 -22q-5 0 -15 2t-16 2q-16 0 -24 -21q-7 6 -47 14q-34 7 -43 7q-6 0 -8 -1.5t-6 -1.5q-2 -12 3.5 -31.5t7 -24.5t1.5 -7q0 -1 -1 -1q-2 0 -12.5 9t-13.5 10q-15 -9 -12 -26l-15 13q-12 1 -21 -22q-3 9 -5.5 26.5
t-4.5 26.5q-24 -13 -34 -13q-28 0 -37 22l-11 -14q-8 8 -18 -2q11 11 11 20q0 5 -9.5 17.5t-11.5 19.5q0 27 -5 80q8 10 31 12l4 18q-11 11 -22 11q-13 0 -17 -4q4 11 4 25q0 13 -4.5 35t-4.5 30q0 25 12 62q14 45 32 49q0 8 -17 5q0 25 -2.5 50.5t-2.5 35.5v41q20 0 31 19
q8 15 8 32q0 5 -13 26t-13 27t13 33q20 43 23 49q-8 -2 -26 -12.5t-23 -10.5q-16 0 -20 25q-3 18 -6 35q20 -1 26 4q-4 6 -39 29q0 9 11 21q0 -4 17 -22q23 7 39 66q15 -9 27 -9q5 0 43.5 11t44.5 11q14 0 27 -27q12 3 11 36q56 -35 76 -35q5 0 18.5 4t18.5 4q7 0 16 -10.5
t21 -10.5q33 0 37 -2q-2 -7 -2 -13q0 -15 40 -51q14 6 16 15.5t3 19.5q6 -4 12 -27q4 -17 22 -17q5 0 6 2t7 2q19 0 36 -34q20 -39 22 -40q4 0 13.5 4t13.5 4q0 -11 -8 -19q6 -8 21 -8q0 -16 22.5 -52.5t22.5 -38.5q0 -1 -11 -27t-11 -35q0 -38 23 -39q2 5 7 35
q11 -32 22 -89q14 -5 22 -14zM95 738l-16 12zM232 571v2v-2zM44 732l4 20zM204 512v2v-2zM202 464l4 12zM252 386l-5 24zM459 119l-6 21zM408 133v-20v20zM148 308l-27 11zM144 250l-12 29zM108 143v2v-2zM715 409v24q-13 15 -15 15q-1 0 -1 -43q2 0 8 2t8 2zM566 454
q-25 35 -29 60q-9 61 -33 135q-19 5 -44 45q-29 48 -44 59q-24 19 -79 39q-46 16 -58 16q-6 0 -22.5 -4.5t-21.5 -4.5q-10 0 -27 9q-17 -34 -23 -52q14 2 21 -8q3 -3 -10 -23q-5 8 -5 17l-19 -34q1 0 7 4t12 4t11.5 -6.5t7.5 -6.5q4 14 7 29q7 21 26 24q0 -14 5 -29
q17 -8 16 -12q-20 -8 -18 -16q19 -18 22 -61q0 1 0 -69q0 -7 -8.5 -21t-8.5 -15q21 2 21 -26q0 -16 -7 -29q-3 0 -10 2t-9 2q35 -76 35 -85q0 -5 -8 -15.5t-8 -14.5l-4 -66q-3 -39 -15 -53q14 -12 17.5 -45.5t10.5 -39.5q118 26 123 26q6 0 12 -2.5t10 -2.5q10 0 50 37
t47 51q3 -2 7.5 -4t6.5 -4q2 11 13 38q10 24 10 30q0 15 -17 22q24 14 24 33q0 8 -4.5 22.5t-4.5 20.5q0 15 15 24zM250 336q-10 10 -21 10q0 -7 -2.5 -21.5t-2.5 -19.5q0 -8 12 -19q6 27 14 50zM122 394q-11 0 -21 -8v-21q10 -9 17 -9zM219 276l-30 -14q4 -4 11 -7
q7 8 19 21zM241 201q-1 0 -11.5 2.5t-18.5 2.5l5 -23q9 1 25 18zM250 54q-15 42 -15 43q-2 -8 -2 -52q7 0 17 9z" />
    <glyph glyph-name="E" unicode="E" horiz-adv-x="702" 
d="M650 877l3 10zM628 476v3v-3zM575 468q0 -7 -2.5 -10.5t-2.5 -4.5l-22 4q-5 -11 -14 -31q-6 12 -16 34q11 2 36 17q0 5 -9 23q8 -3 19 -13.5t11 -18.5zM170 839v-19v19zM192 685v-27v27zM711 209l-6 -86q0 6 -3.5 20t-3.5 21q-3 1 -11 7q-16 -12 -16 -25q-12 0 -22 1.5
t-14 1.5q-5 0 -22 -11t-22 -11t-27 22q-12 -4 -16.5 -20.5t-8.5 -31.5h-25q1 11 -7 30q-1 -1 -15 -28q-10 -20 -24 -19q0 10 -5 30q-8 -5 -13 -17.5t-3 -21.5q-1 0 -8.5 2t-12.5 2q-30 0 -57 -37.5t-59 -37.5q-1 0 -52.5 13t-55.5 13q-6 0 -14 -6t-11 -7q-17 19 -47 27
q-8 -5 -18 -27q-18 19 -49 31l-15 6l12 24q19 -1 19 20q0 12 -23 38l-24 26q5 -2 14 -9q11 7 11 20q0 -1 -11 62t-11 72q0 6 12 22q15 21 19 28q-5 7 -18 18q19 13 19 32q0 6 -2.5 16.5t-2.5 14.5q0 13 22 18q0 5 -1 19t-2 21q0 -9 5 -13q11 5 11 24q0 10 -7 21
q-10 16 -11 18q0 2 20 22q-2 -2 -2 -15q0 -29 23 -31q12 18 12 47v16q-2 3 -3.5 5t-7.5 2q-7 0 -10.5 -1.5t-4.5 -1.5q2 7 22 38q19 28 19 45q0 8 -3 15q6 -5 21 -20q15 23 15 44q0 25 -8.5 55.5t-20.5 41.5q-1 0 -7.5 -4.5t-11.5 -4.5q-11 0 -36.5 28.5t-25.5 39.5
q0 7 17 19q-1 -16 13 -30q20 -4 24 26q9 -6 28 -6.5t27 -6.5q14 -10 21 -40q12 15 24 30.5t27 21.5v19q8 -18 16 -35q10 -22 16 -22q16 0 17 24q0 14 -1 28h21q-1 -22 9 -22q6 0 19 11t19 11t10 -4l4 -4l12 8q1 0 31 -30q8 2 20.5 15.5t19.5 19.5q0 -9 9 -18l13 13
q0 -11 17 -19q14 -7 26 -7q11 0 40 29q1 -4 2.5 -7.5t8.5 -3.5q5 0 24 8q7 -14 13 -26.5t26 -12.5q25 0 35 -7l-6 1.5t-13 1.5q-12 0 -20.5 -13.5t-8.5 -26.5q0 -5 1 -9q-9 15 -31 22q-8 -17 -8 -30q-5 2 -14 8.5t-13 8.5q-12 -12 -12 -17q-76 0 -122 2t-38 2q-50 0 -67 -57
q-9 -31 -11 -104q-1 -33 -19.5 -62t-36.5 -57q2 0 43 16q0 -7 6 -18.5t15 -11.5q12 0 36 26q0 -9 8 -18q8 4 26 22q33 -22 40 -22q4 0 17 14l27 -27q6 2 11 10t5 12q25 -9 25 -24q0 -4 -10.5 -27.5t-7.5 -39.5q-27 -9 -73 -19q-42 -8 -52 -8q-4 0 -12.5 4t-13.5 4t-11.5 -4
t-12.5 -4t-8 4t-7 4q-6 0 -8 -4t-8 -4q-5 0 -6 4t-7 4q-13 0 -24 -49.5t-11 -103.5q0 -46 9 -73q-18 -16 -18 -28q0 -22 35 -22q6 0 68 29q75 36 104 47q15 4 90 31q46 16 81 16q40 0 42 -9.5t24 -10.5q7 -1 17.5 -10.5t12.5 -15.5zM226 371v2v-2zM166 421v-16v16zM105 377
l-10 31zM404 38l3 10zM325 120h-18h18zM96 319l15 15zM342 74l-10 18zM138 258l6 14zM125 143v2v-2zM244 731q-1 13 -13 34t-23 21h-18q-4 -16 20 -30q31 -19 34 -25z" />
    <glyph glyph-name="F" unicode="F" horiz-adv-x="713" 
d="M507 812h23h-23zM663 484h-18q-16 0 -25 -10q1 3 22 35q15 0 21 -25zM240 832v2v-2zM254 645l4 26zM764 815q-38 1 -70 -5q1 -2 26 -13q17 -8 20 -22q-16 9 -35 20q-5 -20 -16 -57q-1 9 -11 26q-48 -48 -52 -48q-6 0 -9 4.5t-9 4.5q-5 0 -35 -9t-35 -9q-4 0 -60.5 6.5
t-62.5 6.5q-5 0 -17.5 -4.5t-17.5 -4.5t-11 7t-11 7q-10 0 -36 -18q-5 31 -19 31q-13 0 -19 -22q-5 9 -20 26q-15 -39 -38 -66q-6 -13 -6 -24q0 -24 19 -27q23 -3 29 -21q-2 -5 -9 -13l11 -11q5 2 15 8q-3 -11 -9 -25q-3 -3 -12 -27.5t-9 -28.5q0 -8 7 -15q1 0 8.5 6.5
t12.5 6.5q6 0 17 -9t16 -9q10 0 19 22q27 -17 45 -17q5 0 13 4.5t13 4.5q4 0 13.5 -5.5t21.5 -8.5q4 8 9.5 17.5t19.5 8.5q-5 -4 -5 -15q0 -9 14 -19q2 1 3.5 11.5t7.5 10.5q5 0 6 -2.5t7 -2.5q11 0 48 27q5 -2 15.5 -12.5t23.5 -12.5q10 -3 10 -21q0 -11 -4 -32.5t-4 -26.5
q-9 3 -29 30q-7 1 -19 -20q-14 -1 -43 -4q-14 -1 -22 -13q7 -7 6 -14q-2 -10 -4 -19q-3 11 2 27q-20 0 -30 -5l4 9t4 14q0 9 -8 14q-20 2 -44 -19.5t-48 -43.5q3 10 -3 21q-3 -4 -9 -22q-5 -13 -11 -13q-4 0 -22 9t-24 9q-16 0 -20 -26v-34q0 -51 21 -109q-7 17 -19 28
q-11 -5 -12 -22q0 2 -10 22q-11 -4 -19 -19q25 -38 41 -38q10 0 19 9v-66l27 4q9 -26 9 -41q0 -22 -17 -42l-11 9q-50 -35 -70 -35q-5 0 -12 4t-13 4q-14 0 -14 -13q-9 9 -16 9q-8 0 -21 -8t-16 -14q-14 8 -16 24q1 21 -2 57q-1 4 -4 13l-3 9l3 29q-2 -19 4 -27q20 12 20 25
q0 1 -8 14.5t-8 26.5t7 28q-11 9 -27 27q14 21 14 27q0 31 -8 70q-10 55 -28 55q-12 0 -20 -9q1 20 -4 26q-22 -14 -17 -22q4 3 4 7q0 5 -16 25t-21 37q9 3 18 5q15 5 15 17q0 4 -2 9q43 -1 83 30q-9 7 1 21q14 8 14 19q0 3 -5.5 20.5t-5.5 33.5l27 237q2 0 9.5 -2t12.5 -2
q11 0 23 35q1 0 4.5 -2t9.5 -2t22 7q20 8 27 10q6 -26 18 -61q19 1 19 16q0 9 -6 19q9 -18 23 -18q43 0 46 27q3 -23 23 -49q13 12 39 27q8 -3 11 -16q1 -6 26 -6q7 0 21 3q9 2 19 -1q-10 0 -18 -5q2 -2 11 -2q7 0 33 10.5t32 16.5q9 1 23 -13q10 9 15 -6q3 -3 24 -3
q5 0 25.5 3.5t31.5 3.5q-9 -2 -32 -9h118zM438 404q0 -15 -14 -21h-20q11 13 34 21zM196 371v2v-2zM61 403l9 31zM634 806q-1 -2 -4 0q-5 2 -11 2q-5 0 -10.5 -1t-9.5 -1h35zM595 814q-18 -1 -45 2q0 -7 -2 -25q-2 -14 0 -18q14 0 20 17l6 24h21zM263 360q-21 9 -34 22
q1 -2 9 -11.5t8 -16.5q0 -6 -1.5 -20t-1.5 -18q20 21 20 44zM211 283q0 17 -35 32q22 -21 22 -27q0 -24 -14 -36q3 -1 22 -1q0 7 2.5 17t2.5 15zM294 113q-6 0 -16 10q0 -1 -3.5 -9.5t-3.5 -15.5q0 -10 9 -19q0 9 14 34z" />
    <glyph glyph-name="G" unicode="G" horiz-adv-x="802" 
d="M540 736l22 26zM389 797v2v-2zM616 303v17v-17zM817 381q-14 -8 -39 -20q1 4 -8 21q-10 -6 -32 -20q8 -16 8 -28q-6 3 -13 3q-15 0 -27 -13.5t-12 -29.5q0 -13 17 -41l-6 -58l-6 34q-1 0 -3 2t-9 2q-8 0 -16 -6t-8 -14q0 -9 28 -54l-29 4q0 -4 -8 -11q9 -9 13 -9
q-26 -14 -26 -32v-8q1 -5 1 -8q0 -9 -7 -16q1 8 6 24q-2 2 -7.5 5.5t-7.5 5.5q-15 -9 -20.5 -23.5t-10.5 -27.5q-48 -23 -70 -37q-3 3 -5 9.5t-4 8.5q-13 -11 -29 -35q-6 0 -14 7q-12 9 -14 10q-15 -3 -21 -26q-50 9 -84 9q-5 0 -14 -4.5t-15 -4.5q-107 0 -196 108
q-82 100 -89 211l22 22q0 13 -17 9l-4 54q12 -6 21 3q-1 1 -11 15q-7 11 -7 17q0 1 35 32.5t35 64.5q0 7 -26 20q1 0 11.5 2.5t18.5 2.5q0 -11 11 -17q1 7 1 12q0 6 -3.5 13.5t-2.5 12.5v19q5 -6 14 -17q12 16 17 42q27 -31 33 -56q14 -1 14 10q0 5 -9 23.5t-9 24.5
q0 8 10.5 19.5t18.5 11.5q4 0 13 -9q7 6 7 20q0 28 -30 33v43q5 -2 15 -8q4 2 13.5 10.5t14.5 10.5q-9 -8 4 -17q5 6 5 24q0 44 -18 54q16 -9 35 1q-10 -28 -10 -42t8 -17q24 7 24 39q0 6 -7.5 29.5t-8.5 34.5q1 0 4 -21q2 -11 15 -18q21 9 21 30q0 8 -4 13q6 -8 11 -8t14 4
t16 4q-1 -16 8 -26h32q1 7 -2.5 18.5t-3.5 16.5q0 10 8 18q3 -2 14 -14.5t17 -12.5q-2 0 41 9q9 -21 1 -38q0 -3 11 -14q10 4 24 15q-10 21 -3 28q8 -2 40 -35q7 5 18 14q11 -10 11 -22q0 -22 -39 -43.5t-39 -51.5q0 -7 2 -15q-7 12 -7 40q-11 0 -23 4q0 -1 -3 -14
q-2 -9 1 -17q0 3 -3 16t-3 23q2 0 8.5 2.5t13.5 2.5q5 0 9 -4t8 -2q-18 28 -39 28q-6 0 -25.5 -26.5t-25.5 -26.5t-10.5 2.5t-5.5 2.5q-7 -55 -58 -136q-41 -58 -82 -117q12 -12 26 -12q-13 -38 -21 -38q-5 0 -10 2t-6 2q-2 0 -2 -4q0 -40 17 -92q-6 4 -10 4q-5 0 -17 -13
t-25 -20q15 0 44 -72q26 -64 26 -75q0 -7 -2.5 -11.5t-2.5 -5.5q-10 0 -20 30q-14 41 -25 57q-7 -6 -7 -13q0 -21 20 -39q-4 -20 11.5 -50t32.5 -30q5 0 13 9q11 -18 47 -34q33 -14 61 -14h39q68 0 115 56q43 51 43 113q0 14 -16 57q-17 47 -29 51q0 -18 6 -25l-16 -15
q-3 4 -34 10.5t-36 6.5q-11 0 -27 -8q0 9 -8 17q-11 -5 -58 -17l-5 32q-6 5 -53 0q12 10 13 33q2 0 9 -2t13 -2q2 0 20 22t39 22q5 0 6.5 -2t6.5 -2q4 0 16 6.5t17 6.5q6 0 9 -4.5t9 -4.5q17 0 14 30q10 -4 36 -30q5 5 10 19q3 7 17 7q5 0 15 -8q14 -12 23 -18q4 12 19 24
q5 -6 -3 -29q1 0 4 -2t10 -2q3 0 10 5.5t24 8.5q27 6 79 8q7 -19 38 -33q35 -15 42 -25zM184 674q0 -1 -9 -20q4 4 4 11q0 14 -16 45q2 1 4 1q17 0 17 -37zM88 596l4 8zM145 547v-21v21zM92 534v-21v21zM175 424v-21v21zM59 494v2v-2zM156 318v3v-3zM346 821v21q-4 5 -21 5
q2 -5 21 -26zM215 437q-10 10 -17 10q0 -20 5 -25q3 0 7 6.5t5 8.5zM114 367l-30 15v-30q3 -1 6 -1q11 0 24 16z" />
    <glyph glyph-name="H" unicode="H" horiz-adv-x="736" 
d="M706 838v-22v22zM658 788l-5 15zM706 742v-18v18zM561 786l-35 39zM608 714v2v-2zM571 746q-1 -5 -8 -20.5t-7 -22.5q-2 2 -5.5 10t-5.5 10q5 0 15 8.5t11 14.5zM549 640l-25 40zM670 437v2v-2zM558 451l8 9zM544 408l-5 9zM500 420l14 18zM632 253l-21 18zM496 372
l-13 18zM733 826q0 -12 -15.5 -80t-22.5 -82q-2 -2 -2 -7q0 -9 5 -35t6 -36q0 -5 -6.5 -24.5t-6.5 -29.5q0 -11 6 -19q-16 -85 -16 -119q0 -20 3 -33q-6 2 -12 2q-18 0 -18 -20q0 -9 7 -22q8 8 19 8q0 -2 2.5 -4.5t2.5 -8.5q0 -5 -11 -20.5t-11 -21.5q0 -35 8 -93
q9 -64 18 -63v-25q-2 -23 -15 -31q-17 4 -52 30q-13 -13 -25 -13q-15 0 -20 18q-2 -2 -11 -14q-6 -8 -13 -8q-19 0 -19 29q0 5 1 15v15q0 23 -8 33l-12 -9q0 12 8 20q-7 6 -16 6q-26 0 -26 -24q0 -9 4.5 -24l4.5 -15q0 4 -9 11.5t-15 9.5q13 38 13 45q0 12 -13 12q8 9 8 20
q0 8 -6 23.5t-6 23.5q0 7 4 16t4 13q0 5 -4 11q12 -1 22 9v16q-7 3 -30 3q-2 8 -4 17t-8 9q-8 0 -24 -8q0 6 4 10l-8 7q-2 0 -6 -5q-6 -9 -9 -13h-110q-17 0 -42.5 -8t-35.5 -18q23 -17 30 -29q10 -18 10 -59q0 -25 -2 -26q-8 -4 -20 -33q-2 -3 2 -7q2 2 9 6.5t9 6.5
q-2 -34 2 -46q-2 -2 -11 -4.5t-11 -4.5q-1 -5 7 -10l12 -7q10 -9 13 -48t16 -44q-7 -5 -19 -16q-7 5 -11 5q0 2 4.5 10t4.5 13l-15 3q-3 -9 -10 -26q-7 6 -22 22q-5 -5 -8.5 -17t-4.5 -14q-8 10 -15 18t-25 8q-9 0 -31 -22q-22 25 -22 48q-1 14 -25 23q-4 -9 -4 -13
q-30 12 -30 28q0 4 11 22t11 27q0 11 -13 16v20q4 0 12 5q0 -10 8 -18q6 7 6 14q0 36 -7 74q-10 53 -30 53q-6 0 -9.5 -1.5t-5.5 -1.5q8 24 6 60q0 -35 13 -39q8 3 24 20.5t18 24.5q-14 25 -33 25q-6 0 -14 -9q17 40 17 81q0 20 -5 36q10 13 23 10q0 2 17 37q-9 10 -21 14.5
t-19 12.5q35 67 35 86q0 5 -11 21.5t-11 22.5q0 5 13.5 21.5t13.5 22.5q0 13 -18 18q22 44 22 56q0 6 -5 15q-8 15 -12 24q34 -4 107 -21q7 3 24 3q-1 -14 8.5 -60t8.5 -50v-24q-11 0 -19 8q-11 -11 -11 -16q0 -4 14 -21t16 -24q-5 4 -14 4q-3 -3 -3 -9t17.5 -38.5
t17.5 -38.5q0 -4 -2.5 -17t-2.5 -20l-24 22q-17 -7 -28 -29v-20q3 0 11 -8q7 15 7 25q21 0 22 -1q-13 -26 -13 -35q0 -60 30 -60q6 0 34.5 7t33.5 7t11 -2.5t11 -2.5q9 0 46.5 11t41.5 11t11.5 -6.5t15.5 -6.5q14 0 18 22q2 15 4 31q3 -8 2 -37q2 -2 5.5 -3.5t5.5 -3.5
q17 6 28 28q-6 7 -9 21t-5 17q5 -9 5 -27q3 0 11 -9q8 13 8 31l23 -4q2 2 5.5 8t5.5 8q0 3 -11 15q-26 -13 -32 -13q-2 17 15 17q8 0 13 -4l11 10q-31 6 -31 46q11 4 37 27q36 32 42 37q-11 2 -35 8q9 38 35 115q-4 2 -15 1l-15 -2v33q5 8 21 20q12 10 12 18q0 5 -3 10
q28 3 32 27q15 -6 40 -17l13 13h24q2 -9 11 -35q7 -20 7 -30zM83 733l-5 13zM558 249l-4 9zM671 109v-18v18zM246 482l4 13zM567 143l-9 5zM61 645v-27v27zM267 369l-9 9zM513 83l-18 27zM514 64l13 4zM48 528l-5 25zM465 100v-17v17zM46 441v3v-3zM140 140l4 15zM51 268
q2 -10 0 -31q-4 -26 -4 -30q-12 11 -12 17q0 21 16 44zM676 550q-9 17 -9 33q-7 0 -17 -10q9 -17 26 -23zM588 401q0 10 -6 16q-19 -9 -19 -26q3 2 13 5t12 5zM667 209q0 12 -25 19q2 -7 4.5 -22t5.5 -22q15 16 15 25zM526 264v21q-2 0 -8 2t-8 2v-29q2 0 8 2t8 2zM232 298
q-20 -6 -39 -5q12 -12 29 -12q10 0 10 17zM176 221q-5 5 -12 14t-9 11l-6 -16q11 -11 27 -9zM127 80q-6 13 -16 27l-6 -18q10 -9 22 -9z" />
    <glyph glyph-name="I" unicode="I" horiz-adv-x="360" 
d="M224 884h-18h18zM171 723v-17v17zM241 583v-26v26zM81 670v2v-2zM127 605v-17v17zM329 624q0 -9 -7.5 -39.5t-7.5 -43.5q0 -8 2 -13q-13 -5 -35 -22q-2 -14 15 -14q6 0 23 8q-1 -25 1 -77q-14 -6 -22 -24q-5 -13 -11 -26q-7 22 -26 44q-15 -6 -15 -17q0 -5 7 -21.5
t7 -26.5q0 -9 -5 -16q24 -27 30 -36q20 -27 20 -50q1 13 -9 22q-35 -27 -33 -59q2 -1 22 -12q14 -7 14 -19q0 -9 -13 -17q-17 -11 -23 -21q-13 -20 -13 -58v-29q-17 8 -17 -2q0 -5 11 -24t11 -24q0 -9 -19 -38q-10 4 -27 15q-12 7 -18 7q-11 0 -17 -13q-3 3 -12.5 17
t-16.5 21q13 0 16 -3q12 2 12 6q1 20 7 43q-1 0 -7.5 2t-11.5 2q-9 -11 -9 -22q-17 30 -33 59q-31 63 -31 97v131q0 5 12 21.5t14 22.5q-9 5 -15 19q-8 21 -11 26q3 4 25 7q0 12 1.5 40t1.5 45q0 47 -12 87q0 1 -8 8t-8 12q0 6 13 28t13 27q0 20 -34 25q-8 38 -8 68
q0 15 2 32.5t2 22.5q0 22 -22 49q2 7 -2 23.5t-4 21.5q0 13 10 19q-1 -14 3 -44q3 -2 5 -2q8 0 19.5 17t22.5 34q13 -27 24 -27q5 0 24 7t24 7t11 -7t11 -7t10.5 4.5t11.5 4.5q17 0 29 -13q22 -27 24 -28q-3 -3 -7.5 -5.5t-6.5 -4.5q-1 -23 14 -23l30 2q-9 -5 -9 -18
q0 -18 -1 -22q-5 -11 -5 -20q0 -12 7.5 -27t7.5 -23q0 -10 -11 -16q-17 -8 -19 -11v-21q0 -1 1 -4t7 -3q9 0 30 17q0 -38 7 -57.5t7 -20.5zM311 218v-17v17zM112 327v2v-2zM225 96l-9 19zM273 -45l-14 17zM311 606v21l-22 13q4 -25 22 -34z" />
    <glyph glyph-name="J" unicode="J" horiz-adv-x="621" 
d="M360 675l22 44zM474 487l-5 26zM528 372v18v-18zM391 503l-13 5zM452 329l-5 31zM492 248v2v-2zM575 288q0 -9 -8 -34t-8 -39q0 -18 12 -29q-2 0 -10 1.5t-13 1.5q0 -1 -1.5 -5t-1.5 -11q0 -4 8.5 -14t12.5 -22q-8 -2 -17 -11.5t-9 -17.5q0 -5 13 -34.5t13 -33.5
q0 -6 -6.5 -13t-13.5 -14q0 13 -13 27h-20q-4 -6 5 -37q-3 0 -12.5 5t-15.5 5t-7.5 -6.5t-6.5 -6.5h-104q-14 0 -56 10q-52 12 -78 27q-2 1 -19 30q-14 25 -30 25q-5 0 -13.5 -4.5t-13.5 -4.5t-28 20t-29 20t-12.5 -2t-7.5 -2q-14 20 -14 49q-3 0 -11 8q-5 -9 -13 -27
q-12 7 -25 14.5t-13 14.5q0 6 12 37q16 39 19 48h19q2 0 40 -33q46 -40 79 -61q51 -33 85 -33q18 0 25 4q6 -10 21 -20t25 -10q32 0 32 37q0 14 -5 37l18 -4q7 13 7 22q0 13 -15 41t-15 67v49q9 5 36 -4q0 2 1.5 3.5t1.5 8.5l-17 47.5t-17 83.5q0 18 5 34l-6 -14q0 31 1 48
t1 31q0 -15 14 -44q28 21 28 57q0 22 -18 22q-13 0 -19 -17q-10 10 -20 36q3 0 11.5 -5t14.5 -5q30 0 30 61q0 47 -11 88q9 -3 17 -21l17 -34q6 -1 17 4.5t14 9.5q-4 23 -21 68l-31 -13v20l38 38q25 25 31 25q24 0 42 -9l18 18q19 -41 28 -112q-4 -184 0 -189
q-3 -4 -8 -23.5t-18 -29.5q35 -59 35 -140q0 -12 -9 -43t-9 -34q0 -16 11 -22.5t11 -14.5zM386 281l-18 48zM483 153l4 9zM402 134v2v-2zM147 130v2v-2zM55 200v2v-2zM496 682q-4 2 -16.5 10t-17.5 10q0 -29 1 -30q22 11 33 10zM516 603q-20 2 -49 16q-2 -8 10 -19.5
t24 -11.5q7 0 11.5 6.5t3.5 8.5zM522 478h-25q-5 -21 -18 -53q15 -1 27 21zM562 271q-11 10 -38 50q-3 -16 -10 -43q8 0 48 -7z" />
    <glyph glyph-name="K" unicode="K" horiz-adv-x="766" 
d="M733 966l-29 -17q0 1 -2 14t-2 21q9 -13 33 -18zM535 771v-12v12zM380 683v2v-2zM821 865q0 -4 -10 -15t-18 -16q-12 5 -17 5q-7 -18 -37 -75q0 9 12 21v16q-3 3 -11 3q-24 0 -31 -18q-5 -12 -9 -25q-36 -10 -49 -36q-5 -22 -11 -44q-9 7 -19 26q-37 -45 -117 -124
q-8 -7 -17 -34q-5 0 -23 9q-22 -24 -42 -31q-12 -5 -12 -10q0 -4 2 -16q-1 0 -7 4.5t-11 4.5q-5 -5 6 -16l-15 -15q-1 0 -10 4.5t-16 4.5q-12 -12 -12 -33q0 -14 21 -56q1 0 5.5 2.5t10.5 2.5q14 0 49.5 -61.5t35.5 -92.5q0 -7 -3 -11q-2 -11 6 -11q6 0 12 2t7 2
q4 -24 7 -47q9 -31 51 -60q-11 -10 -13 -30q23 -13 30 -22q2 -4 13 -4q-7 -10 -15 -21t-9 -23q3 0 33 10v-25q-10 -14 -22 -14q-37 0 -37 34q0 1 7 42q-4 1 -12 7q-7 -8 -28 -29q7 -9 18 -26q-5 -5 -45 -28q0 1 5 15q5 10 5 18q0 6 -9 31q-12 33 -16 45q-16 -12 -44 -43
q-1 4 12 36q-17 8 -43 34q-4 0 -18 -13q0 3 1.5 10.5t1.5 10.5q0 13 -13 15q13 16 13 23q0 6 -18 40q-28 51 -32 59q-8 -12 -7 -26q3 -26 3 -20q-10 11 -25 31q5 6 14 17q-4 2 -18 16q-10 10 -18 10q-4 0 -7 -2q2 11 -15 36q-14 19 -29 39q-17 -9 -17 -32q0 -10 3.5 -24.5
t3.5 -15.5v-33q-12 0 -20 8q-8 -7 -16 -22.5t-8 -23.5q0 -1 20 -42t20 -61q0 -13 -14 -74q-17 -4 -30 11q-8 12 -16 23q-18 -9 -26 -9q-13 0 -21 22q-9 27 -16 33q13 11 13 20t-28.5 21.5t-28.5 24.5q0 6 7 33t7 57q2 0 9 -2t9 -2q2 2 5.5 7.5t6.5 7.5q-12 7 -31 44
q0 11 6 11q3 0 6 -2h11q8 1 12 9q-7 16 -18 21q10 8 10 21q0 9 -5.5 28t-5.5 28q0 7 3 13q18 0 18 5l6 -36q6 -3 10 -3q8 0 8 28q0 10 -12 66q-5 -1 -12.5 3.5t-14.5 8.5q8 20 8 35q0 4 -1 10t-1 8q0 13 34 33q0 3 -5.5 11t-3.5 11q4 14 31 69q25 48 27 72q17 -7 33 4
q-8 -7 -13 -36q8 -4 40 -4v-72l-17 -17q8 -10 9 -32v-35q0 -12 4 -21q-1 -1 -9.5 -3.5t-8.5 -9.5q0 -10 16 -24q32 18 131 110q6 0 19 -9t19 -11q-9 -5 -10 -15v-23q4 0 12 -8q6 9 16 27.5t17 27.5l-11 11l-9 -9q2 7 13 19q17 19 20 23q0 4 -13 18q10 5 17.5 18.5t9.5 15.5
q25 16 49 32q34 24 40 50q6 -14 16 -14q8 0 15 18l8 22q7 -11 19 -31q15 0 27 28q17 40 23 47l20 -27q16 7 25 34t18 32q10 0 20 -10q-6 -23 -11 -33q-9 -20 -24 -34q0 -3 12 -15q6 -1 12.5 12.5t19.5 13.5q5 0 7.5 -2t7.5 -2q9 0 25 16l-14 30q0 12 13.5 27.5t30.5 17.5
q-5 -12 -22 -37q-2 -10 16 -10q9 0 14 4q0 -14 -21 -24q11 -11 23 -13q12 5 12 -11zM255 540v2v-2zM210 508l5 17zM131 575l-4 21zM105 557l-4 21zM239 358v2v-2zM75 512v2v-2zM461 113l9 14zM430 135l9 8zM167 355l13 25zM443 25l9 21zM408 26l-4 12zM197 203q-17 0 -17 15
v32q17 -3 17 -47zM51 204v2v-2zM35 161v-12v12zM610 744q0 17 -16 33v-61q16 15 16 28zM413 151q0 13 -16 29v-44zM92 221v20q-16 -1 -19 -19q0 -14 -1 -29q7 15 20 28z" />
    <glyph glyph-name="L" unicode="L" horiz-adv-x="601" 
d="M95 722v3v-3zM584 223l3 9zM623 232q0 -3 -5 -15t-4 -23q-3 0 -16 -2.5t-23 -2.5v-25q-50 -10 -72 -10q-5 0 -16 4t-17 4q-49 0 -95 -35q-9 22 -26 22q-19 0 -20 -25q-9 -3 -24 12l-17 -17l-3 6q-2 2 -8 2q-9 0 -36.5 -15t-31.5 -24q-16 17 -31 17q-7 0 -10.5 -4.5
t-6.5 -8.5q-7 1 -21 24t-38 25v-15q3 -4 16 -4q-16 -19 -38 -25q-3 30 -23 30q-6 0 -16 -5t-18 -7q2 7 15 20t19 24q-3 0 -11 8q-9 -9 -9 -13q1 7 -6 34q1 0 24 -12q11 0 11 15q0 8 -14 52t-21 55q3 -2 25 -35q7 3 19.5 28t12.5 32q0 12 -12 24q-3 0 -7 -5t-4 -8l-34 34
q6 -5 16 -8q14 -3 16 -4q17 24 8 65q9 -2 16 -2q26 0 32 43q-9 6 -30 -5v35q3 -5 10 -13q14 8 21 26h26q2 12 -11 23q-9 8 -16 8t-16 -9q-5 3 -13 19q-11 20 -15 24q16 -18 32 -25q3 2 3 13q0 5 -11 38t-11 39q0 30 22 34q-8 0 -13 -21q3 -4 25 -3q5 -10 -3 -36q2 -2 5 -3.5
t5 -3.5q16 23 16 62q0 28 -9 53q3 1 24 -6q12 13 12 25q0 8 -4 19q4 -2 18 -13q32 39 45 62q0 7 -8 -40q40 14 47 35q-1 -62 -8 -151q-6 -84 -6 -106q0 -23 3 -34v-89q0 -7 -13 -20.5t-22 -18.5q18 -14 18 -26q0 -14 -27 -66q7 -15 17 -12q-5 -30 -21 -63q11 -11 15 -11
q-8 0 110.5 20t208.5 20q49 0 78 -10zM232 438l4 14zM443 179l4 14zM224 328l3 10zM188 337l4 14zM56 496v-66v66zM110 358l-4 21zM43 413v-23v23zM188 210l4 27zM154 126l5 6zM557 198q0 8 -9 17h-20q0 -12 9 -22q2 0 10 2.5t10 2.5zM189 467q-10 20 -21 20v-35q8 6 21 15z
M145 287q-5 5 -17 15t-17 14q-1 -3 -1 -47q6 0 18 7q16 11 17 11z" />
    <glyph glyph-name="M" unicode="M" horiz-adv-x="1220" 
d="M1052 755v2v-2zM984 772v14v-14zM979 675l4 9zM1088 557l-5 22zM917 711v-18v18zM926 649l9 13zM1109 459v2v-2zM944 494l22 12zM882 579q0 -7 -9.5 -21.5t-9.5 -22.5q0 -11 12 -22q-4 4 -16 -8q-16 7 -16 29q0 20 39 45zM1124 262l4 14zM1012 235v2v-2zM517 685v-75v75z
M1030 104l-11 27zM755 358h-17h17zM527 556l8 14zM1194 48q0 -17 -11 -17q-3 7 -6 15.5t-19 10.5q-5 -9 -5 -13q-6 4 -22 13q-8 -17 -25 -29t-34 -23q4 7 13 28q-5 5 -22 4q22 2 22 18q0 34 -24 62q-21 25 -42 30q38 0 40 1q-1 6 1 38q3 23 -6 34q0 1 -11 4
q-10 -3 -19 -17.5t-9 -25.5q0 -3 1 -6q-16 38 -21 85q-5 41 -14 57q23 4 29 22q-13 2 -41 10q-1 8 7 17.5t8 17.5q0 -1 -30 57t-30 103q0 15 3 28q-17 11 -32 58q-14 42 -23 42q-10 0 -19 -9q0 10 -7 18q-12 -31 -12 -40q0 -12 22 -23q-8 -14 -31 -40q-13 -15 -17 -39
q9 -4 17 -4v-50q0 -10 -23 -54.5t-22 -53.5l27 18q1 -4 8 -22q6 -14 6 -19q0 -19 -39 -80q0 -12 21 -21q-3 -21 -15 -64q0 3 -9 22q-8 -4 -18 -16.5t-10 -16.5q0 2 7 -49q6 -47 4 -68q-8 29 -27 44l-19 -2q13 -5 13 -22q0 -6 -6 -20q-8 -19 -9 -21q-5 4 -25 12.5t-26 8.5
q-5 0 -8.5 -2t-8.5 -2q-10 0 -47 22l-24 -3q1 -6 13 -19.5t17 -21.5q2 0 6 3t7 3q11 0 37 -16l-12 10q-27 -16 -30 -31h-22q-8 0 -20.5 6.5t-15.5 11.5q-1 -4 -7 -13h-42q0 11 -9.5 24t-21.5 16v27q-1 14 -7 44q-1 6 -16.5 22.5t-19.5 25.5q-7 13 7 27q-3 3 -15 3
q0 17 -27.5 85.5t-27.5 109.5q0 23 7 43q-20 19 -30 60q-12 53 -17 63q-15 33 -54 43q-3 -5 -21 -40q-13 -26 -21 -26q-5 0 -12 4.5t-12 4.5q-20 0 -20 -31q0 -16 25 -49q9 4 8 20q-2 29 -2 23q10 10 16 10q27 -46 27 -55q0 -8 -21 -30l11 -12q4 1 12 11.5t9 22.5
q2 -9 2 -90q-12 1 -35 0q14 -57 14 -60q0 -54 -14 -107q-1 0 -9.5 1.5t-13.5 1.5q-18 0 -18 -17q1 13 -5 27q-2 -2 -2 -18q0 -27 20 -38.5t20 -24.5q0 -8 -5 -22l16 -16q9 2 29 26q-32 -92 -45 -92q-5 0 -8.5 2.5t-8.5 2.5q-15 0 -15 -9q-8 6 -32 44q-2 -2 -5 -3.5t-5 -4.5
q0 -1 2 -7t2 -11q0 -22 -30 -22q0 10 -16 26q-7 -10 -10 -11.5t-27 -5.5q1 9 13 32q-3 2 -11 2q-6 0 -16 -7q-15 -9 -16 -10q-5 39 4 118q7 0 15 -8q12 9 12 18q0 8 -14 14q6 8 11 42q4 26 19 30q-22 43 -22 76q0 16 2 18q5 10 42 45l-30 30v20q20 3 20 24q0 12 -6 28t-6 15
q0 23 22 57q19 30 38 59q-7 24 -7 52q0 58 28 86q16 -4 40 -30q15 9 15 22q0 5 -9.5 19.5t-20.5 21.5q10 8 24 25q0 -1 3 -21q2 -11 14 -19q16 8 29 35v-22q0 -17 15 -17q25 0 38 7q-4 9 -13 27q21 -17 50 -52l6 3t6 6t-5 7q8 0 23 -7q6 12 -1 26q4 -3 16.5 -9t16.5 -8
q1 0 -12 -25q-1 -4 2.5 -9.5t11.5 -5.5q13 0 24 12.5t12 27.5q13 -19 26 -37q17 -26 17 -40q0 -7 -25 -68q-1 17 7 33q-1 2 -19 11q-16 -24 -16 -37v-44l22 -6q17 -6 17 -20v-20l-24 12q-24 -6 -24 -32q0 -10 11 -20q8 4 26 30q19 -12 44 -42q-5 0 -18 1.5t-19 1.5
q-13 0 -13 -18q0 -11 10.5 -21t23.5 -10v-20q-20 -9 -30 -29q57 -43 57 -53q0 -11 -8 -28q-10 -21 -22 -26q10 -11 39 -21q-10 -12 -10 -46q-11 26 -18 26q-4 0 -16 -11q17 -36 38 -42h20q1 13 5 40q10 -9 10 -21q0 -6 -2.5 -17.5t-2.5 -17.5q0 -13 10 -23q11 4 20 21t6 27
q0 -71 -51 -117q6 -15 20 -15q12 0 18 11.5t13 24.5q0 -12 5 -36q1 0 5.5 -2t10.5 -2q25 0 29 79q5 95 16 113q1 24 13.5 52t12.5 34q0 8 -8 13q3 21 11 59q15 45 28 125q12 76 25 112q10 18 13 103q2 74 25 81q-11 9 -16 15q-8 10 -9 24v-8q2 -6 22 -12q9 8 9 27
q7 -10 15 -19q10 -12 16 -12q2 0 28 13v-29q-10 0 -34 -9q12 -20 54 -54q7 11 7 21q0 5 -1.5 13.5t-1.5 12.5q0 5 1 10q11 -21 32 -48q27 6 27 22q0 13 -12 34q8 -8 17 -8q4 0 12.5 1.5t17.5 1.5q-2 -4 -8 -13q21 -5 65 -84t44 -110v-19q-16 -5 -16 -17q0 -5 4 -15t4 -13
q0 -6 -22 -28q11 -7 39 -45q-12 0 -15 3q-11 -8 -11 -18q0 -5 12 -26t14 -29q-9 -2 -26 -8q13 -6 38 -11h20q5 4 5 13q0 -11 -1 -21q-1 -16 -9 -21q4 -4 15 -7t11 -8q0 -13 -11.5 -25.5t-23.5 -17.5q16 -18 32 -37q29 -34 29 -50q0 -5 -15 -22t-15 -22q0 -24 19 -24
q7 0 12.5 2t7.5 2q-4 -34 11 -80q15 -49 15 -47zM755 290v-10v10zM536 472v2v-2zM390 596l4 23zM562 383q-6 0 -16 8t-10 15q0 13 11 24q2 -6 7 -23.5t8 -23.5zM808 141h-21q-7 18 6 30q1 -1 15 -30zM571 333l3 18zM175 746v-22v22zM715 189v-45v45zM592 251q-25 24 -43 27
q20 11 30 11q0 -1 13 -38zM314 507v2v-2zM542 132v2v-2zM153 474v-14v14zM289 316l-5 31zM211 325v2v-2zM140 408v-62v62zM97 332l9 3zM264 153v18v-18zM132 138v3v-3zM342 726q-22 11 -30 11q0 -55 2 -61l6 30q6 22 22 20zM768 212q-9 9 -9 16q-8 0 -12 -21q2 0 10.5 2.5
t10.5 2.5zM289 620v52q-6 -9 -13 -18q-8 -13 -8 -19q0 -15 21 -15zM224 660l-6 21q-14 -15 -14 -29q7 -5 20 8zM214 343v28q-1 6 -6 9t-9 2q-5 -1 -4 -4q4 -21 19 -35zM214 220v69q-2 1 -9 -8t-7 -11q0 -27 16 -50zM215 63q0 9 -12 20q0 -3 -2 -15q-2 -10 0 -15q4 0 14 10z
M96 153q-6 -3 -16 -26t-10 -30t3.5 -12t3.5 -6q7 24 19 74z" />
    <glyph glyph-name="N" unicode="N" horiz-adv-x="843" 
d="M797 859l6 12zM821 807l-4 20zM782 705l4 8zM802 670v2v-2zM771 538v2v-2zM763 382l-21 11zM333 770l-12 31zM395 640l4 7zM420 582v2v-2zM667 247v-11v11zM825 620q-13 8 -37 26q-10 -2 -15 -15q6 -6 21 1q0 -5 2 -15l3 -15q-9 0 -17.5 -1.5t-8.5 -14.5q0 -5 8.5 -25
t8.5 -25t-7.5 -17.5t-5.5 -27.5q10 1 29 14q3 -6 3 -12q0 -23 -30 -23q-12 0 -17 4q-2 -7 -1 -21t6 -18q1 0 9.5 4t13.5 4q-3 -10 -22 -28q9 -13 18 -50q-17 -6 -25 -17q-1 -2 -39 -96q-24 -57 -24 -87v-25q3 0 11 -8q5 9 15 52q8 33 29 53q6 -6 6 -17q0 -20 -35 -92.5
t-35 -107.5q0 -14 4 -26q-13 1 -19 4q-11 4 -18 15q-24 -17 -39 -17q-36 0 -36 101q0 15 4 79q-3 0 -17 -13q-73 151 -237 395l-14 -13q3 16 -16 48q-24 -24 -30 -52q-11 -56 -12 -59q15 -3 33 -12q16 2 18 21l4 36q0 -1 3.5 -9.5t3.5 -14.5q0 -29 -21 -57q-28 -38 -32 -48
q13 -16 30 -12q-9 -23 -36 -73q-1 -1 -23 -28q-18 -21 -18 -33q2 -30 1 -88q0 -6 -8 -20t-8 -19q0 -8 14 -36.5t14 -42.5q0 -16 -15 -23q0 -8 17 -6v-21q-29 30 -29 54q0 12 8 18l-11 11q-13 -7 -33 -47.5t-30 -40.5q-5 0 -14.5 2.5t-16.5 2.5v19q-1 2 -3 4.5t-8 2.5
q-5 0 -14 -4q-7 -3 -12 0q-5 -11 -17 -31q2 10 11 30q14 27 16 33q-7 7 -11 7q-5 0 -17 -14t-18 -17q-6 6 -6 16q0 12 8.5 20t17.5 16l-4 26q2 5 -1 19q-4 19 -4 22q0 9 13.5 46t17.5 41q0 10 -6 10q9 60 18 119q16 82 58 111q-9 2 -25 8v20q13 -1 21 8q-9 17 -9 28
q0 17 6 39.5t6 30.5q0 7 -2 12q20 25 20 85v17q0 20 2 35q12 -2 21 8q0 3 -8.5 10.5t-17.5 8.5q0 7 -4.5 26t-4.5 24t4.5 10t4.5 9q6 1 24 -17q16 6 22 18q0 -2 -1.5 -6.5t-1.5 -11.5q0 -6 33 -61q14 17 4 52q1 -3 20 -37q14 -26 14 -44q0 -6 -1 -11l16 18q7 -15 15 -29.5
t33 -14.5q30 0 20 -1q13 1 11 14q0 -2 17 -34q-7 -17 -5 -24q13 -6 45 -22l12 -44q10 -30 31 -34q11 16 7 35q7 -10 7 -24q0 8 -6 -48q0 -3 3 -3q8 0 17 14l-2 -30q1 -19 16 -32q3 -1 22 9q0 -11 12 -136q7 21 35 70q2 -7 -1 -37q-1 -23 7 -37q-9 9 -18 9v-21q1 -15 1 -25
q5 -3 32 -12q10 12 10 19q0 4 -5 10t-6 9q11 7 35 23q0 10 -10 10q-3 7 -1 27q1 21 5 30q0 -9 9 -18q10 0 10 7q0 4 -9 18.5t-9 20.5q0 59 11 83.5t11 22.5v183q0 62 1 133v68q2 -3 13 -27q7 -14 25 -15q3 -19 6 -37q7 -28 29 -28q5 0 10 1q4 15 11 40q0 -15 16.5 -50.5
t15.5 -45.5q-8 -4 -8 -14q0 -7 12 -31q7 -1 21 13q3 -6 5.5 -21t4.5 -22q-5 2 -14 8q-1 -3 -1 -8q0 -12 10 -40q12 -31 14 -43zM600 274v3v-3zM228 631l5 25zM257 548l6 29zM588 230v-33v33zM184 583l5 7zM263 460l5 7zM613 101l-7 12zM206 424l22 25zM232 353v-20v20z
M272 236l4 7zM197 353v-77v77zM116 367v2v-2zM192 101l-8 7zM268 357q-15 10 -15 35v38q-16 -20 -6 -79q6 6 21 6zM211 173q-7 21 -11.5 52t-7.5 43l-16 -15q11 0 22 -6v-51q-14 -7 -29 -19q2 -22 18 -45q0 14 -2 19q-4 10 -5 17q4 0 8 -3t10 -3q11 0 13 11zM114 181
q-10 21 -10 25q-6 -10 -11 -25h21z" />
    <glyph glyph-name="O" unicode="O" horiz-adv-x="766" 
d="M583 742l-11 22zM402 883v-14v14zM364 834l-7 18zM737 474v-66v66zM294 839v2v-2zM650 332l4 7zM187 786v-10v10zM672 257l26 12zM705 212q-11 -6 -27 -23q0 11 9.5 24t8.5 29q0 4 9 -30zM733 339q-7 0 -20 -14q0 9 -13 22h-24q0 -1 -2 -6t-2 -13q3 -3 16 -3q2 -3 2 -6
q0 -9 -22 -23t-22 -26q0 -4 8.5 -21.5t8.5 -24.5q0 -6 -5.5 -15.5t-3.5 -36.5q-26 -3 -53 -25.5t-27 -45.5q0 -4 1 -8l-36 4q-4 -16 -15 -32q-17 -25 -39 -25q-4 0 -23 10t-33 12q-9 -17 -17 -33q-14 -20 -32 -20q-8 0 -48.5 9t-55.5 9l13 -26q-8 2 -28 13.5t-26 11.5t-7 -4
t-6 -4q-4 0 -12 4t-15 4q-11 0 -17 -13q-4 13 -20 18.5t-30 9.5q-7 21 -26 44q-22 25 -43 31q-9 17 -4 44q-2 6 -16 14.5t-15.5 14.5t-1.5 12q0 8 2.5 24.5t2.5 24.5q0 17 -9 25q15 2 24 -7q1 3 6 11l-26 39q0 25 8 25q28 6 28 33q0 10 -5 29t-5 24l3 46l11 7q-4 6 -3 30
q8 -20 26 -25q12 16 12 29q0 56 -18 75q10 6 32 6q4 12 4 13q0 9 -12 16q-7 -5 -21 -14q38 45 61 94q5 10 9 57t16 67q4 1 23 -9q10 3 13 20q31 10 31 37q4 -17 26 -39q6 10 16 28q8 2 32 17q21 12 27 12q5 0 25 -22t25.5 -22t18.5 -2t19 -2q5 0 14 8q1 -19 -3 -28
q3 -1 11 -7q8 9 8 19q0 8 -6 20q23 1 28 -22q6 -29 24 -39q3 13 11 40q12 -13 25 -13q11 0 15 4q12 -14 29 -38q-9 -8 -6 -15q13 -3 21 9l12 18q2 -15 19 -60q13 -32 10 -73q2 0 5 -2t9 -2q13 0 13 14q0 9 -8.5 27.5t-13.5 22.5q2 2 5.5 10t6.5 10q8 -22 23 -111
q12 -82 40 -133q-6 -6 -16.5 -32.5t-10.5 -35.5q0 -13 10.5 -31.5t7.5 -44.5q1 -1 1.5 -4t7.5 -3q11 0 11 6q0 -1 3 -9.5t3 -13.5zM51 553v-18v18zM386 25l5 7zM29 362v2v-2zM66 267l4 6zM244 51v2v-2zM68 195v3v-3zM57 89v-15v15zM663 615q0 6 -3 16t-3 14q-13 -25 -17 -60
q23 9 23 30zM680 519q0 26 -11 43q0 -4 -3 -12t-3 -14q0 -8 6.5 -13t10.5 -4zM584 361q-7 78 -35 153q-30 82 -70 116q8 9 21 7q0 4 -4.5 10t-7.5 5q-6 -3 -10 -3q-6 0 -12 5q-2 4 -5 7v17q12 10 31 9q-6 2 -29 2q-7 0 -75.5 22t-77.5 22q-64 0 -94 -69q-18 -39 -35 -147
q-17 -102 -36 -137q19 -27 19 -55q0 -13 -9 -51q20 -19 20 -55q0 -20 -8 -32q9 -32 95 -57q73 -20 124 -20q46 0 101 56q47 48 69 99q3 7 10 56q5 37 18 40z" />
    <glyph glyph-name="P" unicode="P" horiz-adv-x="807" 
d="M842 720l-18 31zM789 786l-23 4zM705 854v2v-2zM790 648l13 10zM745 702l-40 36zM590 850l-17 6zM807 597v-18v18zM547 795l-31 9zM690 625h-18h18zM512 808l-40 4zM843 637q0 -16 -21 -52q-22 -40 -40 -40q-6 0 -7 2t-7 2q-20 0 -18 -30q-2 0 -13 10q-8 7 -13 7
q-2 -47 -85 -83q-63 -27 -90 -27q-33 0 -50 9q-9 -22 -25 -22q-21 0 -38 31q-11 -5 -12 -27q-3 9 -21 10h-25q0 -3 2 8q1 7 -1 18q-12 -2 -17 -12q-6 -13 -8 -15q-19 13 -51 28q8 10 19 53q7 24 37 22q12 1 44 24v-36q4 -3 16 -3q99 0 131 10q50 15 63 38q6 0 8 -4.5t3 -4.5
q2 39 20.5 58.5t18.5 40.5t-51 90h-36q-5 15 -5 45q-2 0 -14.5 -7t-14.5 -7q-5 0 -48 13t-48 13q-6 0 -9 -2t-9 -2q1 0 -50 22q-3 0 -6.5 -4.5t-17.5 -4.5q-6 0 -23.5 2t-23.5 2q-64 0 -83 -29q-13 -20 -13 -80q0 -12 8.5 -24.5t8.5 -32.5q0 -43 -13 -114.5t-13 -92.5
q0 -10 4 -14q1 -1 14 -5q-18 -10 -18 -180v-159q0 -6 -5.5 -20t-6.5 -17q-11 0 -23.5 -14t-13.5 -29q-20 2 -33 -10q-6 15 -17 27q-21 -7 -44 -22q-13 8 -24 36q-9 22 -9 29q0 3 10 23q-2 -4 -2 -9q0 -10 34 -49q15 14 16 36t21 37l-7 20h-42q-5 -9 5 -26q-4 2 -17 24
q18 17 57 44q-6 10 -13 10q-5 0 -12 -1.5t-14 -1.5q11 21 29 34q0 -1 12 -13q2 2 7.5 5.5t8.5 5.5q-4 15 -23 21q-34 9 -35 9q20 15 20 29q0 -2 -11 47q9 2 31 13v17q-11 9 -25 13.5t-28 8.5q19 5 19 23q0 16 -10 29l5 33q4 0 55 -26q8 3 15 32q-23 0 -38 -5q-4 11 -8 23
q-6 19 -15 19q0 23 6 72q8 -18 26 -22q7 7 7 15q0 5 -11 20t-11 20q0 25 22 61q-5 12 -22 12q22 33 22 50q0 16 -21 23q-16 3 -32 7q27 24 27 54q0 19 -13 33q-1 4 5 10.5t14 6.5q6 0 13.5 -2.5t12.5 -2.5q-6 0 88 26.5t136 26.5q5 0 19.5 -4.5t20.5 -4.5q30 0 63 13
l192 -39q1 0 6 2t11 2q7 0 15 -10q4 -7 9 -14q-9 -1 -26 -5q10 -23 30 -28q33 -9 41 -13q0 -5 4 6q2 6 -6 12q16 -28 79 -89q45 -44 45 -87zM88 696q0 -7 -26 -19v20q13 14 21 14q0 -2 2.5 -5.5t2.5 -9.5zM197 543l4 10zM160 560v2v-2zM66 636l8 31zM73 610l-14 5zM47 483
l-14 22zM55 160v2v-2z" />
    <glyph glyph-name="Q" unicode="Q" horiz-adv-x="1070" 
d="M637 868q-10 -20 -22 -20v30q12 0 22 -10zM667 763l8 23zM773 643l5 3zM856 500l-10 23zM1118 50v3v-3zM293 676l-15 9zM1085 56q-7 -14 -21 -44t-21 -43q-3 3 -34 10q0 -24 -25 -29q-53 -11 -64 -16q-5 9 -15 9q-7 0 -14.5 -8t-9.5 -10l-18 5q-3 -4 -3 -17
q-77 10 -173 74l-162 110q-55 -79 -132 -79q-6 0 -11.5 3.5t-9.5 5.5q-3 -8 -23 -17.5t-31 -9.5q-9 0 -16.5 9t-14.5 18q-14 1 -20.5 -8.5t-4.5 -22.5q-3 12 -21.5 28t-31.5 16q-6 0 -13 -6t-10 -8q-4 5 -5 29q0 21 -12 28q-15 -12 -21 -39q-11 6 -38.5 49t-40.5 45
q-3 -1 -3 18q0 47 -24 85.5t-24 59.5q0 5 10.5 14.5t13.5 16.5q10 22 10 42q0 14 -7 37q-7 20 -4 31q21 92 48 150q13 26 45 79q46 74 52 84q3 -2 10 -4t9 -5q7 2 16.5 21t31.5 19q5 0 14 -9q9 -1 21 20q63 4 63 24q0 5 -4 12q4 0 15.5 -6t16.5 -6q8 8 16 25q5 10 16 10
q4 0 24 -15t26 -15t22.5 -2.5t21.5 -2.5q12 0 36 8q1 11 -10 15q7 -1 23 -12t21 -11q7 0 24 26q7 -1 29 -10q18 -7 24 -7t9.5 2t4.5 2q76 -58 108 -116t32 -131q0 -22 -3 -48q7 -3 27 -23q-22 -29 -22 -53q0 -15 13 -15q7 0 14.5 8.5t15.5 17.5q-17 -38 -45 -117
q-5 -21 -17 -41q-14 -28 -26 -23q-3 -35 -19 -63q-9 -16 -27 -34q-14 -14 -14 -18q0 -8 8 -25t14 -17q5 0 7 2.5t8 2.5q21 0 35.5 -35.5t27.5 -36.5q-8 -16 -1 -56q8 5 14 14q4 6 7 13l23 -23q15 6 21 22q3 -4 8 -22q4 -13 10 -13q9 0 17 18q35 -18 44 -18q6 0 53 33t53 33
q3 0 33 -14zM685 157l3 49zM47 562v-40v40zM21 386v-22v22zM43 193l-28 35zM777 696q-10 10 -10 15q-6 -11 -6 -35q2 3 8 10.5t8 9.5zM799 405q0 9 -12 21q0 1 -2 -10q-2 -10 0 -20q4 0 14 9zM698 394q-10 5 -25 14q5 -17 15 -43q0 1 5 11t5 18zM680 527v21q-35 9 -38 42
q-2 30 -3 59q-11 6 -48 36q-33 26 -38 26q-21 0 -69 -17.5t-56 -17.5q-5 0 -13 4.5t-13 4.5t-13.5 -9t-28.5 -9q-25 0 -43 5q-6 -24 -58 -46q-57 -23 -60 -27q-55 -79 -55 -157v-33q1 -24 1 -38q0 -108 23 -165q37 -92 137 -92q17 0 74 20.5t69 29.5q-7 27 -44 61
q-35 31 -35 38q0 16 13 20q-17 10 -35 27.5t-18 25.5q0 12 15 21q12 6 23 12q8 -9 15.5 -18t12.5 -8q2 23 3 47q2 21 12 23q27 -8 78 -32q27 -19 99 -82q9 16 27 44q8 0 17 -9l6 54q5 33 30 45q-11 4 -21 17q17 44 17 62q0 6 -7 13.5t-7 10.5q14 -1 31 -9zM70 288l-15 15
q-15 -16 -15 -26q0 -11 6 -18q5 5 14 16t10 13z" />
    <glyph glyph-name="R" unicode="R" horiz-adv-x="879" 
d="M693 693v-13v13zM869 497q-15 -7 -30 0q0 1 -2 9t-2 15q10 10 19 10q6 0 10 -2.5t5 -2.5v-29zM826 582q0 -6 -9 -16.5t-11 -44.5q6 -6 6 -21q0 -21 -13 -30q-4 10 -3 26q3 24 3 22q0 10 -15 18q-18 -9 -27 -38q-11 -38 -16 -45q-1 0 -8 4t-13 4q-10 0 -22 -21
q-8 -13 -15 -27q-3 11 -10 35q-6 -3 -15.5 -18t-17.5 -20q-15 -10 -56.5 -19t-58.5 -22q-3 4 -6 8.5t-10 4.5q-5 0 -33 -17.5t-32 -17.5q-6 0 -9.5 2.5t-7.5 2.5q-6 10 3 27q-24 8 -48 8v41q0 5 5 17t5 16q9 -9 19 -9q5 0 28.5 9t28.5 9q4 0 26 -22q6 4 19 21q10 14 16 14
l26 -13q8 11 18 39q4 -4 13 -4q6 0 18 17.5t17 17.5q6 0 8.5 -4t7.5 -2l-13 36q35 -1 39 12q2 12 -17 21q8 9 8 14q0 13 -10 28t-19 30q0 6 -16 55l-57 35q-47 30 -58 30q-5 0 -6.5 -4.5t-6.5 -4.5q-4 0 -13 9q-27 -31 -40 -31q-6 0 -22 15.5t-22 15.5t-17 -5q-15 -7 -19 -8
q0 1 1 5t0 6q-2 2 -6 2q-14 0 -36 -25q-15 -18 -30 -37q-9 6 -9 16q0 3 12 28.5t12 39.5q0 6 -2 11q10 11 20 11q6 0 10.5 -2.5t5.5 -2.5q10 9 8 30q2 0 6.5 2.5t10.5 2.5q8 0 38 -21q11 4 11 17q0 15 -16 15q2 7 18 3q14 2 21 13q16 -5 49 -22q13 10 18 22l6 -36
q14 -2 21 14.5t23 16.5q9 0 31 -10q-13 -8 -13 -17q0 -1 1 -4.5t7 -3.5t8 2.5t8 2.5q20 0 75 -46q41 -34 65 -60q9 9 9 18q5 -35 32 -40q15 -29 32 -82q-11 -1 -31 -13q8 -19 24 -19q7 0 16 10t12 12q-2 -8 3 -30q7 -25 7 -29zM883 97q-10 3 -48 -4q0 1 -2 9.5t-2 15.5
q24 -17 52 -21zM863 42v2v-2zM430 394l4 9zM821 27q-45 -27 -66 -27q-36 0 -212 133q-171 129 -174 146q5 7 24 -2q2 2 1 8q-2 10 -2 9q8 -9 23 -9q6 0 15.5 8t11.5 10q4 -26 19 -26q5 0 15.5 3.5t15.5 3.5q-6 -9 1 -18t18 -9q18 -1 51 -30q38 -33 50 -38q5 2 14 22
q-2 -53 26 -62q8 3 8 22q35 -26 40 -26q7 0 10.5 2t4.5 2q1 -7 -17 -24q10 -15 46.5 -15t50.5 -4q-13 -37 -1 -58q5 -3 12.5 1.5t11.5 4.5zM349 296v3v-3zM197 442l5 9zM267 355q-21 -65 -22 -74q-4 -37 -24 -127q1 7 -9 31q-10 -9 -10 -38q0 -23 -1 -20q2 -8 16 -8
q15 0 28 13q0 -14 2.5 -42t2.5 -41q-70 -40 -85 -40q4 0 -27 2q-22 1 -32 -2q5 18 30 42q-2 2 -5.5 3t-5.5 3q-15 -5 -35 -23t-16 -25q-11 14 -15 44q-2 22 -15 22q-6 0 -11 -1.5t-6 -1.5q13 12 13 25q0 14 -18 13v21q11 8 34 43t23 41q0 19 -6 44q-7 34 -20 41q5 8 13 43
q8 31 23 43q17 1 12 41q-3 3 -15 3q-18 1 -23 -17q0 -2 -3 11.5t-3 35.5l48 60q-3 6 -16 14q-6 6 -12.5 24t-6.5 26l10 15.5t8 40.5q14 0 18 4q1 10 -14 16q6 11 31 28q-5 7 -19 13t-20 11q12 41 16 100q28 -5 56 -11.5t61 -32.5q4 -8 2.5 -30.5t1.5 -32.5q13 -46 13 -73
q0 -14 -5.5 -35t-3.5 -41q1 -11 15.5 -39t14.5 -32q0 -5 -13.5 -22.5t-13.5 -23.5q0 -4 9 -16.5t9 -18.5q0 -5 -11 -21.5t-11 -22.5t7 -13q37 8 36 8zM228 311v-18v18zM20 424v2v-2zM109 223v-35v35zM140 127v-18v18zM79 122l-9 8zM75 90v2v-2zM610 809q0 27 -1 27
q-16 4 -16 -17q0 -10 17 -10zM777 674q-17 5 -29 20q-1 -5 -18 -57q18 18 47 37zM548 861v21q-3 0 -9.5 -6t-6.5 -10q5 -5 16 -5zM711 514q0 24 -6 35q-17 -17 -15 -35h21zM118 581v20q-8 -4 -18 -20.5t-9 -22.5q28 11 27 23zM110 477q-21 11 -24 4q3 -7 10 -16.5t7 -12.5z
M105 334q0 15 -11 26q-3 -12 -13 -22t-10 -17q10 2 21 7.5t13 5.5z" />
    <glyph glyph-name="S" unicode="S" horiz-adv-x="711" 
d="M685 810v2v-2zM711 789v-13v13zM560 832v2v-2zM715 176q-3 2 -15 22q-9 -11 -18 -42q-8 -26 -22 -33q0 10 -7 18q-12 -35 -66 -66q-44 -24 -89 -49q-9 9 -18 31q-16 -2 -27 -23q-18 -32 -20 -34q-4 2 -18 10t-20 8q-11 0 -29 -18q-6 15 -17 26q-4 -1 -28 -16
q-16 -10 -22 -10t-33.5 15.5t-32.5 15.5q-7 0 -13.5 -2t-8.5 -2q0 1 -2.5 7t-2.5 12q0 31 23 55q26 28 27 30q41 -12 93 -12q4 0 12.5 -1t15.5 -1q44 0 165 33q3 1 10 13.5t12 12.5q6 0 7 -2.5t5 -2.5q0 1 2 5t2 11q0 5 -19 48q-22 47 -36 59q-17 -24 -17 -44
q-12 27 -47.5 31t-42.5 23q-6 1 -20 -14q-59 35 -69 35q-15 0 -15 -13q2 15 -3 23q-10 13 -26 13q-3 0 -10 -1h-11q-10 0 -17 6q-2 1 -15 18q-8 11 -15 11q-4 0 -10.5 -2t-13.5 -2q-12 0 -38 41l-26 42q-11 -10 -11 -34q-44 -3 -44 40v9v8q0 34 -28 34q-17 0 -17 -4
q-7 23 -7 56q14 5 35 21q-8 19 -20 19q-3 0 -11 -7t-11 -19q1 8 -10 34q1 0 8.5 -1.5t12.5 -1.5q25 0 29 31q3 -17 26 -23q2 3 2 16q0 5 -8.5 20.5t-8.5 21.5q0 4 2.5 22.5t2.5 25.5q9 -5 21 -27q10 -2 33 -13q12 7 15 22q4 26 7 31q9 -9 19 -9q-1 -11 -1 -18q0 -9 7 -32
q8 -27 12 -64q22 3 44 55q-3 2 -13 -2q-13 -4 -17 -4l-13 55q16 14 16 20q0 2 -1.5 4l-1.5 2v19q7 -6 36 -22q7 8 6 22q-1 13 -3 26q11 6 40 -5q-9 -11 -22 -35q2 -3 13 -3q20 0 36.5 9.5t16.5 25.5q0 25 -18 28q-26 5 -26 6q22 6 28 8q17 7 22 20q7 -13 -2 -29
q11 -11 15 -11q12 0 31 30t45 36q9 -13 17 -26q14 -19 25 -23q5 15 3 39q10 9 17 9l4 -30q17 -2 26 12q12 19 19 22q-9 -8 -9 -18q0 -5 11 -16q27 18 46 18q42 0 56 -13q7 -7 14 -32.5t22 -41.5q-7 0 -30.5 1.5t-28.5 1.5q-17 0 -31 -13q-4 7 -13 18q-12 -14 -39 -35h-24
q0 36 5 39q4 -10 17 3v25q-14 7 -25 7q-36 0 -36 -32q0 -6 2 -24t1 -27q-10 0 -20 -9q-4 11 -17 26q-26 -12 -20 -30q-2 1 -12 9.5t-15 8.5q-3 -12 -10 -36q0 5 -9 18q-9 -6 -22 -26t-20 -26q-11 -8 -45 -28q-37 -21 -48 -23q-21 -29 -21 -64q0 -41 46 -77q35 -27 88 -47
q44 -16 54 -14q5 -5 10 -20q3 -9 13 -9q13 0 25 13q6 -9 18 -26l12 8q7 5 13 5t29 -10q28 -13 56 -18q2 -3 48 -41q35 -28 37 -46v-30q2 -15 15 -26q14 12 12 37q10 -27 33 -81zM144 642l-12 11zM42 678v3v-3zM90 609l20 17zM294 21l5 8zM181 39l-5 22zM206 530
q-10 35 -21 50v-28q-1 -17 21 -22zM95 452v46q0 -4 -6 -15.5t-6 -17.5t4 -8.5t8 -4.5z" />
    <glyph glyph-name="T" unicode="T" horiz-adv-x="734" 
d="M606 785l4 9zM380 613v2v-2zM351 617l9 5zM393 542v3v-3zM786 796q-45 -35 -118 -84q1 5 -7 21q-2 -3 -44.5 -16.5t-57.5 -13.5h-23q0 17 -9 17q-5 0 -30.5 -15.5t-31.5 -15.5q-4 0 -11 2q-4 2 -6.5 -1.5t-8.5 -11.5q8 -7 13 -7q1 -26 -1 -76q-1 -4 -8.5 -9.5t-7.5 -10.5
q0 -17 18 -47.5t20 -75.5q-10 18 -36 49q-11 -11 -11 -22q0 -4 16 -24q1 -4 -3 -14t-4 -15q0 -4 11 -23t11 -25q0 -8 -7 -42q-10 -47 -15 -78q12 -7 20 -28t5 -37q-6 6 -9 26q-2 15 -18 18q-11 -4 -11 -17q0 -28 63 -170q-2 12 -35 42l-20 -26q-13 -18 -9 -35q-29 22 -41 22
q-5 0 -13.5 -6.5t-12.5 -6.5q-16 0 -22 17q-11 27 -18 35q-20 -13 -16 -43q-19 11 -23 69q-4 49 -36 49q-6 0 -9.5 -2t-5.5 -2v120q0 5 8 14.5t10 11.5q-7 7 -11 7q-7 0 -12 -5q9 9 9 25q0 5 -8.5 32.5t-8.5 33.5q0 50 9 98.5t10 153.5q4 -4 20 -4q22 0 22 17q0 24 -68 31
q-5 0 -63.5 -8.5t-63.5 -8.5q-6 0 -30 18q-31 23 -38 27q13 17 36.5 36.5t31.5 19.5q5 0 5.5 -2.5t5.5 -2.5q4 0 33 13.5t35 13.5q13 0 35 -22q15 28 62 33q36 3 73 6q2 4 1 15q-2 18 -2 20q4 0 14 -8.5t15 -8.5t4 2t4 2q6 0 10 -8q6 -11 9 -14q3 0 30 27q8 -14 31 -40
q8 4 13 18q4 10 8 19q28 -24 31 -24q7 0 10 4q-5 -6 -5 -15q0 -6 3.5 -20.5t3.5 -21.5q0 -11 -5 -19l6 -7q11 12 16 41q5 33 14 47q0 -4 10 -4t19 23q5 17 10 33q9 2 28 -17q5 11 12 23.5t25 11.5q0 -2 2 -12t2 -15q5 -3 15 -1l15 2q7 -14 22 -40q8 0 17 9l10 -32
q7 -19 25 -29q5 1 5 19q0 11 -3 40t-3 39q12 -28 38 -84zM399 271l14 26zM228 100l9 31zM689 803h-26q13 -25 25 -30q1 1 1 30zM297 571v57q-16 -16 -16 -31q0 -10 16 -26z" />
    <glyph glyph-name="U" unicode="U" horiz-adv-x="837" 
d="M799 749q0 -6 -2.5 -8.5t-2.5 -6.5h-21q0 7 13 32q-37 51 -42 99q55 -87 55 -116zM605 883v-10v10zM815 681v-36v36zM724 623l7 49zM741 518v-9v9zM662 285l-30 29zM698 223l2 19zM193 702l2 14zM114 775v2v-2zM830 537q-7 0 -20.5 4t-19.5 4q-2 0 -27 -83
q-27 -90 -39 -112q9 -2 26 -13v-43q-10 32 -37 33l-12 7q-2 -8 6 -51q-25 -25 -50 -51q-33 -36 -49 -70q0 12 -9 36q-35 -8 -44 -43q-12 -44 -25 -54q-1 14 -11 53q-17 -8 -22 -39q-6 -35 -16 -45q-12 13 -24 13q-15 0 -20.5 -7.5t-10.5 -16.5q4 -4 9 -4q-8 2 -22 -26.5
t-40 -28.5q-10 0 -15 8q-8 17 -14 23q-8 -9 -30 -27q-15 6 -24 25l22 22q-11 10 -16 10q-25 0 -38 -39q-20 14 -51 23v22q-11 2 -29 1q-27 -2 -24 -2q-82 99 -77 138q1 8 -5.5 18.5t-12.5 12.5q-1 8 -6 35t-5 43q0 28 13 49q-21 22 -21 42q0 16 10.5 54t10.5 54q0 11 -3 19
q5 -2 26 7q-7 12 -22 41q1 0 8.5 -2t12.5 -2q40 0 50 121q2 76 5 151q6 -3 12 -7q9 -7 9 -18q0 -5 -2 -10q7 1 18 11.5t16 10.5q-1 0 35 -26t90 -32l-5 -27q-17 -5 -30.5 -42t-13.5 -75q0 -20 4 -35q-5 10 -40 31q-3 -2 -3 -11q0 -2 17 -25.5t17 -24.5v-40l-14 4
q-14 -12 -29 -64q-13 -45 -13 -59q0 -15 24 -22q14 12 14 36q1 -11 -5.5 -32t-6.5 -25q-14 1 -19 -10q-3 -7 -7 -15l4 -42q8 4 34 40q11 -11 11 -19q0 -2 -1 -4q-9 -8 -26 -24q-4 -7 -4 -12t4.5 -11.5t4.5 -8.5q0 2 -27 -77q-2 -11 16 -11q6 0 15 12.5t12 13.5l4 -35l31 22
q16 -31 21 -39q17 -23 38 -23q2 9 -2 23q-4 8 -7 17q16 0 30.5 -2t17.5 -2q20 0 40 16t24 17q33 10 50 40l26 58q21 34 62 52q-9 6 -26 20v21q15 3 44 20q-2 5 -11 19q-7 11 -7 18q0 33 16 81q-2 -16 4 -28q20 13 20 33q0 2 -7 80q-6 72 -4 113q0 5 -11 20.5t-12 19.5
q-22 53 -48 79q-19 19 -19 26v28q8 -3 24 -13q8 4 13 13q9 -21 36 -32q43 -18 47 -20q14 13 14 15q0 -13 21 -20q7 12 -1 35q11 -7 34 -42q-9 0 -17 -8q6 -8 24 -14q23 -8 28 -11v-55q-10 -7 -22 -24q40 -26 53 -26v-81q0 -5 -8.5 -22.5t-8.5 -23.5q0 -7 10 -17q3 4 36 32
q25 23 20 33q-1 -7 -7.5 -25.5t-6.5 -24.5t6 -11.5t12 -11.5zM74 722q-2 0 -8 -3t-8 -3q-4 15 -8 31q-6 21 -15 28q2 2 4 2q6 0 16 -22q12 -26 19 -33zM617 156v2v-2zM153 596l3 10zM112 707q0 -17 -7 -51q-8 -42 -10 -57q-5 10 -15 51q9 -3 17 17t15 40zM267 478l-6 14z
M30 697l3 28zM172 542v15v-15zM183 512v-17v17zM271 270l-21 18zM167 324l2 10zM277 217v3v-3zM389 51v2v-2zM724 752q0 20 -1 21q-19 -9 -24 -21h25zM662 760q0 8 -5 17q-15 -8 -15 -21q2 0 10 2t10 2zM640 250q-8 -5 -21 -14l6 -15q15 12 15 29zM184 440q-6 31 -6 43
q-1 -3 -8.5 -9.5t-7.5 -12.5q0 -13 22 -21z" />
    <glyph glyph-name="V" unicode="V" horiz-adv-x="847" 
d="M860 697l3 10zM727 621v3v-3zM745 562v-14v14zM715 546l-16 17zM683 468v2v-2zM650 449l-4 11zM214 861v-10v10zM664 409l-14 7zM635 424v2v-2zM648 384v2v-2zM609 386v-9v9zM615 310l36 28zM169 755v2v-2zM558 371q-11 -11 -12 -15v35q4 -8 12 -20zM908 843
q0 -60 -1 -61q-4 4 -12 4q-9 -20 -20.5 -33.5t-11.5 -15.5q0 -3 7 -9q-4 5 -12 14q-38 -14 -38 -21q0 -2 5 -6.5t4 -9.5v-64q-17 9 -26 9q-9 -45 -10 -103q-1 -51 -9 -76q-12 -2 -37 -17q13 -20 12 -45q-6 -1 -23 17q-2 -2 -5 -34q-2 -23 -24 -23q-3 0 -11 2q-6 2 -11 -1
q5 -8 35 -29q-7 -19 -23 -54q-31 -7 -31 -25q0 -9 6 -19q-2 0 -11 1.5t-16 1.5q-9 -32 -9 -75q4 0 17 13q-8 -28 -19 -43q-5 14 -7 19q-5 10 -14 16q-5 -7 -10 -37q-5 -22 -23 -28q2 5 8 14q-9 11 -26 11q-9 0 -11 -13.5t-4 -25.5q-5 12 -26 35q-23 -29 -36 -62
q-5 14 -18 27q-7 0 -7 -18q-7 5 -19 13q-7 -7 -7 -20q0 -17 14 -21q-14 -7 -52 -20q0 1 2 9.5t2 13.5q-2 3 -3.5 5t-7.5 2q-7 0 -10 -2t-5 -2q-6 17 -20 22q-2 -6 -4.5 -19.5t-4.5 -19.5q-34 50 -50 83q2 -3 7 -5t8 -4q1 1 3.5 8.5t7 12.5t4.5 14q0 10 -15 18
q-11 -11 -27 -31q-14 41 -36 121q0 10 -22 14l-216 545q11 0 15 -4l18 38q19 28 44 28q12 0 31 -31q15 8 15 17q0 7 -8 32q2 -4 23 -11q2 -6 13 -20l24 26v-56q-15 -4 -44 -21q0 -11 12 -24q18 16 49 40q1 -7 7 -17t9 -10q2 -27 -5 -80q5 -11 30 -22q21 -10 21 -29
q0 -5 -15 -34t-15 -34q0 -12 15 -20q18 18 49 53q2 -18 9 -48q-9 10 -25 5q1 -13 18 -26.5t17 -25.5q-13 -19 -44 -52l17 -16q-5 0 30 18q11 -19 -7 -33q1 -3 7 -11q9 3 42 36q-1 -1 -1 -19q0 -30 15.5 -75t14.5 -58v-33h-22q2 -7 15.5 -18t22.5 -13q17 9 31 66
q-1 -94 14 -137q12 -1 22 18q0 -1 -4 -6t-4 -11t2 -8t2 -6q2 0 4 -2t8 -2q-4 0 31.5 77t60.5 77q6 0 7 -2.5t5 -2.5q7 26 7 46q0 9 -1.5 20t-1.5 14q0 16 26 37q-7 9 -22 7v23q0 19 28 87q31 75 34 91l19 -4q7 7 7 13t-6 10q-10 9 -12 10q11 5 22 30t10 38q22 -13 30 -11
q3 2 5 2q4 0 -1 -11t-8 -15q-6 3 -10 3q-8 0 -8 -25q0 -17 -1 -17q3 -11 20 -18l10 33q7 25 23 35q-22 18 -22 44q0 7 12 19q-3 -19 9 -44q20 1 20 31q-1 45 0 47q14 18 37 54q-4 -9 -20 -38q-14 -24 -14 -30q0 -13 16 -28q6 9 24 33l-6.5 4t-6.5 11q0 14 23 22q8 5 8 17
q13 -9 42 -26q2 0 9.5 -5.5t11.5 -7.5q2 2 4.5 6.5t5.5 6.5zM224 668l-17 29zM223 624v-10v10zM602 189l-18 7zM351 379l-3 42zM509 165v2v-2zM166 487l-16 19zM376 268v-10v10zM415 187v2v-2zM451 154v-10v10zM342 101l-11 26zM371 15v3v-3zM702 609q-9 10 -21 10v-23
q0 -6 11 -16q10 10 10 29zM773 516q0 9 -7 15q-15 -15 -14 -24v-19q21 14 21 28zM716 506l-12 14t-12 7t-7 -4.5t-7 -4.5q-5 0 -6 4.5t-7 4.5q2 0 -9.5 -4t-22.5 -1q10 -21 19 -21q6 0 15.5 6.5t15.5 6.5t17.5 -4t15.5 -4zM592 286q0 6 -15 21q-23 -31 -23 -34q4 1 19 8
q12 5 19 5zM368 308q6 12 -6 34q2 -22 -10 -38q12 0 16 4zM426 216q0 8 -2.5 18t-2.5 12q-21 -11 -25 -30h30zM294 258q-2 0 -10.5 2.5t-10.5 2.5l4 -21q1 0 17 16z" />
    <glyph glyph-name="W" unicode="W" horiz-adv-x="860" 
d="M922 759l-4 21zM821 846l9 31zM904 736v-12v12zM856 741l5 8zM825 750l-17 35zM702 526v-35v35zM795 355l4 12zM520 599h-15h15zM456 657v-17v17zM446 613v2v-2zM310 619q3 -13 2 -37q-2 -38 -2 -37l-16 51q4 7 16 23zM896 827q-13 -6 -27 -13q1 -3 9 -19q5 -11 5 -18
q0 -22 -11 -54q-14 -42 -20 -85q-3 -2 -26.5 -6t-30.5 -15q16 -14 31 -59.5t26 -55.5q-23 -1 -37 3q-8 -19 -38 -70q-26 -43 -26 -49q0 -12 22 -67q-7 17 -32 24q-14 -14 -19 -64q-8 -79 -9 -81q0 19 -14 32.5t-32 15.5q0 -3 -8 -11l17 -17l-13 -13q8 -4 35 -22v-37
q-5 -1 -16 6q-16 10 -16 11q-2 -5 -5 -16t-5 -15q0 4 -9 13q-12 -3 -17 -21.5t-9 -35.5q0 14 -16 29t-23 15q-5 0 -27.5 -20t-27.5 -20q-23 0 -45 30q-28 37 -37 43q-10 59 -15 78q-6 24 -42 144q-14 -6 -41 -17q2 -10 31 -29q-14 -33 -54 -29q0 -1 -1.5 -4t-1.5 -9
q0 -14 15 -14q33 0 37 -1q-9 -10 -9 -21q0 -7 4 -12q-5 3 -24 21q-11 -3 -11 -45q1 -59 1 -60q-4 24 -4 66q-24 3 -32 -8q-4 -6 -4 -25q0 -15 9 -36l9 -21q0 -7 -2.5 -12.5t-2.5 -6.5q-6 -1 -23 17q-5 -23 -5.5 -61.5t-5.5 -58.5q-8 -33 -33 -65q-3 0 -15 3t-19 3l9 -18
q-6 0 -21 -9.5t-20 -17.5q-8 16 -22 13l-24 5l4 18q-4 4 -21 3q-32 31 -49 137q-14 80 -14 157q0 48 2 60q5 31 25 56q-16 8 -18 19q0 -2 0 15q0 26 9 39.5t9 12.5q0 -4 -15.5 76.5t-15.5 106.5q0 3 5 31t5 41q86 -52 125 -49q2 -11 3 -81q1 -42 15 -84q-13 0 -17 -4l4 -20
q13 -2 26 14q-3 -9 -21 -56q-13 -34 -13 -56q0 -10 6 -30t11 -27q-4 -6 -34 -30q-18 -15 -18 -34q0 -5 38 -76l-14 15q-3 -2 -4 -8t-3 -8l4 -25q2 -2 5 2t9 4q4 0 13 -5t14 -5q-2 28 9 69t25 66q-4 9 -26 31q4 0 15.5 3t17.5 3q21 0 21 36q0 19 -6 42q20 7 32 47
q-9 35 -6 64q-3 -11 5 -21t20 -10q10 0 19.5 8.5t8.5 23.5l-11 12q-2 -1 -16 -21q0 15 17 41q25 39 26 42q0 -5 9 -62q23 11 23 27q0 40 -18 55q-30 25 -46 61q8 -15 21 -15q3 0 39 12v15q-7 8 -8 8l-12 -9q-11 9 -11 24q0 -2 11 24l36 -27q0 -17 4 -52q20 18 20 22
q0 5 -11 30.5t-11 29.5v19q15 -7 34 -35q16 -26 18 -26q8 0 24 26q21 -22 64 -58q3 -26 -17 -115q1 -2 16 -14q10 -8 10 -13q0 -10 -14 -43q-19 -44 -25 -62q1 -3 4.5 -10.5t3.5 -12.5q0 -10 -13 -21q8 -7 14.5 -22.5t20.5 -20.5q-22 -31 -22 -43q0 -5 6.5 -12t9.5 -12
q-7 -34 -7 -44q0 -14 24 -46q108 163 135 376q3 20 37 49q-1 12 9 38q16 42 17 45q5 15 -6 33q18 24 25 65q2 14 6 76q9 2 15 2q22 0 30 -26q4 -17 9 -34q29 14 29 49q0 13 -5 24h26q0 -5 8 -15t10 -13zM562 267l4 8zM374 417l-23 17zM579 87l9 21zM334 337l4 8zM76 571v15
v-15zM191 393v2v-2zM210 376v-17v17zM160 343l-15 7zM140 310v-8v8zM244 195v3v-3zM127 179l5 8zM96 170v-21v21zM247 -92l-7 25zM140 16v-12v12zM413 570q-16 18 -25 54q0 -25 -6 -47q10 -10 31 -7zM508 259l-5 39q-6 -6 -11 -18.5t-4 -15.5q8 0 20 -5zM311 270v19
q-11 -5 -16 -20.5t-4 -22.5q7 5 14 11t6 13zM133 140q-6 4 -14 0q0 -2 3 -7.5t3 -7.5q0 2 5 7t3 8zM180 97q0 9 -16 26q4 -16 -5 -70q7 0 16 10q0 4 2.5 16.5t2.5 17.5zM250 24l-6 26q-9 -22 -31 -53q28 8 37 27z" />
    <glyph glyph-name="X" unicode="X" horiz-adv-x="652" 
d="M342 577l-19 2zM294 613v-30v30zM268 581l-26 6zM205 768q-11 0 -14 10l-2 12q-13 -22 -29 -22q-5 0 -25 11t-25 11q-13 0 -40 -10l155 -329q16 -7 17 -16q0 -16 -7 -27l-22 22q-9 -17 -2 -24q-18 -11 -30 -55q-10 -38 -31 -40l-5 -20q-21 -2 -21 -24v-6.5v-6.5
q0 -22 -25 -19q-6 -12 -16 -59q-8 -34 -19 -35q-15 3 -24 -18q11 10 26 6q-12 -19 -23.5 -38t-10.5 -34q2 1 11 8q6 5 12 5q8 0 15 -7q0 -19 3 -19q3 13 5 26q5 21 27 16l11 -33q8 12 44 45q26 24 26 40q0 7 -3 13q3 5 47 88q29 52 53 68q25 -24 29 -43q26 -3 51 -6
q29 -6 28 -22q-14 -28 -28 -34q-6 12 -4 22q-5 -4 -5 -7q0 -2 10 -22q14 -28 29 -68q-1 5 9 27q2 -2 51 -84q43 -70 63 -70q8 0 19.5 9t15.5 9q5 0 14 -9q10 23 42 37q24 9 47 17q-105 142 -209 310q3 -10 -12 -22q-13 15 -13 22q0 8 10 16q-14 5 -17 23q-5 24 -7 26
q-4 6 -22 21q-15 12 -15 17q0 10 22 57.5t30 51.5l88 150q0 2 9 14t9 14q11 22 27 61q-11 16 -7 24q19 -8 16 -16q10 17 -1 48q12 12 12 16q-8 -5 -31 -40t-29 -35q-7 0 -10 2t-4 2q5 25 13 40q-26 -18 -38 -20q-6 -14 -20 -37q-5 7 -14 18q-49 -50 -49 -97q0 -21 7 -30
q-35 -14 -44 -40q-16 -44 -23 -53q-15 2 -43 23t-37 40q-3 7 10 23q-2 8 -20.5 19t-20.5 35q2 -5 16 -14q-15 36 -32 36zM448 316v2v-2zM527 143l9 8zM338 302l4 12zM427 184l-5 22zM606 5l-13 7zM333 224l-8 17zM496 47v-8v8zM522 84q0 6 -6 11.5t-10 5.5q-9 -10 -9 -17h25
z" />
    <glyph glyph-name="Y" unicode="Y" horiz-adv-x="627" 
d="M582 670v2v-2zM250 552l3 14zM359 430v-14v14zM672 820q-61 -149 -111 -236q-11 3 -25 -11q9 -18 9 -26q0 -4 -46 -108q-49 -114 -62 -154l-17 18q-36 -81 -74 -213q-21 -75 -51 -85q-5 21 -8 26q-6 9 -19 9q-12 0 -27 -17q0 -1 4 -9.5t4 -13.5q-14 9 -35 30
q-10 10 -25 10q-6 0 -12.5 -10t-12.5 -19l-6 27q18 8 35 16q22 10 22 32q0 5 -8 16.5t-23 13.5q14 2 17 26q3 37 16 59q18 29 37 59q31 56 31 94q0 11 -36.5 23t-36.5 42q0 10 3 22q-47 61 -103 202q-75 189 -94 226l82 -18q56 -17 56 -52q0 -8 -3 -18q11 3 48 -54
q40 -61 40 -99q0 -11 -4 -19q8 -5 34 5q0 -1 -1.5 -7t-1.5 -12q0 -5 19.5 -42.5t19.5 -43.5q0 -5 -5 -9q-9 -7 -12 -11q16 -32 18 -50q1 0 15 -9q20 5 25 34q3 20 6 41q3 -15 7 -23q9 -16 24 -21q-1 0 15 16q-17 25 -36 43q9 14 26 26.5t27 27.5q0 9 -17 6q5 14 34 55
q22 30 19 58q5 0 13 -7q12 -9 14 -10q4 7 -5 34q26 7 26 27q0 7 -4 22t-4 21q0 18 25 22q-12 14 -8 28q8 4 31 22q17 13 32 13q6 0 42 -18q47 -23 57 -27zM166 83v-18v18z" />
    <glyph glyph-name="Z" unicode="Z" horiz-adv-x="775" 
d="M786 94q0 -5 -10 -32q-11 -30 -13 -42q-20 13 -28 28q-4 -4 -16 -4v-26q-11 13 -35 30q-15 -22 -38 -27q-16 -3 -16 -12q5 14 20 37q-2 2 -11 2q-6 0 -20 -12q-18 -14 -25 -18q1 6 -9 26q-15 -5 -20 -44q-14 23 -41 62q-5 0 -15 -7q-13 -9 -17 -11l-11 9q-16 -20 -50 -48
q2 8 -12 21q-18 -8 -26 -8q-6 0 -10.5 4t-6.5 4q-4 -3 -18 -26q-2 11 -13 31q-1 -1 -3 -7t-8 -6t-20 8.5t-20 8.5q-15 0 -15 -17q-10 26 -29 26q-5 0 -31.5 -17.5t-32.5 -17.5h-23q-2 5 -5 40q-3 21 -20 21q-6 0 -27 -17q0 4 -9 13q-3 0 -16 -13q-4 4 -24 14v25q9 -9 31 -22
q0 1 2 8t2 12q0 18 -17 23q-4 1 -25 1q-29 0 -38 -5q31 11 70 68q21 32 42 65q5 -3 14 -9q16 7 16 43h43q-6 -23 40 -35q0 1 2 8t2 12q-18 15 -31 21q17 43 40 71q-16 8 -13 28q8 8 19 -3q20 17 52 56q21 15 26 20q14 11 20 23q2 5 -3 15q-7 15 -8 19q-2 9 6 29.5t8 32.5
q3 -15 14 -46q16 7 25 39q13 48 18 58q17 34 54 48q1 -2 4.5 -8t6.5 -6q2 14 1 39q-2 32 -2 40q12 13 31 21v13q-10 11 -18 11q-14 0 -14 -13q-9 8 -17 8q-1 0 -31 -13q-34 -14 -73 -22q-8 21 -29 27q-3 -3 -10 -19q-6 -12 -12 -12t-8 4.5t-8 4.5t-19 -14q-9 8 -36 44
q-6 -1 -11.5 -22.5t-29.5 -21.5q-36 0 -64 46q-21 36 -42 71q15 8 44 15v-28q8 -7 10 -7q0 11 4 35q5 1 22 8q13 5 19 5q5 0 18 -13q12 10 17 22q3 -18 33 -18l209 18q6 0 15.5 -2t14.5 -2q6 0 31 6.5t31 6.5q5 0 17.5 -6.5t17.5 -6.5q51 0 80 8q4 -6 4 -14t-7 -27
q9 -8 24.5 -11.5t18.5 -4.5q0 -4 -3 -16t-3 -17q0 11 -14 29q-12 -5 -12 -21q0 -8 5 -28.5t4 -27.5q-2 -14 -28 -39q-29 -28 -37 -46q-3 0 -16 2t-23 2q-1 -10 8.5 -13.5t9.5 -12.5q0 -4 -19 -26t-18 -32q0 5 -9 14q-19 -38 -81 -133q-67 -105 -99 -162q-9 24 -25 27
q-9 -37 -71 -158q-9 9 -18 9q-11 -7 -11 -20q0 -6 2 -16t2 -14q56 -8 95 -8h210q5 0 27.5 -6.5t27.5 -6.5q64 0 167 17v-37zM320 469l23 30zM266 439v2v-2zM292 354l11 22zM216 338l-9 12zM480 9l-5 21zM188 308q-2 0 -8 -2t-8 -2q0 25 11 25q5 -5 5 -21zM531 799
q-13 18 -24 18q-10 0 -15 -6q9 -16 23 -16q5 0 16 4zM474 490q-5 6 -17 6q0 -3 2.5 -11t2.5 -11q12 12 12 16z" />
    <glyph glyph-name="asciicircum" unicode="^" 
 />
    <glyph glyph-name="a" unicode="a" horiz-adv-x="558" 
d="M211 656l3 10zM347 474l-3 27zM402 378v1v-1zM576 -26q0 -4 -7.5 -14t-8.5 -16q0 3 -2.5 12.5t-3.5 12.5t-8 3q-4 0 -15.5 -14t-15.5 -14q-6 0 -58 107q-57 117 -73 138q-9 1 -52 9.5t-44 8.5q-4 0 -10.5 -3.5t-10.5 -3.5t-6 5.5t-6 5.5q-25 0 -36 -46q-6 -25 -6 -49
q-12 21 -11 24l12 6q-17 36 -17 42q0 3 6.5 9.5t3.5 11.5q-15 -1 -25 -40q-6 -29 -6 -55q0 -4 8.5 -15t8.5 -15q0 -7 -18 -44q-17 -33 -19 -36q0 3 -4 8.5t-10 5.5q-4 0 -13.5 -7t-14.5 -7q-30 0 -43 -4q0 2 -7 15q-6 9 -6 15q0 7 9 11q-18 24 -18 29q0 8 8.5 20t14.5 12
q4 0 11 -7q8 5 8 16q0 4 -7 16.5t-7 16.5q0 12 13 43.5t22 35.5q-16 22 -16 28q0 7 6 14q-16 14 -21 25q13 11 26 23q26 24 23 34q1 0 6 -1.5t10 -1.5q6 0 16 9q4 25 -18 75q2 0 7.5 -1.5t7.5 -1.5q1 2 2 21q0 12 15 16q-14 16 -24 16q0 4 3 17.5t5 13.5q1 0 1.5 -3.5
t8.5 -3.5q32 15 32 21q0 3 -1 6q-7 2 -25 -9q8 37 8 60q3 -4 3.5 -12.5t4.5 -12.5q15 6 15 21q0 28 -4 61q-4 6 -12 4q-2 7 22.5 38t39.5 31q-2 0 59 -24q15 -23 15 -45q0 -10 -3 -22t-3 -15q0 -4 2 -7q28 -15 30.5 -70.5t24.5 -68.5q-2 -19 -2 -15q0 -16 10.5 -64.5
t16.5 -59.5q2 0 18 7v-19q0 -3 -17 -21l28 -15q20 -11 27 -25q10 -1 17 14q3 -9 21 -25q15 -14 11 -21q-2 2 -13 13.5t-15 11.5q-5 0 -9.5 -4.5t-7.5 -5.5q0 -6 15 -27q-8 -8 -14 -8q1 3 -7 17q-7 1 -7 -9q0 -11 10.5 -17t11.5 -11q0 -9 2 -27q9 -1 13 1.5t3 9.5
q-3 -27 41.5 -95t44.5 -89zM126 375l4 17zM137 199l3 18zM161 147l4 35zM112 119l4 10zM133 70l7 38zM193 20l4 14zM51 142v2v-2zM45 112l4 10zM32 28l-4 10zM368 422q-4 12 -10.5 28.5t-8.5 20.5q0 -1 -2.5 -5t-2.5 -9q0 -4 8.5 -17.5t15.5 -17.5zM259 510v24
q-21 -22 -25 -38q6 6 25 14zM200 483q-12 12 -17 12v-20q9 0 17 8zM337 274v44q0 2 -54 142q-15 -7 -19 -34q12 0 17 -6v-14q-11 -4 -28 -11q9 1 21 -10q-9 -3 -25 -18q15 -15 15 -17q-11 -10 -18 -10l11 -11q-15 -17 -15 -18q0 -23 27 -25q51 -5 68 -12zM214 394v16
q-4 4 -13 4q0 -9 -4 -20h17zM161 330q-20 -10 -20 -26q0 -5 4 -10t4 -6zM179 222q0 9 -17 9v-13zM115 180q0 19 -8 27q-1 -2 -5 -5.5t-4 -8.5q0 -13 17 -13z" />
    <glyph glyph-name="b" unicode="b" horiz-adv-x="523" 
d="M438 674l-24 14zM330 697h-14h14zM358 614l7 17zM409 566v1v-1zM312 670v-17v17zM270 694l4 7zM364 543v1v-1zM392 515v1v-1zM450 367v2v-2zM474 271q-9 0 -14 5l9 12q5 -5 5 -17zM358 322v-14v14zM372 291v-14v14zM123 526l-9 11zM495 594q-15 8 -41 28q-6 0 -11 -6
q7 -26 16 -43q8 10 17 10h16q-4 -10 -15 -13q-1 -4 0 -13t-1 -12q-3 3 -10 3l-9 -9q5 -3 17 -14q-23 -21 -67 -67q0 -6 11 -6q-10 -4 -29 -23q-1 0 -16 14q-6 0 -16 -11q-12 10 -21 14q-6 -5 -6 -14q0 -10 13 -21l25 6q-2 -4 -14 -22q-10 -14 -10 -19q0 -9 16 -25
q17 9 16 42h17q5 -27 14 -91q3 0 9 -7q11 8 9 45q12 6 32 -4q-14 -8 -17 -16q-1 -3 -1 -20q0 -3 7 -17t7 -18q0 -10 -14 -24q5 -3 24 -3v-15q0 1 -10 -14q-13 -17 -19 -37q-2 9 1.5 24t3.5 18q0 11 -16 11q-6 0 -23 -17q0 -7 18 -16q-16 -21 -18 -83q-5 0 -12 -7q0 3 2.5 14
t2.5 16q0 3 -8 12l-30 -40q-16 -24 -15 -51q-3 5 -12 17q-1 0 -9 -17q-2 0 -7.5 1.5t-6.5 1.5q-13 -19 -46 -35q-28 -13 -30 -21v22q-7 6 -11 6q-6 0 -23 -17q-5 9 -5 29q-3 2 -9 2q-4 0 -25 -10q-5 8 -17 24q-7 -7 -7 -17q-1 4 -29 31q-13 -5 -13 -19t-4 -19q-11 5 -11 13
q0 1 1 4v4q0 11 -21 17q-3 -7 -12 -17q-8 21 -8 33q0 4 7 19t7 20q0 26 -20 23v76q7 5 15.5 27t8.5 35q0 12 -6.5 36.5t-6.5 34.5q0 11 6 17q-6 6 -11 2q4 13 4 44q0 4 7 15t7 15q0 17 -16 17q-5 0 -8 -1t-4 -1q7 9 19 29q-10 55 -10 89q0 50 19 76q6 2 28 13q19 10 23 10
q7 0 17 -11q25 25 30 25q4 0 7 -3.5t7 -3.5t15.5 14t32.5 14q10 0 13.5 -13.5t14.5 -13.5q5 0 12 2q2 9 -2 12q-10 7 -12 10q6 1 17 -3t15 -4q8 0 13 9v-25q3 -2 9 -2q7 0 28 24q3 0 9 -7t11 -7q4 0 12.5 1t11.5 1q-3 -3 -14 -11q12 -7 33 -10q30 -18 59 -36q38 -24 52 -50z
M112 509v-11v11zM442 157v-10v10zM151 416l14 4zM137 393v-11v11zM111 357v1v-1zM381 65q-6 2 -15 11q14 0 14 1q-5 -5 1 -12zM130 305v-18v18zM81 336l3 11zM42 281l-4 10zM74 77v24v-24zM414 587q0 16 -4 24q-10 0 -9 -12v-15q2 0 6.5 1.5t6.5 1.5zM341 513v44
q0 7 -32.5 39.5t-41.5 32.5q-4 0 -7 -3.5t-7 -3.5q-16 0 -40 24q-21 -17 -22 -17q-6 0 -31 24q-23 -17 -29 -80q15 24 24 28q-1 -8 -6 -14t-5 -9t10 -25q12 -27 19 -87q1 -9 19 -44q-2 4 -2 7q0 20 44 18q17 20 48 42q8 -37 7 -57q16 13 16 24q0 5 -4.5 14.5t-4.5 16.5
q0 16 25 36q10 -10 20 -10zM148 479q-3 5 -9 13q-16 -14 -16 -25q0 -10 17 -21q-3 27 8 33zM351 230q0 4 -8 35q-11 38 -14 51q-11 -3 -23 1.5t-12 19.5q-27 -14 -25 -14q-6 0 -14.5 10t-14.5 18q3 -5 3 -9v-1q-1 -9 -21 -6q-2 66 -1 72q-15 -9 -15 -21q0 -4 2.5 -13
t2.5 -14q0 -6 -3 -11q-17 0 -24 -7q-10 10 -10 21q-7 -19 -25 -55q10 -2 27 -7v-13q-4 -3 -14 -3q14 -24 14 -71q0 -5 -5.5 -10.5t-5.5 -12.5q0 -6 5 -16q-1 -24 -1 -61q11 -4 13 -16q3 -20 5 -23h36q45 0 90 66q38 57 38 90zM87 380q0 13 -12 13l-4 -13h16zM155 235
q0 8 -10 18q2 -8 2 -14q0 -8 -6 -21t-6 -21q20 30 20 38zM87 253q-1 0 -1 49q-9 -18 -9 -35q0 -5 10 -14zM148 170l-13 13q0 -12 8 -28q0 11 5 15zM91 167q-4 5 -13 5q-2 -8 -8 -24h17z" />
    <glyph glyph-name="c" unicode="c" horiz-adv-x="704" 
d="M485 675l-10 13zM688 102l-6 5zM717 126q0 -20 -20 -46q-21 -29 -23 -45q-5 2 -11.5 11.5t-10.5 9.5q-7 0 -19.5 -10t-14.5 -21h-16l-7 7q-15 -18 -24 -18q-7 0 -14 7q-6 -5 -6 -21q-10 5 -29 18q-27 -18 -32 -18q-6 0 -42 9q-40 10 -46 16q-13 -10 -10 -25
q-22 38 -85 40q-2 2 -19 25q-11 16 -16 16q-4 0 -19 -5.5t-19 -5.5t-45 21.5t-48 21.5q3 16 -10 36q-11 17 -21 34q-15 0 -15 -14q0 -3 2 -15q1 -10 0 -15q-6 15 -23 45q-1 3 14 18q-9 6 -31 6q0 10 3 29.5t3 22.5q0 10 -15 29q1 19 -12 35q-1 4 -1 9q0 4 1.5 11t1.5 9
q0 7 -5 12q-22 -11 -22 -28q0 -3 1 -7q-3 13 5.5 29.5t8.5 22.5q0 4 -1 7q13 -3 17 15q6 27 21 41v17q-6 5 -10 5q-5 0 -9 -1t-5 -1l24 32q17 24 16 40q1 -12 2 -25q4 -19 25 -20q17 43 17 57q0 8 -2 17q-1 -9 9 -24t21 -15q10 0 20 22q8 18 8 24l-14 16q10 0 23 -13
q15 7 24 25l12 28q-1 -9 7 -39q15 2 12 28q22 -2 35 14q17 22 30 28q0 -4 7 -10q3 2 15.5 18.5t17.5 16.5q4 0 13.5 -5t12.5 -6q5 11 18 32q-1 -20 1 -25q1 0 2.5 -1.5t6.5 -1.5q8 0 14 14q14 -14 18 -14q2 0 23 16.5t34 22.5q5 -10 10 -36l14 15q5 -11 21 -11q7 0 10 4
q6 -6 6 -11t-18 -40q11 -5 24 1q-1 -4 -25 -28q-3 0 -9.5 5.5t-10.5 5.5t-8.5 -5.5t-9.5 -5.5q-4 0 -26 9t-26 9q-66 0 -158 -59q-104 -67 -93 -134q-3 3 -11 3q-12 0 -15 -16q-15 -89 -15 -124q0 -17 45 -79.5t62 -55.5q3 1 17 -10q16 -14 22 -16q47 -15 68 -47q7 -1 12 14
q126 -42 131 -42q3 0 12.5 7t12.5 6q7 -3 16 -3q31 0 63 24t32 52q0 9 -4 18q4 -5 12 -5t21 20q8 13 16 25q28 -39 28 -81zM151 356v-12v12zM325 59l2 9zM81 227l3 6zM42 256l-3 9zM123 132l3 6zM684 151q-4 -2 -8.5 -5.5t-4.5 -8.5q0 -10 10 -10q7 15 3 24z" />
    <glyph glyph-name="d" unicode="d" horiz-adv-x="634" 
d="M432 607l3 5zM453 575l4 9zM586 432l-6 30zM413 613v2v-2zM525 480v1v-1zM378 595v2v-2zM548 210l7 26zM130 635l3 9zM604 339q-33 -36 -33 -65q0 -10 4 -19q0 1 -8 19q-8 -11 -47 -71q-36 -55 -37 -55q-19 0 -38 10q-2 -7 -5 -34q-2 -17 -13 -29q-8 9 -22 28
q-11 -3 -14 -23q-5 -25 -9 -30q-7 0 -18 11q-17 -18 -27 -18q-3 0 -11.5 2t-12.5 2q-13 0 -19 -18q-6 5 -38 12q-28 6 -35 6q-4 0 -6 -1.5t-5 -1.5q-1 -9 3.5 -25t5.5 -19.5t1 -5.5q0 -1 -1 -1t-9.5 7t-10.5 8q-12 -7 -10 -21l-12 11q-10 0 -17 -18q-2 7 -4 21t-4 21
q-19 -10 -27 -10q-23 0 -29 18q-1 0 -10 -11q-6 6 -14 -2q9 9 9 16q0 4 -8 14t-9 15q0 22 -4 64q7 8 24 10l4 14q-9 9 -18 9q-10 0 -13 -3q3 9 3 20q0 10 -3.5 28t-3.5 24q0 20 9 49q11 36 26 40q0 6 -14 4q0 20 -2 40.5t-1 28.5v32q31 1 31 41q0 4 -10.5 21t-10.5 21
q0 -1 28 66q-6 -2 -20.5 -10t-18.5 -8q-12 0 -16 20q-2 14 -5 28q16 -1 21 3q-3 4 -31 23q0 7 9 17q0 -4 14 -18q18 6 30 53q13 -7 22 -7q5 0 35.5 9t34.5 9q12 0 22 -22q10 3 9 28q45 -27 61 -27q4 0 15 3.5t15 3.5q5 0 12.5 -9t16.5 -9q27 0 30 -1q-2 -6 -2 -11
q0 -11 33 -41q11 5 12.5 13t1.5 15q5 -3 10 -21q3 -14 17 -14q5 0 6 2t5 2q15 0 29 -28q16 -31 17 -32q3 0 11 3.5t11 3.5q0 -9 -7 -16q6 -6 17 -5q0 -14 18 -43t18 -31l-8.5 -21t-8.5 -28q0 -31 18 -32q2 4 6 29q9 -26 17 -71q11 -5 18 -12zM76 590l-13 10zM185 457v1v-1z
M35 586l4 16zM163 409v2v-2zM161 371l4 9zM202 309l-5 19zM367 95l-5 17zM326 107v-16v16zM118 246l-21 9zM115 200l-10 23zM86 114v2v-2zM572 327v20q-11 11 -12 11t-1 -34q2 0 6.5 1.5t6.5 1.5zM453 363q-21 28 -24 48q-7 49 -26 108q-15 4 -35 36q-23 38 -35 48
q-19 15 -63 30q-37 13 -47 13q-4 0 -17.5 -3.5t-17.5 -3.5q-8 0 -22 7q-13 -27 -18 -41q11 1 17 -6q2 -3 -8 -19q-4 6 -4 14l-16 -28q1 0 6 3.5t10 3.5t9.5 -5.5t5.5 -5.5q3 12 6 23q5 17 20 20q0 -11 5 -23q13 -7 12 -10q-16 -6 -14 -13q15 -14 17 -49q0 1 0 -55
q0 -6 -6.5 -17l-6.5 -11q17 1 17 -21q0 -14 -6 -23q-2 0 -7.5 1.5t-7.5 1.5q20 -44 28 -68q0 -4 -6.5 -12.5t-6.5 -11.5q-2 -27 -3 -53q-3 -31 -12 -43q11 -9 13.5 -35.5t8.5 -32.5q95 21 99 21t9 -1.5t8 -1.5q8 0 40 29.5t38 40.5q4 -2 11 -7q2 9 10.5 29.5t8.5 24.5
q0 12 -14 18q19 11 19 27q0 6 -3.5 17.5t-3.5 16.5q0 12 12 19zM200 269q-8 8 -17 8q0 -6 -2 -17.5t-2 -15.5q0 -6 9 -16q6 22 12 41zM98 316q-9 0 -17 -7v-17q8 -7 13 -7zM175 221l-24 -12q3 -3 9 -5q6 6 15 17zM193 161q-1 0 -9.5 1.5t-14.5 1.5l4 -18q7 1 20 15zM200 44
l-12 33q-1 -6 -1 -41q5 0 13 8z" />
    <glyph glyph-name="e" unicode="e" horiz-adv-x="578" 
d="M520 702l3 7zM503 381v2v-2zM460 374q0 -5 -2 -8t-2 -4l-18 4q-4 -9 -11 -25q-4 10 -12 27q8 2 28 14q0 3 -7 18q6 -2 15 -10.5t9 -15.5zM136 671v-15v15zM154 548v-22v22zM569 167l-5 -69q0 5 -2.5 16.5t-2.5 16.5q-3 1 -9 6q-13 -10 -13 -21q-10 0 -18 1.5t-11 1.5
q-4 0 -17.5 -8.5t-17.5 -8.5t-22 17q-9 -3 -13 -16t-7 -25h-20q1 8 -6 24q-1 -1 -12 -23q-8 -16 -18 -15q-1 8 -5 24q-17 -11 -12 -31q-1 0 -7 1.5t-10 1.5q-24 0 -46 -30t-47 -30q-85 21 -86 21q-5 0 -11.5 -5t-8.5 -5q-14 15 -38 21q-7 -4 -14 -21q-15 14 -40 24l-11 5
q4 8 9 19q15 -1 15 17q0 8 -19 30q-9 10 -19 20q4 -1 12 -7q9 6 9 16q-18 100 -18 107q0 5 9 18q13 17 16 23q-4 5 -14 14q14 11 14 25q0 5 -1.5 13.5t-1.5 11.5q0 11 17 14q0 5 -1 16t-1 16q0 -6 4 -10q8 4 8 19q0 8 -5 17q-8 13 -9 14q0 2 16 18q-2 -1 -2 -12
q0 -23 19 -25q9 15 9 38v13q-5 6 -8 6q-5 0 -8 -1.5t-4 -1.5q1 5 18 30q14 23 14 37q0 6 -2 11q5 -3 17 -16q12 19 12 36q0 56 -23 77q-1 0 -6 -3.5t-10 -3.5q-9 0 -29 22.5t-20 31.5q0 6 13 16q0 -13 11 -25q16 -2 19 21q8 -4 23 -4.5t21 -5.5q11 -8 17 -32
q10 12 19.5 24.5t21.5 17.5v15l12 -28q8 -18 14 -18q12 0 13 20v22h16q-1 -17 7 -17q5 0 15.5 8.5t14.5 8.5q6 0 9 -3.5l3 -3.5l9 7q1 0 25 -24q9 8 32 27q0 -7 7 -14l11 11q0 -9 12 -15t22 -6q9 0 32 23q6 -9 9 -9q4 0 20 7q4 -11 9 -21t23 -10t27 -6q-1 0 -5.5 1t-10.5 1
q-10 0 -16.5 -10.5t-6.5 -21.5q0 -4 1 -6q-8 11 -25 17q-7 -13 -7 -24q-3 1 -10.5 6.5t-10.5 6.5q-10 -9 -10 -13q-60 0 -97 1.5t-31 1.5q-39 0 -53 -46q-8 -24 -9 -82q-1 -27 -15.5 -50.5t-29.5 -45.5q2 0 35 13q0 -6 4 -14q5 -11 12 -11q10 0 29 21q0 -7 7 -14q6 4 20 18
q27 -17 32 -17q4 0 14 10l22 -21q12 4 12 17q21 -7 21 -19q0 -3 -8.5 -22t-6.5 -31q-66 -22 -100 -22q-4 0 -10.5 3.5t-10.5 3.5t-9.5 -3.5t-9.5 -3.5t-6 3.5t-6 3.5q-5 0 -6.5 -3.5t-6.5 -3.5q-4 0 -5 3.5t-5 3.5q-11 0 -19.5 -40t-8.5 -83q0 -37 7 -59q-14 -12 -14 -22
q0 -18 28 -18q4 0 54 24q60 28 83 38q12 3 72 24q37 13 65 13q32 0 33.5 -7.5t19 -9t24.5 -20.5zM181 297v2v-2zM133 337v-13v13zM84 302l-8 25zM323 31l3 7zM260 96h-14h14zM77 255l12 12zM273 59l-8 15zM110 206l5 12zM100 114v2v-2zM196 585q-1 10 -11 27t-19 17h-14
q-3 -13 16 -24q24 -16 28 -20z" />
    <glyph glyph-name="f" unicode="f" horiz-adv-x="571" 
d="M406 650h18h-18zM530 387h-14q-12 0 -20 -7q0 1 18 27q11 0 16 -20zM192 666v1v-1zM203 516l4 21zM611 652q-30 0 -56 -4q1 -1 21 -11q13 -6 16 -17q-13 7 -28 16q-4 -16 -13 -46q-1 8 -8 21q-39 -38 -42 -38q-5 0 -7.5 3.5t-6.5 3.5q-5 0 -28.5 -7t-28.5 -7q-3 0 -48 5
t-50 5q-4 0 -14 -3.5t-14 -3.5t-9 5.5t-9 5.5q-8 0 -29 -14q-3 24 -15 24q-10 0 -15 -17q-4 7 -16 21q-12 -32 -30 -54q-5 -10 -5 -18q0 -20 15 -22q19 -3 23 -17q-1 -4 -7 -10l9 -9q4 1 12 6q-2 -8 -7 -20q-2 -2 -9.5 -21.5t-7.5 -22.5q0 -7 6 -13q1 0 6.5 5.5t10.5 5.5
q4 0 13 -7t13 -7q8 0 15 17q21 -14 36 -14q4 0 10.5 3.5t10.5 3.5q3 0 10.5 -4t17.5 -6q3 6 7.5 13.5t15.5 6.5q-4 -3 -4 -11t11 -16q2 1 3 9t6 8q4 0 5 -1.5t5 -1.5q9 0 39 21q6 -8 31 -19q8 -3 8 -18q0 -8 -3.5 -25.5t-2.5 -21.5q-8 3 -23 25q-6 0 -16 -17q-11 -1 -34 -3
q-12 0 -18 -10q6 -6 5 -12q-2 -7 -3 -15q-2 9 2 22q-17 0 -24 -4l3 7t3 12q0 7 -7 11q-16 1 -35 -16t-38 -35q2 8 -3 17q-2 -3 -7 -18q-3 -10 -8 -10q-4 0 -18.5 7t-18.5 7q-16 0 -16 -47q0 -41 16 -88q-6 14 -15 23q-9 -5 -10 -18q1 1 -8 18q-8 -3 -15 -16q20 -30 34 -30
q7 0 14 7q0 -51 1 -53l21 4q7 -21 7 -33q0 -18 -13 -34l-9 7q-40 -28 -57 -28q-3 0 -8.5 3.5t-10.5 3.5q-12 0 -12 -10q-6 7 -12 7t-17 -6.5t-13 -11.5q-11 7 -13 19q1 17 -1 46q-3 8 -6 18l2 22q-1 -15 4 -21q15 9 15 20q0 1 -6 11.5t-6 21.5q0 10 5 23q-8 7 -21 21
q11 17 11 21q0 26 -6 57q-8 43 -22 43q-10 0 -17 -7q1 16 -3 21q-17 -11 -13 -17q3 2 3 5q0 4 -13 20t-17 30q7 2 16.5 5t9.5 12q0 4 -1 8q34 -1 66 23q-6 6 1 17q11 7 11 15q0 3 -4 17t-4 27l22 189q1 0 7 -1.5t10 -1.5q9 0 18 28q1 0 3.5 -1.5t7.5 -1.5t19.5 6t20.5 7
q4 -20 14 -49q15 1 15 14q0 7 -5 15q8 -15 19 -15q34 0 37 22q2 -18 18 -39q10 9 31 21q7 -2 9 -12q1 -6 21 -6q6 0 17 3q7 2 14 -1q-7 0 -14 -4q2 -1 9 -1q6 0 27 8t25 13q7 1 18 -11q8 8 13 -4q2 -3 19 -3q4 0 20.5 3t25.5 3q-8 -2 -27 -7h95zM351 323q0 -12 -12 -17h-16
q9 11 28 17zM156 297v2v-2zM49 322l7 25zM507 645q1 1 -12 1h-9q-4 -1 -6 -1h27zM476 651q-14 -1 -36 2q0 -41 -2 -34q12 0 16 13q3 9 5 19h17zM210 288q-16 7 -27 17q1 -1 7.5 -9t6.5 -13t-1.5 -16t-1.5 -14q16 16 16 35zM169 227q0 13 -28 25q17 -17 17 -22q0 -19 -10 -28
q2 -1 17 -1q0 5 2 13t2 13zM235 90q-5 0 -12 8q-6 -27 -6 -19q0 -9 7 -16q0 7 11 27z" />
    <glyph glyph-name="g" unicode="g" horiz-adv-x="662" 
d="M432 589l18 20zM311 638v1v-1zM493 242v14v-14zM653 305q-10 -7 -31 -17q1 4 -6 18q-8 -5 -26 -17q6 -12 6 -22q-4 2 -9 2q-12 0 -22 -10.5t-10 -23.5q0 -10 14 -33l-5 -46l-5 27q-1 0 -2.5 1.5t-6.5 1.5q-20 0 -20 -16q0 -7 23 -43l-23 3q0 -2 -7 -9q7 -6 11 -6
q-21 -12 -21 -26v-7v-6q0 -7 -5 -12q1 6 5 18q-2 2 -6.5 5t-6.5 4q-11 -7 -15.5 -18.5t-8.5 -21.5q-38 -19 -56 -30q-2 5 -7 14q-10 -8 -24 -28q-4 0 -12 6.5t-10 7.5q-12 -2 -16 -21q-41 7 -68 7q-4 0 -11.5 -3.5t-11.5 -3.5q-86 0 -157 86q-66 80 -71 169q0 1 17 18
q0 10 -13 7l-4 43q10 -5 17 2q0 2 -8 13q-6 8 -6 13q0 1 28 26t28 52q0 5 -21 16q1 0 9.5 2t14.5 2q0 -9 9 -14q2 11 -1 19.5t-3 11.5v15q4 -5 12 -14q9 13 13 34q22 -25 26 -45q12 -1 12 8q0 4 -7 19t-7 19q0 7 8 16t14 9q4 0 11 -7q5 5 5 16q0 23 -24 27v34q5 -2 12 -7
q4 2 11.5 8.5t10.5 8.5q-6 -7 4 -13q4 5 4 19q0 35 -14 43q12 -7 27 1q-7 -22 -7 -34q0 -11 6 -13q19 5 19 31q0 5 -6 23.5t-6 27.5l3 -16q2 -9 11 -16q17 8 17 25q0 6 -3 11q5 -7 9 -7t11.5 3t12.5 3q-1 -13 7 -21h25q1 6 -2 15t-3 14q0 7 7 14q2 -1 10.5 -11t14.5 -10
q-2 0 32 6q7 -17 1 -30q0 -2 9 -12q8 4 19 13q-8 17 -2 23q6 -2 32 -29q5 4 14 11q9 -8 9 -18q0 -17 -31 -34t-31 -42q0 -5 1 -11q-6 9 -6 32q-8 0 -18 3q0 -1 -2 -11q-2 -8 0 -14q0 3 -2 13t-2 18q1 0 6.5 2t10.5 2q4 0 7 -3t7 -2q-15 23 -32 23q-4 0 -20 -21t-20 -21
q-5 0 -8.5 2t-4.5 2q-5 -44 -46 -109l-66 -94q9 -9 21 -9q-10 -31 -17 -31q-3 0 -11 3q-3 2 -3 -3q0 -32 13 -74q-4 4 -8 4t-13 -9q-10 -12 -20 -17q12 -1 35 -58q21 -52 21 -60q0 -6 -2 -9.5t-2 -4.5q-8 0 -17 24q-11 33 -20 46q-5 -5 -5 -11q0 -17 16 -30q-3 -17 9.5 -41
t25.5 -24q4 0 11 7q9 -14 36.5 -26t49.5 -12h31q55 0 93 45q34 41 34 90q0 11 -13.5 47t-22.5 39q0 -14 4 -19l-12 -13q-3 4 -27.5 9t-28.5 5q-9 0 -22 -6q0 7 -7 14q-8 -5 -46 -14l-4 25q-5 4 -42 0q9 9 11 27q1 0 6.5 -1.5t10.5 -1.5q2 0 16 17.5t31 17.5q4 0 5 -2t6 -2
q3 0 12.5 5.5t13.5 5.5t7 -3.5t7 -3.5q14 0 11 24q9 -3 29 -24q4 4 8 15q2 6 13 6q5 0 13 -7q11 -10 18 -14q3 9 15 19q4 -5 -2 -23q1 0 3.5 -1.5t7.5 -1.5q-4 0 14.5 7.5t75.5 9.5q6 -15 32.5 -26.5t31.5 -19.5zM148 539l-8 -16q3 3 3 9q0 11 -13 36q2 1 4 1q14 0 14 -30z
M70 477l4 6zM116 438v-17v17zM74 427v-17v17zM140 339v-16v16zM48 395v2v-2zM125 255v1v-1zM277 657v16q-3 4 -17 4q2 -3 17 -20zM172 350q-8 8 -13 8q0 -17 4 -21q2 0 5 5.5t4 7.5zM91 294q-5 2 -24 11v-23q11 -4 24 12z" />
    <glyph glyph-name="h" unicode="h" horiz-adv-x="613" 
d="M565 671v-18v18zM526 630l-3 13zM565 593v-14v14zM449 629l-29 31zM487 571v2v-2zM457 597q-1 -4 -6.5 -16.5t-5.5 -18.5q-3 7 -9 17q4 -1 12 6t9 12zM439 512l-20 32zM536 350v1v-1zM446 361l7 7zM435 326l-4 8zM400 336l11 14zM506 203l-18 14zM397 298l-10 14z
M587 660q0 -9 -13 -63.5t-18 -65.5q-3 -4 1 -27q6 -28 6 -35q0 -4 -5 -19.5t-5 -24.5t4 -15q-13 -68 -13 -95q0 -16 3 -26q-5 2 -9 2q-15 0 -15 -17q0 -6 6 -18q7 7 15 7q0 -1 2 -3t2 -7q0 -4 -9 -16.5t-9 -16.5q0 -29 7 -75q7 -51 14 -51v-20q-1 -18 -11 -25q-15 4 -43 25
q-10 -11 -19 -11q-13 0 -17 14q-1 -1 -8 -11q-5 -6 -10 -6q-16 0 -16 23q0 4 1 12v12q0 19 -7 27l-9 -7q0 9 6 15q-5 6 -12 6q-21 0 -21 -20q0 -7 3.5 -19l3.5 -12q1 11 -19 16q10 31 10 36q0 10 -10 10q6 7 6 16q0 7 -4.5 19t-4.5 19q0 5 3 12.5t3 10.5q0 4 -3 9
q10 -1 17 7v12q-6 3 -24 3q-1 7 -3 14t-6 7q-6 0 -19 -6q0 5 3 8l-6 5q1 0 -13 -14h-88q-41 0 -62 -21q18 -14 24 -23q8 -15 8 -47q0 -20 -1 -21q-7 -3 -17 -27q-1 -2 2 -5q6 3 15 10q-3 -27 1 -37q-7 -2 -18 -7q0 -4 6 -7q9 -6 10 -6q7 -7 10 -38.5t13 -35.5q-6 -4 -16 -12
q-5 4 -8 4q0 1 3.5 7t3.5 10l-12 3q-2 -3 -4 -10t-4 -11l-18 18q-3 -9 -10 -25q-6 8 -12 14.5t-20 6.5q-7 0 -24 -17q-18 19 -19 37q0 12 -19 19q-4 -7 -4 -11q-23 10 -23 23q0 4 8.5 18t8.5 21q0 9 -10 13v16q3 0 9 4q0 -8 6 -14q6 5 6 11q0 29 -6 59q-8 42 -24 42
q-5 0 -8 -1t-4 -1q6 19 5 48q0 -28 10 -32q6 3 19 17t15 20q-12 20 -27 20q-4 0 -11 -7q13 31 13 65q0 15 -3 28q8 10 18 8q0 2 13 30q-7 7 -16 11t-15 10q28 54 28 69q0 4 -9 17.5t-9 17.5t10.5 17.5t10.5 17.5q0 11 -14 15q18 35 18 45q0 -3 -14 31q27 -4 86 -17q6 3 19 3
q-1 -12 6.5 -48.5t7.5 -40.5v-19q-9 0 -16 7q-8 -9 -8 -13q0 -3 11 -16.5t12 -19.5q-3 3 -10 3q-3 -2 -3 -7q0 -4 14 -30.5t14 -31.5q0 -3 -2 -13.5t-2 -15.5l-19 17q-14 -6 -23 -23v-16q3 0 9 -7q6 13 6 21q16 0 17 -1q-10 -21 -10 -28q0 -48 24 -48q5 0 27.5 5.5t27.5 5.5
q4 0 8.5 -2t8.5 -2q7 0 37 9t34 9q3 0 8.5 -5.5t12.5 -5.5q11 0 14 18q2 12 3 24q3 -6 2 -29q3 -1 9 -6q13 6 23 23q-5 5 -7.5 16.5t-4.5 13.5q4 -6 4 -22q3 0 9 -6q6 10 6 24l18 -3q2 2 5 6.5t5 6.5q0 2 -9 12q-21 -10 -26 -10q-1 13 12 13q7 0 10 -3l9 8q-25 5 -24 36
q21 18 63 52q-9 2 -28 6q7 30 28 92q1 -1 -24 -1v27q4 6 17 16q10 8 10 14q0 4 -3 9q22 2 25 21q13 -5 32 -13l11 10h19q2 -7 9 -29q6 -15 6 -24zM66 586l-4 11zM446 199l-3 8zM537 87v-14v14zM197 386l3 10zM453 115l-7 3zM49 516v-21v21zM213 295l-7 7zM410 67l-14 21z
M411 51l11 4zM38 423l-4 19zM372 80v-14v14zM37 353v2v-2zM112 112l4 12zM41 214q2 -8 -1 -24q-2 -21 -2 -25q-10 10 -10 14q0 17 13 35zM541 440q-8 14 -8 27q-5 0 -13 -8q7 -15 21 -19zM471 321q0 8 -5 13q-15 -8 -15 -21q2 2 10 4t10 4zM534 167q0 10 -21 15
q2 -5 4.5 -17t3.5 -17q13 12 13 19zM421 211v17q-2 0 -6.5 1.5t-6.5 1.5v-23q2 0 6.5 1.5t6.5 1.5zM185 239q-15 -6 -30 -5q9 -9 22 -9q8 0 8 14zM140 177q-6 8 -16 20l-4 -13q8 -9 20 -7zM102 64q-5 10 -13 22l-5 -15q8 -7 18 -7z" />
    <glyph glyph-name="i" unicode="i" horiz-adv-x="294" 
d="M179 708h-14h14zM137 579v-14v14zM193 466v-21v21zM65 536v1v-1zM102 484v-14v14zM263 499q0 -7 -6 -31.5t-6 -34.5q0 -6 2 -10q-10 -4 -28 -18q-2 -12 12 -12q5 0 18 7q-1 -20 1 -62q-11 -5 -16.5 -17t-9.5 -22q-6 17 -21 35q-12 -5 -12 -14q0 -4 5.5 -17.5t5.5 -20.5
t-4 -13q20 -22 24 -29q16 -21 16 -40q1 10 -7 18q-28 -22 -26 -47q1 -2 17 -10q11 -6 11 -15q0 -8 -10 -14q-14 -9 -19 -17q-10 -16 -10 -46v-23q-14 6 -14 -2q0 -4 9 -19t9 -20q0 -7 -16 -30l-21 12q-9 6 -14 6q-9 0 -14 -11q-2 3 -9.5 14t-13.5 17q10 0 13 -3q9 2 9 5
q1 16 6 35q-1 0 -6 1.5t-9 1.5q-7 -9 -7 -18q-14 24 -27 48q-25 50 -25 77v105q0 4 10 17t11 18q-7 4 -11 15q-7 17 -10 21q3 3 20 5q2 32 3 64q1 40 -10 74q0 1 -6.5 6.5t-6.5 9.5q0 5 10.5 22.5t10.5 21.5q0 17 -27 20q-6 31 -6 55q0 11 1.5 25t1.5 18q0 18 -18 40
q2 5 -1 18.5t-3 16.5q0 11 7 16q0 -11 3 -36q2 -1 4 -1q6 0 15.5 14t17.5 27q11 -21 19 -21q5 0 20 5t19 5t9 -5t9 -5t8.5 3.5t8.5 3.5q14 0 23 -11q18 -22 19 -23q-1 -1 -5 -3.5t-5 -3.5q-2 -19 10 -19l24 2q-7 -4 -7 -14q0 -15 -1 -18q-3 -9 -3 -16q0 -9 6 -21.5t6 -18.5
q0 -8 -9 -12q-13 -8 -16 -10v-16q1 -1 1.5 -3.5t5.5 -2.5q7 0 24 14q0 -30 5.5 -46t5.5 -17zM249 175v-14v14zM90 262v1v-1zM180 77l-8 15zM218 -36l-11 14zM249 485v16l-18 11q3 -20 18 -27z" />
    <glyph glyph-name="j" unicode="j" horiz-adv-x="508" 
d="M288 540l17 35zM379 389l-4 22zM422 298v14v-14zM313 402l-11 4zM361 263l-3 25zM394 198v2v-2zM460 230q0 -7 -6.5 -27t-6.5 -31q0 -14 10 -23q-2 0 -8 1.5t-10 1.5q0 -2 -1.5 -5t-1.5 -8q0 -3 6.5 -11.5t10.5 -17.5q-21 -6 -21 -24q0 -4 10.5 -27t10.5 -27
q0 -2 -16 -21q0 10 -11 21h-16q-3 -5 4 -30q-2 1 -9.5 5t-12.5 4t-6 -5.5t-5 -5.5h-84q-11 0 -44 8q-42 9 -62 21q-2 1 -16 25q-11 20 -24 20q-4 0 -10.5 -3.5t-10.5 -3.5t-22.5 15.5t-23.5 15.5t-10 -1.5t-6 -1.5q-11 16 -11 39q-3 0 -9 7q-4 -7 -11 -21q-9 5 -19.5 11
t-10.5 11t10 30q13 31 15 39h15q-2 0 62 -51t102 -51q14 0 20 3q4 -8 16 -16t20 -8q26 0 26 30q0 11 -4 29l14 -3q6 10 6 18q0 10 -12 32.5t-12 53.5v39q7 4 28 -3q0 1 1.5 2.5t1.5 6.5q0 1 -13.5 38.5t-13.5 66.5q0 15 3 27l-4 -10q0 24 1 39q1 12 1 24q-1 -12 11 -35
q22 16 22 45q0 18 -14 18q-10 0 -15 -14q-8 8 -16 29q2 0 9 -4t12 -4q23 0 23 48q0 38 -9 71q7 -3 14 -17q12 -24 14 -27q16 -2 24 11q-3 19 -16 55l-25 -11v17q5 4 31 30q19 20 24 20q19 0 33 -7l15 14q16 -33 23 -90l-3 -128q0 -20 3 -23q-3 -3 -7 -18.5t-14 -23.5
q28 -48 28 -113q0 -9 -7 -33.5t-7 -27.5q0 -12 8.5 -17.5t8.5 -12.5zM308 224l-14 39zM386 122l4 7zM321 107v2v-2zM118 104v1v-1zM44 160v2v-2zM397 546q-4 2 -14 8t-13 8v-24q18 8 27 8zM413 483q-16 1 -40 12q-1 -6 8.5 -15t18.5 -9q6 0 10 5t3 7zM418 382h-20
q-4 -16 -15 -42q12 -1 22 16q6 13 13 26zM450 217q-9 8 -30 39q-3 -12 -9 -34q7 0 39 -5z" />
    <glyph glyph-name="k" unicode="k" horiz-adv-x="667" 
d="M587 773l-24 -14q0 1 -1.5 11.5t-1.5 16.5q7 -10 27 -14zM428 617v-10v10zM304 546v2v-2zM657 692q0 -13 -23 -25q-9 4 -13 4q-6 -14 -29 -60q0 7 9 17v13q-2 2 -9 2q-20 0 -25 -14q-3 -10 -7 -20q-29 -8 -39 -29q-5 -18 -9 -35q-7 5 -15 21q-30 -37 -94 -100
q-7 -5 -14 -26q-4 -1 -18 6q-17 -19 -33 -25q-10 -3 -10 -8q0 -3 2 -12q-1 0 -6 3.5t-9 3.5q-4 -4 5 -13l-12 -12q-1 0 -8 3.5t-13 3.5q-9 -9 -9 -26q0 -11 16 -45q1 0 4.5 2t8.5 2q11 0 39.5 -49t28.5 -74q0 -6 -2 -9q-2 -8 5 -8q5 0 9.5 1.5t5.5 1.5q3 -19 5 -38
q8 -25 41 -48q-9 -8 -11 -24q19 -10 25 -18q2 -3 11 -3q-9 -10 -20 -35q2 0 26 8v-20q-8 -12 -17 -12q-30 0 -30 28q0 1 6 33q-2 2 -5 3.5l-5 2.5q-6 -6 -22 -23q5 -7 14 -21q-4 -4 -36 -22q8 30 8 26q0 5 -7 25q-10 26 -13 36q-12 -10 -35 -35q-1 4 9 29q-13 6 -34 28
q-3 0 -14 -11q0 1 2 11q1 8 0 11q-2 6 -10 7q11 13 11 18t-15 33q-23 40 -26 46q-6 -9 -5 -20q2 -21 2 -17q-8 9 -20 25q4 5 11 14q-3 2 -14 13q-8 8 -15 8q-3 0 -6 -1q2 8 -11 28q-12 16 -23 31q-14 -7 -14 -25q0 -8 2.5 -19.5t2.5 -12.5v-27q-9 0 -15 7q-20 -16 -20 -37
l16 -33t16 -50q0 -10 -11 -59q-13 -3 -24 9q-6 10 -13 19q-14 -7 -20 -7q-11 0 -17 17q-7 21 -13 27q10 8 10 15t-22.5 17.5t-22.5 19.5q0 5 5.5 26.5t5.5 45.5q1 0 7 -1.5t7 -1.5q3 4 10 12q-9 6 -25 35q0 9 5 9q3 0 5 -2q6 -1 18 7q-5 13 -14 18q8 6 8 17q0 6 -4.5 21.5
t-4.5 22.5q0 6 2 11q15 0 15 3l5 -28q4 -2 7 -2q7 0 7 22q0 8 -9 53q-2 -1 -22 9q6 16 6 28q0 3 -1 8v6q0 10 27 27q0 3 -4.5 9t-2.5 8q2 12 25 55q20 39 21 58q14 -5 27 3q-7 -5 -11 -28q6 -3 32 -3v-58l-14 -14q7 -8 7 -25v-28q1 -10 4 -17q-1 -1 -7.5 -3t-6.5 -8
q0 -8 12 -19q26 15 105 88q5 0 15 -7t15 -9q-7 -4 -7 -12v-18q2 0 9 -7q5 7 13 22t13 22l-9 9l-6 -7q8 10 26 34q0 3 -11 14q9 4 15 15t7 12q20 13 39 26q27 19 32 39q5 -10 13 -10q6 0 12 14q3 9 7 18q5 -9 15 -25q12 -1 21 22q14 32 18 38l17 -21q12 5 19.5 26.5
t14.5 25.5q8 0 16 -8q-5 -18 -9 -26q-7 -16 -19 -28q0 -2 10 -12q4 -1 9.5 10.5t15.5 11.5q5 0 6.5 -2t5.5 -2q7 0 20 13l-11 24q0 10 11 22t24 14q-4 -10 -17 -30q-2 -8 12 -8q8 0 11 4q0 -12 -16 -20q8 -8 18 -10q10 4 10 -9zM204 432v2v-2zM168 407l4 13zM105 460l-3 17z
M84 446l-3 17zM192 286v2v-2zM60 409v2v-2zM369 90l7 12zM344 108l7 6zM133 284l11 20zM355 20l7 17zM326 21l-3 10zM158 162q-14 0 -14 12v26q14 -3 14 -38zM40 163v2v-2zM28 129v-10v10zM488 595q0 14 -13 27v-49q13 12 13 22zM330 121q0 10 -13 23v-35zM73 177v16
q-12 -1 -14 -16l-2 -22q6 11 16 22z" />
    <glyph glyph-name="l" unicode="l" horiz-adv-x="506" 
d="M76 578v2v-2zM467 178l3 8zM499 185q0 -2 -4 -11.5t-4 -18.5q-2 0 -12.5 -1.5t-18.5 -1.5v-21q-40 -8 -58 -8q-3 0 -12.5 3.5t-13.5 3.5q-39 0 -76 -28q-7 17 -21 17q-15 0 -16 -20q-7 -2 -19 10l-14 -14l-2 5q-1 2 -7 2t-28 -12.5t-26 -19.5q-13 14 -25 14q-3 0 -13 -10
q-6 1 -17 19t-31 20v-12q3 -4 14 -4q-14 -15 -31 -19q-2 24 -18 24q-5 0 -13 -4t-15 -6q9 9 28 35q-3 0 -9 7q-7 -7 -7 -11q0 6 -5 27q1 0 19 -10q9 0 9 13q0 6 -11 41.5t-17 43.5q2 -1 19 -27q6 2 16 22t10 25q0 10 -9 20q-9 0 -9 -11l-27 28q9 -4 26 -10q13 19 6 52
q7 -2 13 -2q20 0 25 35q-7 4 -24 -4v27q2 -3 8 -10q11 6 17 21h21q1 10 -7.5 17.5t-14.5 7.5q-5 0 -12 -7q-7 11 -23 34q13 -14 26 -20q2 2 2 10q0 5 -9 31t-9 31q0 24 18 28q-7 0 -11 -17q3 -4 20 -3q5 -8 -2 -29q2 -1 8 -6q13 19 13 50q0 22 -7 42q2 2 19 -4q9 10 9 19
q0 7 -3 16q4 -2 15 -10q25 31 36 49q0 6 -6 -32q31 12 37 28q-1 -49 -6 -121q-5 -67 -5 -85t2 -27v-71q0 -5 -10 -16t-18 -15q14 -11 14 -21q0 -11 -21 -53q6 -11 14 -9q-4 -24 -17 -50q9 -9 12 -9q-7 0 88 15.5t167 15.5q39 0 63 -8zM186 351l3 11zM355 143l2 11zM179 263
l3 7zM151 270l3 11zM45 397v-53v53zM88 287l-3 16zM34 330v-18v18zM151 168l2 22zM123 101l4 5zM446 159q0 6 -8 13h-16q0 -10 8 -17q1 0 7.5 2t8.5 2zM151 374q-8 15 -17 15v-27q7 4 17 12zM116 230q-10 8 -27 23q-1 -3 -1 -38q-2 0 28 15z" />
    <glyph glyph-name="m" unicode="m" horiz-adv-x="981" 
d="M842 604v2v-2zM787 617v12v-12zM783 540l3 8zM871 446l-4 18zM734 569v-15v15zM741 519l7 11zM887 367v2v-2zM755 395l18 10zM705 464q0 -6 -7.5 -17.5t-7.5 -18.5q0 -9 10 -18q-3 4 -13 -6q-12 6 -12 23q0 16 30 37zM899 210l3 11zM810 188v2v-2zM414 548v-60v60z
M824 83l-9 22zM604 286h-14h14zM421 445l7 11zM956 39q0 -14 -10 -14q-2 6 -4.5 12.5t-14.5 8.5q-4 -8 -4 -11q-6 3 -18 11q-7 -14 -20.5 -23.5t-26.5 -18.5q3 5 10 22q-4 5 -18 4q18 2 18 14q0 27 -20 50q-16 20 -33 24q31 0 31 2.5t2 28.5q2 18 -5 27q0 1 -9 3
q-9 -2 -17 -17t-4 -22q-13 30 -17 68q-4 33 -12 46q19 3 24 17q-10 2 -33 8q-1 7 5.5 14t6.5 14l-24 46t-24 82q0 12 2 23q-13 9 -25 46q-11 33 -19 33q-7 0 -14 -6q0 8 -6 14q-10 -25 -10 -32q0 -10 18 -19q-7 -11 -25 -32q-10 -11 -14 -31q7 -3 14 -3v-40
q0 -8 -18.5 -43.5t-17.5 -42.5l21 14q1 -3 7 -18q5 -11 5 -15q0 -15 -32 -63q0 -10 18 -17q-3 -17 -13 -52q0 3 -7 18q-6 -3 -14 -13t-8 -14q0 2 5 -39q6 -37 4 -54q-7 23 -22 35l-15 -2q10 -4 10 -17q0 2 -12 -33q-4 4 -20 10.5t-21 6.5q-4 0 -6.5 -1.5t-7.5 -1.5
q-7 0 -37 17l-19 -3q8 -9 24 -32q1 0 4.5 2.5t6.5 2.5q8 0 29 -13l-10 8q-21 -13 -23 -24h-18q-19 0 -29 14q-1 -4 -6 -11h-34q1 9 -6.5 19.5t-17.5 12.5v22q-1 11 -5 35q-11 12 -30 38q-5 11 6 22q-2 3 -11 3q-1 13 -23 67.5t-22 87.5q0 19 6 35q-16 14 -29 74
q-12 48 -52 58q-3 -3 -17 -31q-10 -21 -17 -21q-4 0 -9.5 3.5t-9.5 3.5q-16 0 -16 -25q0 -12 20 -39q7 3 6 16q-1 23 -1 19q8 7 13 7q22 -36 22 -43t-18 -25l10 -9q3 1 9 9.5t8 17.5q1 -7 1 -72q-10 1 -28 0q11 -45 11 -48q0 -43 -11 -86q1 0 -11 2q-10 2 -15 0
q-7 -3 -7 -12q1 10 -4 21q-1 -2 -1 -14q0 -22 15.5 -31.5t15.5 -19.5q0 -7 -3 -18l13 -12q7 2 23 21q-27 -74 -36 -74q-5 0 -7.5 2t-6.5 2q-12 0 -12 -7q-7 4 -25 35l-9 -6q0 -1 1.5 -6t1.5 -9q0 -18 -24 -17q0 7 -12 20q-6 -8 -8.5 -9t-21.5 -4q1 7 10 25q-2 2 -9 2
q-4 0 -13 -5q-11 -8 -12 -9q-4 31 3 95q5 0 12 -7q10 8 10 14q0 7 -12 12q5 7 9 33q3 21 16 24q-18 35 -18 61q0 13 1 15q5 8 34 36l-24 24v16q17 2 17 19q0 10 -10 34q0 19 17 46q15 24 31 47q-6 19 -6 41q0 47 22 70q13 -4 33 -25q12 8 12 18q0 4 -8 15.5t-17 17.5
q8 6 19 19q1 0 3 -16q2 -9 12 -15q12 6 22 28v-18q0 -14 13 -14q19 0 30 6q-4 8 -10 22q16 -14 40 -42l4.5 2.5t4.5 4.5q0 3 -4 6q6 0 18 -6q5 10 0 21q10 -5 26 -14q1 0 -9 -20q-4 -11 10 -11q11 0 20 9.5t10 21.5q33 -50 33 -61q0 -6 -19 -55q-1 14 5 27q-1 1 -15 9
q-13 -20 -13 -30v-35q9 -2 18 -5q14 -5 14 -16v-16q-1 0 -20 10q-19 -5 -19 -26q0 -8 9 -16q7 3 21 25q15 -11 35 -34q-4 0 -14.5 1t-15.5 1q-10 0 -10 -14q0 -9 8.5 -17t19.5 -8v-16q-17 -7 -25 -24q46 -34 46 -42q0 -9 -7 -22q-8 -17 -18 -21q9 -9 32 -16q-8 -11 -8 -38
q-9 21 -15 21q-3 0 -12 -9q13 -29 30 -33h16q1 11 4 32q8 -7 8 -17q0 -5 -2 -14t-2 -14q0 -11 8 -19q9 4 16 17.5t5 21.5q0 -57 -41 -93q5 -12 16 -12q10 0 15 9t10 19q0 -9 4 -29q1 0 4.5 -1.5t8.5 -1.5q20 0 23 63q4 76 13 91q1 19 11 41.5t10 26.5q0 7 -7 11q2 17 9 47
q12 36 22 100q10 61 20 90q9 14 11 82q2 59 20 65q-9 7 -13 12q-7 8 -7 19v-6q2 -5 18 -9q6 6 6 21q6 -8 12 -15q8 -10 14 -10q1 0 22 10v-23q-9 0 -28 -7q10 -16 44 -43q6 11 4 24q-2 15 0 21q9 -17 25 -38q22 5 22 17q0 11 -10 28q6 -6 14 -6q4 0 10.5 1t13.5 1
q-1 -4 -7 -11q17 -3 52.5 -66.5t35.5 -87.5v-16q-13 -4 -13 -13q0 -4 3 -12t3 -11q0 -5 -17 -22q8 -6 31 -37q-10 0 -12 3q-9 -7 -9 -14q0 -5 9 -20q10 -18 12 -25q-7 -1 -21 -6q11 -4 30 -9h17q4 4 4 11q-1 -9 -1 -17q-1 -13 -8 -17q3 -3 12 -5.5t9 -6.5q0 -24 -28 -34
q13 -15 26 -29q23 -28 23 -41q0 -4 -12 -17.5t-12 -17.5q0 -19 16 -19q5 0 9.5 1.5t5.5 1.5q-3 -27 9.5 -65t12.5 -36zM604 232v-8v8zM429 378v1v-1zM312 477l3 18zM449 306q-4 1 -12 7t-8 12q0 10 9 19q4 -13 11 -38zM646 113h-16q-6 15 4 24q1 -1 12 -24zM456 266l4 15z
M140 597v-18v18zM572 151v-36v36zM473 201q-19 19 -34 22q16 9 24 9q0 -1 10 -31zM251 406v1v-1zM434 105v2v-2zM122 379v-11v11zM231 252l-4 25zM169 260v2v-2zM112 326v-49v49zM77 265l7 3zM211 122v15v-15zM105 111v1v-1zM274 581q-18 9 -24 9q0 -45 1 -49q2 12 5 24
q5 18 18 16zM615 170q-8 7 -8 12q-6 0 -10 -16q2 0 9 2t9 2zM231 496v41l-17 -29q0 -12 17 -12zM179 528l-5 16q-11 -11 -10 -22q5 -4 15 6zM172 274v23q-2 7 -10 8l-6 -2q4 -18 16 -29zM171 176v55q-4 2 -13 -15q0 -22 13 -40zM172 50q0 7 -9 17q0 -3 -2 -12q-1 -8 0 -12
q3 0 11 7zM77 123q-5 -3 -13 -21.5t-8 -24.5q0 -5 2.5 -9t2.5 -5q6 19 16 60z" />
    <glyph glyph-name="n" unicode="n" horiz-adv-x="688" 
d="M638 687l5 9zM657 646l-4 16zM625 564l4 6zM641 536v1v-1zM617 430v2v-2zM610 306l-16 9zM266 616l-10 25zM316 512l3 5zM336 465v2v-2zM534 198v-9v9zM660 496q-10 7 -30 20q-8 0 -12 -11q5 -5 17 1q2 -9 4 -24l-14 -2t-7 -11q0 -4 7 -20t7 -20t-6 -14t-5 -22q9 1 24 11
q2 -5 2 -9q0 -19 -23 -19q-11 0 -14 3q-8 -21 4 -31q1 0 7.5 3t10.5 3q-2 -7 -17 -22q6 -10 14 -40q-14 -5 -21 -14q0 -2 -31 -76q-19 -46 -19 -70v-20q3 0 9 -7q4 8 12 43q6 25 24 42q4 -6 4 -14q0 -16 -28 -74t-28 -86q0 -11 4 -21q-11 1 -16 3q-9 4 -14 13
q-20 -15 -31 -15q-29 0 -29 82q0 12 3 63q-2 0 -13 -11q-59 121 -190 316l-11 -10q2 13 -14 38q-18 -19 -23 -41q-9 -45 -10 -47q12 -3 27 -10q12 1 14 17q3 28 3 29q0 -1 2.5 -8t2.5 -12q0 -23 -16 -45q-22 -31 -26 -39q10 -12 25 -10q-8 -18 -30 -58q-16 -16 -32 -48
q1 -24 1 -70q-1 -5 -7 -16.5t-6 -15.5q0 -6 11 -29t11 -34q0 -13 -12 -19q0 -6 14 -4v-17q-24 23 -24 43q0 9 7 15l-9 8q-11 -5 -26.5 -37.5t-24.5 -32.5q-3 0 -10.5 2t-13.5 2v15q-6 6 -9 6t-10 -3t-11 -1q-4 -9 -13 -24q7 16 22 50q-6 6 -9 6q-4 0 -13.5 -11.5
t-15.5 -13.5q-4 5 -4 12q0 10 6.5 16.5t14.5 12.5l-4 21q2 4 0 16q-3 14 -3 17q0 7 10.5 37t13.5 32q0 9 -5 9q7 47 14 95q14 66 47 89q-7 1 -20 6v16q10 -1 17 6q-7 14 -7 23q0 13 5 31t5 25q0 5 -2 10q14 17 15 48t2 61q10 -1 17 6q0 3 -7 9t-14 7q0 5 -3.5 20.5
t-3.5 19.5t4 8t3 7q6 1 20 -14q13 5 17 14q0 -1 -1 -4.5t-1 -9.5q0 -5 27 -49q11 14 2 42l18 -34q12 -23 8 -40l14 15q5 -12 11.5 -23.5t26.5 -11.5q24 0 16 -1q10 1 9 11q0 -2 13 -27q-5 -14 -4 -19q11 -5 36 -18q5 -17 10 -35q8 -25 25 -27q9 12 5 28q7 -10 6 -25
q-3 -17 -5 -33q0 -5 6 -1q6 3 10 10q-1 -12 -1 -24q0 -16 12 -26q3 0 18 7q0 -9 10 -109q5 18 28 57q1 -6 -1 -30q-1 -18 5 -30q-7 8 -14 8v-17.5v-19.5q5 -2 27 -10q8 10 8 15q0 -3 -10 15q9 6 29 19q0 8 -9 8q-2 5 -1 22q2 17 4 23q0 -7 8 -14q8 0 8 5q0 4 -7 15.5
t-7 16.5q0 47 8.5 66.5t8.5 18.5v147q0 49 1 106v54q2 -2 11 -21q5 -12 19 -13l6 -32q7 -24 31 -19q2 13 8 32q0 -12 13 -40t13 -36q-7 -4 -7 -12q0 -5 10 -25q6 0 17 11q2 -5 4 -17t4 -18q-4 2 -11 7q-3 -10 5 -34q11 -31 13 -39zM480 220v1v-1zM182 505l4 20zM205 438
l6 23zM471 184v-27v27zM147 466l4 6zM211 368l3 5zM490 81l-5 10zM165 340l17 19zM186 282v-16v16zM218 189l3 5zM158 282v-61v61zM93 293v2v-2zM154 81l-6 5zM214 286q-11 8 -12 29v29q-12 -16 -4 -63q5 5 16 5zM169 138q-6 17 -9.5 42t-6.5 34l-12 -12q9 1 17 -4v-41
q-11 -6 -23 -16q2 -17 15 -36q0 -3 -6 29q3 0 6 -2t8 -2q8 0 11 8zM91 145q-8 16 -8 20q-4 -8 -9 -20h17z" />
    <glyph glyph-name="o" unicode="o" horiz-adv-x="617" 
d="M467 593l-9 18zM322 706v-11v11zM291 667l-5 15zM590 379v-53v53zM236 671v2v-2zM520 266l3 5zM150 629v-8v8zM537 206l21 9zM564 170q-9 -5 -22 -19q0 9 8 19.5t7 22.5q0 4 7 -23zM586 271q-5 0 -16 -11q0 7 -10 18h-20q0 -1 -1.5 -5t-1.5 -11q3 -2 14 -2q4 -10 -14 -22
q-21 -13 -21 -22q0 -4 7 -17.5t7 -19.5q0 -5 -4 -12.5t-3 -28.5q-23 -3 -46 -24t-17 -40l-29 4q-12 -46 -43 -46q-3 0 -18.5 8t-26.5 9l-14 -26q-10 -16 -25 -16q-6 0 -38.5 7.5t-44.5 7.5l10 -21q-6 1 -22.5 10.5t-20.5 9.5t-5 -3.5t-6 -3.5q-3 0 -9 3.5t-12 3.5
q-9 0 -14 -10q-3 10 -15.5 14t-24.5 8q-5 17 -20 35q-18 20 -35 25q-7 13 -3 35q-2 5 -13 11.5t-12.5 11.5t-1.5 10q0 6 2.5 19.5t2.5 19.5q0 14 -8 20q13 2 19 -6q1 3 6 9l-21 31q0 20 6 20q23 5 23 27q0 8 -4 23t-4 19l2 37l8 5q-3 6 -2 24q7 -15 21 -19q9 12 9 23
q0 44 -14 60q8 4 26 4q6 17 -7 24q-6 -4 -17 -11q31 35 50 75q4 8 7 45.5t12 53.5q4 1 19 -7q8 2 10 16q25 8 25 30q3 -14 21 -32q5 9 13 22q6 3 24 13.5t23 10.5q4 0 20 -17.5t20.5 -17.5t15 -2t14.5 -2t11 7q1 -16 -2 -23q2 -1 4.5 -2t4.5 -3q11 11 2 31q18 1 22 -18
q5 -23 19 -31q3 11 9 32q9 -11 20 -11q9 0 12 4q10 -12 23 -30q-7 -7 -4 -13q9 -1 15 7t10 15q2 -12 16 -48q10 -26 8 -58q1 0 3.5 -1.5t7.5 -1.5q10 0 10 11q0 7 -6.5 22t-10.5 18q3 6 9 16q7 -17 18 -89q11 -66 33 -106q-5 -5 -13 -26t-8 -29q0 -10 8 -25t6 -36l0.5 -2.5
t6.5 -2.5q8 0 8 5q0 -1 2.5 -8t2.5 -11zM41 443v-15v15zM309 20l3 6zM23 290v2v-2zM53 213l3 6zM195 40v2v-2zM54 156v2v-2zM45 72v-13v13zM530 492q0 4 -2 12.5t-2 11.5q-11 -20 -14 -48q18 7 18 24zM544 415q0 21 -9 35q0 -4 -2.5 -10.5t-2.5 -10.5q0 -6 5.5 -10.5
t8.5 -3.5zM467 289q-5 62 -28 122q-24 66 -56 93q6 7 17 6q0 3 -3.5 8t-6.5 3q-4 -2 -8 -2q-5 0 -9 5q-2 2 -4 5v13q9 8 24 7q-4 3 -22 3q-6 0 -60.5 17.5t-62.5 17.5q-51 0 -75 -56q-14 -31 -28 -118q-14 -81 -29 -109q15 -22 15 -44q0 -10 -7 -41q16 -15 16 -43
q0 -17 -6 -26q7 -26 76 -46q58 -16 99 -16q36 0 80 45q38 38 56 79q2 5 8 45q4 30 14 32z" />
    <glyph glyph-name="p" unicode="p" horiz-adv-x="651" 
d="M674 576l-15 25zM631 629l-18 3zM564 683v2v-2zM632 519l11 7zM596 562l-32 28zM472 680l-14 5zM646 478v-15v15zM438 636l-26 7zM552 500h-15h15zM410 646l-33 4zM675 509q0 -12 -17 -41q-18 -32 -33 -32q-4 0 -5 1.5t-5 1.5q-17 0 -15 -24q-1 1 -9 7.5t-12 6.5
q-1 -38 -68 -67q-50 -21 -72 -21q-26 0 -40 7q-7 -18 -20 -18q-16 0 -30 25q-9 -4 -10 -21q-2 7 -17 8q-10 -1 -19 -1q0 22 0 21q-9 -1 -13 -9q-5 -11 -7 -12q-15 10 -40 22q6 8 15 43q5 19 29 17q10 1 36 19v-29q2 -2 13 -2q79 0 104 8q40 12 50 31q5 0 6.5 -4t2.5 -4
q2 32 16.5 47t14.5 33q0 16 -41 72h-28q-5 11 -4 35q-2 0 -12 -5.5t-11 -5.5q-5 0 -39 10.5t-38 10.5q-5 0 -7.5 -1.5t-6.5 -1.5q-20 9 -41 17q-2 0 -5 -3.5t-14 -3.5q-5 0 -19 2t-18 2q-52 0 -67 -24q-10 -16 -10 -64q0 -10 7 -19.5t7 -26.5q0 -34 -10.5 -91t-10.5 -74
q0 -10 14 -15q-14 -8 -14 -144v-127q0 -5 -4 -15q-5 -13 -6 -14q-9 -1 -19 -12t-11 -24q-16 2 -26 -7q-5 12 -14 21q-16 -5 -35 -18q-10 7 -19 30q-7 17 -7 23q0 2 8 18q-2 -3 -2 -7q0 -8 28 -39q11 11 12 28.5t17 30.5l-6 15h-33q-4 -7 4 -21q-3 2 -14 19q14 15 46 36
q-5 8 -11 8q-4 0 -9.5 -1.5t-11.5 -1.5q9 18 24 27l10 -10q1 2 5.5 5t6.5 4q-3 12 -18 16q-27 8 -28 8q16 12 16 23q0 -1 -9 38q7 2 25 10v14q-4 3 -42 17q15 4 15 19q0 12 -8 23l4 27q2 -1 43 -21q7 2 13 25q-19 0 -31 -4q-3 9 -6 19q-5 14 -12 15q0 18 4 57q7 -14 21 -17
q6 5 6 12q0 4 -9 16t-9 16q0 20 18 49q-4 9 -18 9q18 26 18 40q0 13 -17 19q-13 2 -25 5q21 19 21 44q0 14 -11 26q0 3 5 8t11 5q4 0 10.5 -1.5t10.5 -1.5q-5 0 70.5 21t108.5 21q4 0 15.5 -3.5t16.5 -3.5q24 0 51 10l153 -31q1 0 5 1.5t9 1.5t10 -7t9 -12q-7 -1 -21 -4
q8 -19 24 -23q27 -7 33 -10q0 -4 3 5q2 4 -4 9q12 -22 63 -71q36 -35 36 -70zM70 557q0 -6 -20 -16v17q10 11 16 11q0 -1 2 -4t2 -8zM158 435l3 7zM128 448v2v-2zM52 509l7 25zM59 488l-12 4zM38 386l-11 18zM44 128v2v-2z" />
    <glyph glyph-name="q" unicode="q" horiz-adv-x="858" 
d="M509 694q-7 -16 -17 -16v24q9 0 17 -8zM534 610l6 19zM618 515l4 2zM684 400l-7 18zM894 40v2v-2zM234 541l-11 7zM868 44q-6 -10 -17 -34t-16 -35q-3 2 -28 8q0 -19 -20 -23q-42 -9 -51 -13q-4 7 -12 7q-6 0 -11 -5q-6 -8 -8 -9l-14 4q-3 -3 -3 -14q-62 9 -138 60
q-65 43 -130 87q-44 -63 -106 -63q-4 0 -8.5 3t-7.5 4q-3 -6 -18.5 -13.5t-24.5 -7.5q-8 0 -14 7l-12 14q-11 2 -16 -6t-4 -18q-2 9 -16.5 22t-25.5 13q-4 0 -10 -5t-8 -6q-3 4 -4 22t-10 24q-12 -10 -17 -32q-9 5 -31 39.5t-32 36.5q-2 -1 -2 14q0 37 -19.5 68t-19.5 48
q0 4 8.5 11.5t11.5 13.5q8 18 8 33q0 12 -5.5 29t-3.5 25q16 74 38 120q27 45 78 131q2 -2 7.5 -3.5t7.5 -3.5q6 1 13.5 16.5t24.5 15.5q4 0 11 -7q8 -1 17 16q51 2 51 19q0 4 -3 10q3 0 12.5 -5t12.5 -5q6 6 13 20q4 8 12 8q4 0 20 -12.5t20.5 -12.5t18 -1.5t17.5 -1.5
q9 0 28 6q1 9 -7 12q5 -1 18 -9.5t17 -8.5q6 0 19 21q6 -2 22 -8t21 -6t7.5 1.5t3.5 1.5q112 -86 112 -197q0 -18 -2 -39q5 -2 21 -18q-18 -24 -18 -42q0 -13 11 -13q3 0 24 21q-14 -30 -36 -93q-16 -59 -35 -52q-3 -38 -25.5 -65l-22.5 -27q0 -6 6.5 -19.5t11.5 -13.5
q4 0 6 1.5t6 1.5q17 0 28.5 -28t22.5 -29q-7 -13 -1 -45q1 1 17 22l18 -18q12 4 17 18q2 -4 6 -18q3 -10 8 -10q8 0 13 13q28 -13 36 -13q4 0 42 26t42 26q3 0 27 -12zM548 126l2 39zM38 450v-33v33zM17 309v-18v18zM34 154l-22 29zM622 557q-9 8 -9 12q-4 -9 -4 -28
q2 2 6.5 8t6.5 8zM639 324q0 7 -9 17l-2 -8q-1 -8 0 -16q4 0 11 7zM558 315q-8 4 -20 11q5 -13 12 -34l4 8.5t4 14.5zM544 422v16q-28 7 -31 34q-1 24 -2 47q-9 5 -38 29q-26 21 -30 21q-18 0 -56 -14t-44 -14q-5 0 -11 3.5t-11 3.5q-3 0 -10 -7t-23 -7q-20 0 -34 3
q-5 -19 -47 -36q-46 -19 -48 -22q-44 -63 -44 -126v-26q1 -19 1 -30q0 -87 18 -132q30 -74 110 -74q13 0 59 16.5t55 23.5q-5 22 -34 48t-29 32q0 12 11 15q-43 26 -43 43q0 10 13 17q8 4 17 9q21 -21 23 -20q1 18 2.5 36t9.5 19q22 -6 63 -25q21 -15 78 -66q8 13 22 35
q6 0 14 -7q2 22 5 43q4 27 24 36q-10 4 -18 14q14 35 14 49q0 5 -5.5 11t-5.5 9q11 -1 25 -7zM56 230l-12 12q-12 -13 -12 -21t5 -14q4 4 11 13t8 10z" />
    <glyph glyph-name="r" unicode="r" horiz-adv-x="708" 
d="M555 555v-11v11zM695 398q-12 -6 -24 0q0 1 -1.5 7t-1.5 12q8 8 15 8q5 0 8 -2t4 -2v-23zM660 465q0 -4 -6.5 -12.5t-8.5 -35.5q5 -6 4 -20q-1 -15 -10 -21q-3 8 -2 21q2 19 2 18q0 7 -12 14q-14 -7 -21 -31q-9 -30 -13 -36q-1 0 -6.5 3.5t-10.5 3.5q-8 0 -18 -17
l-12 -22q-2 9 -7 28q-7 -10 -27 -30q-12 -8 -45 -15t-47 -18q-2 3 -4.5 7t-7.5 4t-27.5 -14t-25.5 -14q-5 0 -7.5 1.5t-5.5 1.5q-5 9 2 22q-19 7 -38 7v32q0 5 4 14.5t4 12.5q7 -7 14 -7q4 0 23 7t23 7t21 -18q5 3 15 17q9 11 13 11l21 -10q6 9 14 31q4 -3 11 -3q4 0 14 14
t14 14t6.5 -3t6.5 -2l-11 29q28 -1 32 10q1 9 -15 17q7 7 7 11q0 10 -7.5 22t-15.5 24q0 5 -13 44l-45 28q-38 24 -47 24q-4 0 -5 -3.5t-5 -3.5t-11 7q-21 -25 -31 -25q-5 0 -18 12.5t-18 12.5t-15 -4.5t-14 -5.5q0 10 -4 10q-10 0 -28 -20q-12 -14 -24 -29q-8 5 -8 12
q0 2 9.5 22.5t9.5 32.5q0 5 -1 9q8 8 16 8q5 0 8.5 -2t4.5 -2q8 7 6 25q2 0 5.5 2t8.5 2q6 0 30 -18q9 3 9 14q0 12 -13 12q1 5 14 2q12 2 17 11q13 -4 40 -18q10 8 14 18l4 -29q12 -1 17.5 12t18.5 13q7 0 25 -9q-11 -6 -11 -13q1 -1 1.5 -3.5t5.5 -2.5t6.5 2t5.5 2
q16 0 61 -37q33 -27 52 -48q7 7 7 14q4 -28 26 -32q11 -23 25 -65q-9 -1 -25 -10q6 -16 20 -16q5 0 12 8t10 9q-2 -6 2 -23q5 -20 5 -24zM706 78q-7 2 -38 -4q0 1 -1.5 8t-1.5 13q19 -15 41 -17zM690 33v2v-2zM344 315l4 7zM657 22q-37 -22 -53 -22q-29 0 -167.5 105
t-141.5 119q5 5 19 -3v14q6 -7 18 -7q5 0 12.5 6.5t9.5 7.5q3 -21 15 -21q4 0 12.5 3t11.5 3q-4 -7 1.5 -14.5t13.5 -6.5q15 -1 43.5 -26t38.5 -29q3 2 11 18q-2 -43 21 -50q6 3 6 18q28 -21 32 -21q5 0 8 1.5t4 1.5q1 -5 -13 -19q8 -12 37 -12t40 -3q-10 -29 -1 -47
q4 -2 10 1.5t9 4.5zM279 237v2v-2zM158 354l3 7zM214 284q-17 -52 -18 -59q-3 -29 -19 -102q1 6 -7 25q-8 -7 -8 -30q0 -19 -1 -17q2 -6 13 -6t22 10q0 -10 2 -32.5t2 -33.5q-56 -32 -68 -32q-49 0 -47 1q4 14 24 32q-3 1 -9 6q-12 -4 -28 -19t-13 -20q-9 12 -12 36
q-2 17 -12 17q-5 0 -9 -1.5t-5 -1.5q11 10 11 20q0 12 -14 11v16q8 7 26.5 35t18.5 33q0 56 -21 68q4 6 11 34q6 25 18 35q14 1 10 33q-3 2 -12 2q-14 0 -18 -14q0 -1 -2.5 10t-2.5 28q12 16 38 48q-3 5 -13 11q-15 17 -15 40l8 12.5t7 32.5q10 0 13 3q1 8 -10 13q4 9 24 22
q-3 6 -14.5 10.5t-16.5 9.5q10 33 13 80q22 -5 45 -10t49 -26q-1 -17 2 -50q11 -37 11 -58q0 -11 -4.5 -28t-2.5 -33q1 -9 12.5 -31.5t11.5 -25.5q0 -4 -10.5 -18t-10.5 -19q0 -3 7 -13t7 -15q0 -4 -9 -17.5t-9 -17.5q0 -5 6 -11zM182 249v-14v14zM16 339v2v-2zM87 179v-29
v29zM112 101v-14v14zM63 97l-7 7zM60 72v2v-2zM488 647q0 22 -1 22q-13 3 -13 -14q0 -8 14 -8zM622 540q-14 3 -23 15q-1 -4 -15 -45q14 14 38 30zM439 689v17q-3 0 -8.5 -5t-5.5 -8q4 -4 14 -4zM569 412q0 18 -5 27q-14 -14 -12 -27h17zM94 465v16q-6 -4 -14 -17t-7 -18
q22 9 21 19zM88 382q-17 8 -19 3q13 -28 13 -23zM84 268q0 11 -9 20q-2 -10 -10 -18t-8 -13q8 2 16.5 6.5t10.5 4.5z" />
    <glyph glyph-name="s" unicode="s" horiz-adv-x="590" 
d="M548 648v2v-2zM569 631v-10v10zM448 666v1v-1zM572 141q-2 2 -12 17q-7 -8 -15 -34q-6 -20 -17 -25q0 8 -6 13q-9 -27 -52 -52q-36 -19 -71 -39q-8 7 -15 25q-12 -2 -22 -18q-14 -26 -15 -28q-4 1 -15 7.5t-16 6.5q-9 0 -23 -14q-5 12 -14 21q-3 -1 -22 -13
q-13 -8 -18 -8t-26.5 12.5t-26.5 12.5t-10.5 -1.5t-6.5 -1.5q0 1 -2 5.5t-2 9.5q0 25 19.5 45.5t20.5 22.5q33 -10 74 -10q3 0 10 -1t13 -1q35 0 131 27q3 1 8.5 11t9.5 10q5 0 5.5 -2.5t4.5 -2.5q0 2 1.5 5t1.5 8t-16 39q-17 38 -28 47q-13 -19 -14 -35q-9 22 -37.5 25
t-34.5 18q-4 1 -16 -11q-47 28 -55 28q-12 0 -12 -11q2 13 -3 19q-7 11 -20 11q-2 0 -8 -1t-8 -1q-9 0 -15 5q-1 2 -11 15q-7 9 -12 9q-4 0 -9 -2t-10 -2q-10 0 -31 33l-20 34q-10 -8 -10 -28q-35 -2 -35 33v6.5v7.5q0 27 -22 27q-14 0 -14 -4q-5 19 -5 45q11 4 28 17
q-7 15 -16 15q-15 -5 -18 -21q0 7 -8 28q1 0 7 -1.5t10 -1.5q20 0 23 24q2 -13 21 -17q2 2 2 12q0 5 -7 17t-7 17q0 3 2 17.5t2 20.5q7 -4 16 -21q9 -2 27 -10q10 5 12 17l5 25q8 -8 16 -8q-1 -8 -1 -14q0 -7 6 -27t9 -50q18 3 36 44q-3 2 -11 -1q-11 -4 -13 -4l-11 44
q13 11 13 16q0 2 -1.5 3.5t-0.5 1.5v16q5 -6 29 -18q5 6 4 17t-2 21q8 5 31 -4q-7 -9 -17 -28q2 -2 10 -2q42 0 42 28q0 20 -14 22l-21 5q18 5 23 7q13 5 18 15q5 -10 -2 -23q9 -9 12 -9q10 0 25 24.5t36 28.5q9 -17 33 -39q5 12 3 31q8 8 13 8l4 -25q13 -1 21 10
q9 15 14 18q-6 -7 -6 -15q0 -4 8 -12q22 14 37 14q33 0 45 -11q6 -5 11 -25.5t18 -33.5q-6 0 -24.5 1.5t-22.5 1.5q-14 0 -25 -11q-4 6 -11 14q-10 -10 -31 -27h-19q0 28 4 31q3 -8 13 2v20q-11 6 -19 6q-29 0 -29 -26q0 -5 1.5 -19t0.5 -21q-8 0 -16 -8q-3 9 -14 21
q-20 -9 -16 -24q-1 1 -9 7.5t-12 6.5q-2 -9 -8 -28q0 4 -7 14q-11 -16 -34 -41q-9 -7 -37 -23.5t-37 -17.5q-17 -24 -17 -52q0 -46 72 -83q59 -31 78 -27q4 -4 8 -16q3 -7 11 -7q10 0 19 10q6 -7 15 -21q21 11 20 11q5 0 23 -9q23 -9 45 -14q1 -2 39 -32q27 -23 29 -37v-24
q2 -12 12 -21q12 10 10 29q8 -21 26 -64zM115 513l-9 10zM34 543v1v-1zM72 487l16 13zM235 17l4 6zM145 31l-4 18zM165 424q-8 28 -17 40v-23q-1 -13 17 -17zM76 362v37q0 -3 -4.5 -12.5t-4.5 -14.5t3 -6.5t6 -3.5z" />
    <glyph glyph-name="t" unicode="t" horiz-adv-x="621" 
d="M485 628l3 7zM304 490v2v-2zM281 494l7 3zM315 434v2v-2zM629 637q-36 -28 -94 -68q0 5 -6 18q-2 -3 -36 -14t-46 -11h-18q0 14 -7 14q-4 0 -24.5 -12t-25.5 -12q-15 0 -14 0q-2 -3 -7 -9q6 -6 10 -6q1 -21 0 -61q-1 -3 -7 -7.5t-6 -8.5q0 -13 14.5 -37.5t15.5 -60.5
q-8 14 -28 38q-9 -8 -9 -17q0 -3 12 -19q1 -3 -2 -11t-3 -12t8.5 -19t8.5 -20q0 12 -17 -96q9 -5 15.5 -22t4.5 -29q-5 4 -7 20q-2 12 -15 15q-9 -3 -9 -14q0 -22 51 -136q-2 10 -28 34q-8 -11 -16 -21q-10 -15 -8 -28q-23 17 -32 17q-4 0 -11 -5t-10 -5q-12 0 -18 13
q-9 22 -14 29q-16 -11 -13 -35q-15 9 -18 55q-3 40 -29 40q-5 0 -7.5 -1.5t-4.5 -1.5v95q0 4 6.5 11.5t7.5 9.5q-5 6 -9 6q-5 0 -9 -4q8 7 8 20q0 4 -7 26t-7 26q0 41 7 79.5t8 122.5q3 -3 16 -3q18 0 18 14q0 19 -55 25q-4 0 -50.5 -7t-51.5 -7q-4 0 -23 14q-25 18 -31 22
q11 14 29.5 29t24.5 15q5 0 5 -1.5t4 -1.5t27 10.5t28 10.5q10 0 28 -18q12 23 49 27q30 2 59 5q-1 -1 -1 27q3 1 11 -6t12 -7t3 2t4 2q4 0 8 -8t7 -10q2 0 24 21q6 -11 24 -32q7 4 11 15q3 7 6 15q23 -19 25 -19q5 0 8 3q-4 -5 -4 -12q0 -5 3 -16.5t3 -17.5q0 -8 -5 -15
l6 -5q9 9 12.5 33.5t11.5 36.5q-1 -4 7 -4q9 0 15 19q5 14 9 27q7 1 22 -14q4 9 10 18.5t19 9.5q0 -2 2 -10t2 -12q-1 1 24 1q5 -11 18 -32q6 0 13 7q4 -12 9 -26t19 -23q5 2 3 32l-3 47q9 -23 30 -67zM319 217l11 21zM182 80l7 25zM551 642h-20q10 -20 19 -24q1 1 1 24z
M238 457v45q-13 -13 -13 -24q0 -8 13 -21z" />
    <glyph glyph-name="u" unicode="u" horiz-adv-x="678" 
d="M639 599q0 -5 -2 -6.5t-2 -5.5h-16q0 6 10 26q-30 41 -34 79q44 -69 44 -93zM484 706v-8v8zM652 545v-29v29zM579 498l6 40zM593 415v-8v8zM529 228l-23 23zM558 178l2 15zM154 561l2 12zM92 620v2v-2zM664 430q-6 0 -16.5 3t-15.5 3q-2 0 -21 -66q-22 -73 -31 -90
q6 -2 20 -11v-34q-8 26 -30 27l-9 5q-2 -7 5 -41l-40 -40q-27 -29 -39 -56q-1 9 -8 28q-28 -6 -35 -34q-9 -35 -20 -43q-1 11 -8 42q-15 -6 -19 -31q-4 -28 -12 -36q-10 11 -20 11q-12 0 -16 -6.5t-8 -13.5q3 -3 7 -3q-6 2 -17.5 -21t-31.5 -23q-9 0 -12 7q-7 13 -12 18
q-6 -7 -24 -21q-12 4 -19 19l17 17q-8 9 -12 9q-20 0 -31 -31q-16 11 -41 18v17q3 0 -42 0q-65 79 -61 111q1 5 -4.5 13.5t-10.5 10.5q0 6 -5 29q-4 20 -4 33q0 23 11 40q-17 17 -17 33q0 13 8.5 43.5t8.5 43.5q0 8 -3 14q4 -1 21 7q-5 9 -18 32q1 0 7 -1.5t11 -1.5
q32 0 39 97q2 60 4 121l10 -6q7 -6 7 -15q0 -3 -1 -8q5 2 14 10t13 8q-1 0 28 -20.5t72 -25.5l-4 -21q-14 -5 -25 -34.5t-11 -59.5q0 -16 4 -28q-4 8 -32 24q-2 -2 -2 -8q0 -2 13.5 -21l13.5 -19v-32l-11 3q-12 -10 -24 -52q-10 -35 -10 -46q0 -13 19 -18q11 9 11 28
q1 -8 -4 -25t-5 -20q-12 1 -15 -6.5t-6 -13.5l3 -33q6 2 27 31q12 -12 8 -18q-7 -7 -21 -20q-3 -5 -3 -9t3.5 -9t3.5 -7q0 2 -21 -62q-2 -8 12 -8q5 0 12.5 10t9.5 11l4 -28l24 17q25 -49 48 -49q0 1 -8 31q13 0 24.5 -1.5t14.5 -1.5q16 0 30 12q18 14 21 15q31 9 50 54
q19 49 60 66q-7 4 -21 16v16q13 3 35 17q-1 3 -8 15q-6 9 -6 14q0 27 13 65q-1 -13 4 -23q15 11 15 27q0 2 -5 64q-5 57 -3 90q0 4 -9 16.5t-10 15.5q-18 43 -39 64q-15 15 -14 21v22q6 -3 18 -10q7 3 11 10q7 -17 29 -26q34 -14 37 -16q11 11 11 12q0 -10 17 -16q6 10 0 28
q8 -5 27 -34q-8 0 -14 -6q5 -6 21.5 -11.5t20.5 -8.5v-44q-9 -6 -18 -19q32 -21 43 -21v-65q0 -3 -7 -17.5t-7 -18.5q0 -6 8 -14q3 3 28 26q21 18 17 26q-1 -6 -6 -21t-5 -19q0 -2 14 -18zM60 577q-2 0 -7 -2t-7 -2l-6 24q-5 18 -12 23q2 2 4 2q4 0 12.5 -19t15.5 -26z
M494 125v1v-1zM123 477l2 8zM90 566q0 -14 -6 -41q-7 -34 -8 -45q-4 7 -12 40q8 -2 26 46zM214 383l-5 10zM24 558l2 22zM137 433v13v-13zM146 409v-13v13zM217 216l-17 14zM133 259l2 8zM221 174v2v-2zM311 40v2v-2zM579 601q0 16 -1 17q-15 -7 -19 -17h20zM530 608
q0 7 -4 14q-13 -7 -13 -17q2 0 8.5 1.5t8.5 1.5zM512 200q-7 -4 -17 -11l5 -12q12 10 12 23zM147 352q-4 25 -4 34q-2 -2 -7.5 -7t-5.5 -10q0 -11 17 -17z" />
    <glyph glyph-name="v" unicode="v" horiz-adv-x="734" 
d="M688 558l2 8zM582 497v2v-2zM596 450v-11v11zM572 437l-13 13zM546 374v2v-2zM520 359l-3 9zM171 689v-8v8zM531 327l-11 6zM508 339v2v-2zM518 307v2v-2zM487 309v-7v7zM492 248l29 23zM135 604v2v-2zM446 297q-9 -9 -9 -12v28q3 -7 9 -16zM726 674v-49q-4 4 -10 4
q-7 -16 -16.5 -27t-9.5 -12q0 -3 6 -7q-3 3 -10 11q-30 -12 -30 -17q0 -1 4 -5t4 -8v-51q-14 7 -22 7q-7 -36 -8 -83q-1 -40 -7 -61q-10 -1 -30 -13q11 -16 10 -36q-4 0 -18 14q-2 -2 -4 -27q-2 -19 -19 -19q-3 0 -9 2q-5 1 -9 -1q4 -7 28 -23q-6 -15 -18 -43
q-25 -6 -25 -21q0 -6 4 -15q-1 0 -8 1.5t-13 1.5q-7 -26 -7 -60q3 0 14 10q-7 -22 -16 -35q-3 11 -17 29q-3 -6 -8 -30q-3 -18 -18 -22q2 4 7 11q-8 9 -21 9q-8 0 -9.5 -11t-2.5 -21q-5 10 -21 28q-18 -22 -29 -49q-4 11 -15 21q-5 0 -5 -14q-6 4 -15 11q-6 -6 -6 -16
q0 -14 11 -17q-10 -6 -41 -16q0 1 1.5 7.5t1.5 10.5q-6 6 -9 6q-5 0 -8 -1.5t-4 -1.5q-4 14 -15 17q-2 -10 -8 -31q-27 40 -40 66q4 -2 12 -7q1 5 9 17q3 4 3 11q0 9 -12 15q-9 -9 -22 -25q-11 32 -28 96q0 8 -18 11l-173 437q9 0 12 -3q7 15 15 30q15 23 35 23q10 0 25 -25
q11 6 11 13q0 6 -6 25q2 -3 18 -8q2 -5 11 -16l19 21v-45q-12 -3 -35 -17q0 -9 9 -19q15 13 40 32q0 -5 5 -13t8 -9q1 -21 -4 -64q3 -8 24 -17q17 -8 17 -24q0 -3 -12.5 -26t-12.5 -28q0 -10 12 -16q15 14 39 42q2 -14 8 -38q-7 8 -20 4q0 -11 14 -21.5t14 -20.5
q-10 -14 -35 -41l13 -13q-3 0 24 14q9 -15 -6 -26l6 -9q7 3 34 29q-1 0 -1 -15q0 -24 12 -60t12 -46v-27h-17q1 -5 12 -14t18 -11q14 8 25 53q-1 -75 11 -109q10 -1 17 14q0 -1 -3 -5t-3 -9t1.5 -6.5t2 -3t2.5 -3t7 -1.5q47 123 73 123q5 0 6 -2t4 -2q5 21 5 37q0 7 -1 16
t-1 11q0 13 21 30q-6 7 -17 5v19q-1 15 22 70q25 59 27 72l15 -3q6 6 6 10q0 5 -5 9q-8 6 -9 8q8 4 17 24t8 29q17 -9 24 -8q2 1 4 1q3 0 -1 -8.5t-7 -11.5q-4 2 -7 2q-7 0 -7 -20q0 -21 15 -28q1 0 8 27q6 19 19 28q-17 14 -17 35q0 6 9 15q-3 -15 7 -35q16 1 16 25v37
q12 15 30 43q-3 -7 -16 -30q-11 -19 -11 -24q0 -10 12 -23q5 8 19 27l-5 3.5t-5 8.5q0 11 18 17q7 4 7 14q10 -7 33 -21q-4 0 17 -10q2 3 8 10zM179 535l-14 23zM178 499v-8v8zM482 151l-15 6zM281 303l-3 34zM408 132v1v-1zM133 390l-13 15zM301 214v-7v7zM332 149v2v-2z
M361 123v-8v8zM273 80l-8 22zM297 12v2v-2zM562 487q-8 8 -17 8v-19q0 -4 8 -12q9 8 9 23zM618 413q0 7 -5 12q-12 -12 -12 -20v-15q17 12 17 23zM572 405q-16 17 -19 17q-4 0 -5 -3.5t-5 -3.5q-5 0 -5.5 3.5t-5.5 3.5q1 0 -8 -3.5t-18 -1.5q9 -17 16 -17q4 0 12 5.5t12 5.5
q5 0 14 -3t12 -3zM474 229q0 5 -12 17q-19 -25 -19 -28q3 1 14 6t17 5zM295 247q4 9 -6 27q2 -18 -8 -31q11 0 14 4zM341 173q0 6 -2.5 14.5l-2.5 8.5q-16 -8 -19 -23h24zM235 206q-2 0 -8.5 2t-8.5 2l4 -16q1 0 13 12z" />
    <glyph glyph-name="w" unicode="w" horiz-adv-x="726" 
d="M737 607l-3 17zM657 677l7 24zM723 589v-10v10zM685 593l4 6zM660 600l-14 28zM562 420v-27v27zM636 284l3 10zM416 479h-12h12zM365 526v-14v14zM357 490v2v-2zM248 495q0 2 0 -59l-13 40q1 1 5 8t8 11zM717 662q-11 -5 -22 -11q11 -32 11 -29q0 -18 -8 -44
q-11 -33 -17 -68q-2 -1 -20.5 -4t-24.5 -12q13 -12 25 -48t20 -44q-18 -1 -29 2q-6 -15 -31 -56q-20 -34 -20 -39q0 -10 17 -54q-5 14 -26 19q-10 -11 -14 -51q-7 -63 -7 -65q0 34 -38 39q0 -3 -6 -9l14 -13q0 -1 -11 -11q7 -3 28 -17v-31q2 1 -25 14q-2 -3 -4 -12t-4 -13
q0 4 -7 11q-11 -2 -21 -46q0 12 -13 23.5t-19 11.5q-3 0 -21 -15.5t-22 -15.5q-19 0 -37 24q-22 30 -29 34q-8 47 -12.5 64.5t-33.5 112.5q-11 -5 -33 -13q2 -8 25 -23q-11 -26 -43 -23q0 -1 -1.5 -3.5t-1.5 -7.5q0 -11 13 -11q27 0 30 -1q-8 -8 -8 -17q0 -5 4 -9
q-5 2 -20 17q-9 -2 -8 -37v-48q-3 20 -3 54q-29 3 -29 -27q0 -12 7 -28.5t7 -17.5q0 -5 -2 -9.5t-2 -5.5q-4 -1 -18 13q-2 -36 -5 -72q-3 -40 -30 -75q-3 0 -12 2t-15 2l7 -14q-5 0 -17 -7.5t-16 -14.5q-6 14 -18 11l-19 4l3 15q-2 3 -16 2q-26 24 -40 109q-10 65 -10 126
q0 39 1 48q4 25 20 45q-14 7 -14 27q0 21 7 31.5l7 10.5q-25 118 -25 146q0 2 4 24.5t4 32.5q69 -41 100 -38q1 -10 3 -65q0 -34 12 -68q-11 0 -14 -3l3 -16q11 -1 21 11q-2 -7 -17 -44q-10 -28 -10 -45q0 -28 14 -46q-4 -4 -28 -24q-15 -12 -15 -27q0 -4 32 -61
q-1 0 -12 12q-2 -2 -3 -6.5t-3 -6.5l4 -20q1 -1 3.5 2t7.5 3q3 0 10.5 -4t10.5 -4q-2 55 28 108q-3 7 -21 25q3 0 12 2.5t14 2.5q17 0 17 28q0 16 -5 34q16 6 26 38q-7 28 -5 51q-3 -9 4 -17t16 -8q24 0 23 26l-10 10q-1 -1 -12 -17q0 11 13 33q20 31 21 33q0 -4 8 -50
q18 9 18 22q0 32 -15 44q-24 20 -37 49q7 -13 17 -13q3 0 32 10v13q-6 6 -7 6l-9 -8q-9 8 -9 20q0 -2 9 19l28 -22q0 -13 4 -41q15 14 15 17q0 4 -8.5 24.5t-8.5 23.5v15q12 -5 26 -26.5t16 -21.5q6 0 19 21q17 -18 51 -46q2 -22 -14 -93q1 -1 13 -11q8 -6 8 -10
q0 -8 -11 -35q-15 -35 -20 -50q1 -2 3.5 -8t2.5 -10q0 -8 -10 -17q6 -5 11.5 -17.5t16.5 -16.5q-17 -25 -17 -34q0 -4 5 -10t7 -9q-5 -28 -5 -36q0 -11 19 -37q86 131 108 301q2 16 29 39q0 10 8 31q13 33 14 36q3 12 -5 27q18 24 25 112q6 2 11 2q18 0 24 -21l8 -28
q23 11 23 40q0 10 -4 19h20q0 -4 7 -12t8 -10zM450 213l3 7zM299 334l-19 13zM463 69l8 17zM267 269l3 7zM61 457v12v-12zM153 314v2v-2zM168 301v-14v14zM128 275l-12 5zM112 248v-6v6zM195 156v2v-2zM102 143l3 7zM77 136v-17v17zM198 -74l-6 21zM112 13v-10v10zM330 456
q-12 14 -19 43q0 -20 -5 -37q8 -9 24 -6zM407 207l-4 32q-16 -18 -13 -28q7 0 17 -4zM249 216v16q-9 -5 -13 -17t-3 -18q16 16 16 19zM107 112q-5 3 -12 0q0 -2 2.5 -6t2.5 -6q0 2 4 6t3 6zM144 77q0 8 -13 21q3 -12 -4 -55q6 0 13 7q0 4 2 13.5t2 13.5zM200 19l-5 21
q-7 -18 -24 -43q22 7 29 22z" />
    <glyph glyph-name="x" unicode="x" horiz-adv-x="497" 
d="M274 461l-16 2zM235 491v-24v24zM214 465l-21 4zM164 615q-9 0 -10.5 6t-2.5 11q-10 -17 -23 -17q-4 0 -20 8.5t-20 8.5q-10 0 -32 -8l124 -263q13 -6 13 -13q0 -13 -5 -21l-18 17q-7 -14 -1 -19q-15 -9 -24 -44q-8 -30 -25 -32l-4 -16q-17 -2 -17 -19v-5.5v-5.5
q0 -17 -20 -15q-5 -9 -13 -47q-6 -27 -15 -29q-12 3 -19 -13q9 7 21 4q-28 -45 -28 -57q2 1 10 6q5 4 9 4q6 0 12 -6q0 -15 3 -15q2 11 4 21q3 17 21 13q3 -10 9 -27q7 10 35 36q21 20 21 32q0 6 -3 11q3 4 38 70q23 42 42 55q21 -20 24 -35q20 -2 40 -5q24 -4 23 -18
q-11 -22 -23 -27q-5 11 -3 18q-4 -3 -4 -5t8 -18q12 -22 23 -54q0 3 8 21q1 -1 41 -67q34 -56 50 -56q6 0 15 7t13 7t11 -7q8 18 34 30q19 7 37 13q-84 114 -167 248q2 -8 -10 -17q-10 12 -10 18t8 12q-11 5 -14 19q-4 19 -5 20q-3 6 -16.5 16.5t-13.5 14.5q0 8 17.5 46
t24.5 41l70 120q0 2 7 11.5t7 10.5q9 18 23 49q-10 13 -6 19q15 -6 13 -12q7 13 -1 38q9 10 9 12q-7 -3 -25 -31t-23 -28t-7.5 1.5t-3.5 1.5q4 20 10 32q-20 -14 -30 -16q-5 -11 -16 -30q-4 6 -11 14q-39 -39 -39 -77q0 -16 5 -24q-28 -11 -35 -32q-13 -35 -18 -42
q-12 1 -34.5 18t-30.5 32q-2 6 9 19q-2 6 -17 15t-16 28q1 -4 13 -11q-12 29 -26 29zM358 253v2v-2zM421 115l8 6zM270 242l4 10zM342 147l-4 18zM484 4l-10 5zM266 179l-6 13zM397 38v-7v7zM418 67q0 14 -13 14q-8 -8 -8 -13q1 -1 21 -1z" />
    <glyph glyph-name="y" unicode="y" horiz-adv-x="552" 
d="M466 536v1v-1zM200 442l2 11zM287 344v-11v11zM537 656q-48 -119 -88 -189q-9 2 -20 -9q7 -14 7 -21q0 -3 -37 -86q-39 -91 -49 -123l-14 14q-29 -64 -59 -170q-17 -60 -41 -68q-7 28 -22 28q-9 0 -21 -13q0 -1 3 -8t3 -11q-11 8 -28 24q-8 8 -20 8q-5 0 -10 -8t-10 -15
l-4 21q14 7 29.5 14t15.5 25q0 4 -6.5 13t-17.5 11q11 1 12 21q3 29 13 47q15 23 30 47q25 45 25 75q0 9 -29 18.5t-29 33.5q0 8 2 18q-37 49 -82 161q-61 151 -75 181q32 -7 65 -15q45 -13 45 -41q0 -7 -3 -14q9 2 40 -45t31 -78q0 -9 -3 -15q6 -3 27 5q0 -2 -1.5 -6.5
t-1.5 -9.5q0 -4 16 -34t16 -34q0 -5 -4 -8q-8 -6 -10 -9q12 -25 14 -40q1 0 12 -7q17 4 20 27q3 16 5 33q3 -12 6 -18q7 -13 19 -17q-1 0 12 12q-14 20 -28 35q6 11 20 21.5t22 21.5q0 7 -14 5q4 11 27 44q18 24 15 46q4 1 12 -5.5t10 -7.5q3 5 -4 27q21 6 21 22
q0 5 -3.5 17t-3.5 17q0 14 21 18q-10 11 -7 22q7 3 25 18q13 10 25 10q6 0 34 -14q38 -19 45 -22zM133 67v-15v15z" />
    <glyph glyph-name="z" unicode="z" horiz-adv-x="609" 
d="M629 75q0 -4 -8 -25q-9 -24 -11 -34q-16 10 -22 23q-3 -4 -13 -4v-21q-9 11 -28 25q-12 -19 -30 -22q-13 -3 -13 -10q4 12 16 30q-2 2 -9 2q-5 0 -16 -10q-14 -12 -20 -15q1 6 -7 21q-12 -4 -16 -35q-11 18 -33 49q-4 1 -13 -5.5t-13 -8.5l-8 7q-13 -15 -40 -38
q1 6 -10 17q-14 -7 -21 -7q-5 0 -8.5 3.5t-4.5 3.5q-3 -3 -15 -21q-1 9 -10 25q-1 -1 -2.5 -6t-6.5 -5q-4 0 -15.5 7t-16.5 7q-12 0 -12 -14q-8 21 -23 21q-4 0 -25.5 -14t-25.5 -14h-18q-2 4 -5 32q-2 17 -15 17q-6 0 -22 -14q0 4 -7 11q-3 0 -13 -11q-4 3 -19 12v20
q7 -8 25 -18q0 1 1 6.5t1 9.5q0 19 -33 19q-23 0 -30 -4q24 9 56 55q16 25 33 51q4 -2 11 -7q13 6 13 35h34q-4 -19 33 -28q0 1 1.5 6t1.5 10q-15 12 -25 17q14 34 32 56q-13 7 -11 23q7 6 16 -3q16 14 42 45q14 10 36 35q2 3 -2 11q-6 12 -7 16q-1 7 5 23.5t6 25.5
q3 -12 12 -37q12 6 25.5 54t51.5 62q11 -10 9 -10v63q9 10 24 17v9q-8 9 -14 9q-12 0 -12 -10q-7 7 -13 7q-1 0 -25 -11q-27 -11 -58 -17q-7 17 -23 21q-3 -2 -8 -13.5t-10 -11.5t-6.5 3.5t-6.5 3.5t-15 -10q-7 6 -29 35q-5 -1 -9 -18t-24 -17q-28 0 -51 36q-17 29 -33 57
q12 7 35 12v-22q6 -6 8 -6q0 9 3 28q4 1 16 6t17 5q3 0 14 -11q10 8 14 18q2 -14 26 -14l167 14q5 0 12.5 -2t12.5 -2q4 0 24.5 5.5t24.5 5.5t14 -5.5t14 -5.5q41 0 64 7q7 -9 -3 -33q8 -6 20.5 -9t14.5 -4q0 -3 -2.5 -12.5t-2.5 -13.5q0 8 -11 23q-9 -4 -9 -16
q0 -7 4 -23.5t3 -22.5q-2 -11 -24 -32t-28 -36q-3 0 -13.5 2t-18.5 2q0 -8 7.5 -11t7.5 -11q0 -3 -15.5 -20.5t-14.5 -24.5q0 4 -7 10q-15 -30 -64 -106q-55 -84 -80 -129q-7 19 -20 21q-7 -29 -57 -126q-7 7 -14 7q-9 -6 -9 -16q0 -5 1.5 -12.5t1.5 -11.5q45 -6 76 -6h168
q4 0 22 -5.5t22 -5.5q51 0 134 14v-30zM256 375l18 24zM213 351v2v-2zM233 284l9 17zM173 270l-8 10zM384 7l-4 17zM151 246q-2 0 -7 -1.5t-6 -1.5q0 20 8 20q5 -4 5 -17zM425 639q-11 14 -19 14t-12 -4q10 -17 31 -10zM379 392q-4 4 -13 4q0 -1 2 -8t2 -8q9 9 9 12z" />
    <glyph glyph-name="braceleft" unicode="{" 
 />
    <glyph glyph-name="cent" unicode="&#xa2;" horiz-adv-x="678" 
d="M504 197l-4 39zM147 560v2v-2zM667 269q-8 -6 -17 -12q-13 -8 -26 -8q-5 0 -10 2q-2 -17 -3 -33q-6 -24 -38 -38q-7 5 -8.5 27.5t-17.5 29.5q-7 -3 -7 -14q0 -5 3 -20t3 -23q0 -7 -2 -12q-29 -10 -50 -44q-17 -27 -50 -27q-6 0 -13 5q-10 7 -11 8q-56 -39 -56 -62
q0 -4 9 -18t9 -21q0 -10 -14 -39.5t-14 -41.5q0 -9 6 -14q-5 -3 -29 -17q-17 -11 -24 -11q-8 0 -16 10q-1 12 -6 45q-4 26 -4 37q0 -6 27 85q-97 60 -104 60q-5 0 -7.5 -2t-7.5 -2q-4 0 -49 39.5t-60 39.5q-25 48 -22 76q8 1 16.5 12t8.5 19q0 16 -17 16q-8 0 -14 -9.5
t-6 -17.5q-15 94 -15 88q0 39 28 79q3 -2 5 -2q6 0 15 21q12 26 20 34q6 -9 21 -18q2 13 14 41q2 1 11.5 -4.5t14.5 -5.5q7 0 23.5 19t20.5 27q36 11 108 36q-22 17 -22 87q0 8 13 39.5t24 46.5q5 -6 24 -15q25 -12 33 -17q2 -7 -11 -40q15 -17 15 -36q0 -10 -5.5 -27
t-5.5 -26q0 -17 17 -33q1 0 5.5 7t11.5 7q5 0 26.5 -11t25.5 -11q-2 0 41 8q10 -23 10 -26q0 -7 -18 -31t-24 -26q-5 4 -8.5 16.5t-5.5 14.5l-26 -13q-14 16 -26 22q-6 -4 -26 -42t-20 -46q0 -5 4.5 -14.5t4.5 -13.5v-201q0 -8 5.5 -21.5t11.5 -13.5q32 0 81 42l49 42
q5 0 8.5 -4.5t9.5 -4.5q4 0 28.5 11t30.5 11t23 -9q5 7 16.5 22t15.5 22q-1 -13 9 -31t10 -25zM75 345l13 13zM125 147v2v-2zM299 366q-18 32 -18 71q0 36 13 67q-22 -6 -44 -11q-26 -8 -37 -16q-7 -6 -18 -53t-11 -60q0 -42 34 -106q37 -70 71 -73q-7 22 -7 58q0 44 -3 59
q-20 24 -20 30t13.5 15.5t26.5 18.5z" />
    <glyph glyph-name="paragraph" unicode="&#xb6;" 
 />
    <glyph glyph-name="ordfeminine" unicode="&#xaa;" 
 />
    <glyph glyph-name="ordmasculine" unicode="&#xba;" 
 />
    <glyph glyph-name="exclamdown" unicode="&#xa1;" 
 />
    <glyph glyph-name="nonbreakingspace" unicode="&#xa0;" 
 />
    <glyph glyph-name="endash" unicode="&#x2013;" horiz-adv-x="600" 
d="M588 458q-15 -8 -28 -1q-9 -15 -7 -30q-11 -1 -16 12q-9 25 -10 26q11 -2 27 3t16 16q0 7 -7 16q21 -9 25 -19v-23zM527 494q0 -7 -9.5 -25t-9.5 -27q0 -8 6 -14q-33 -9 -89 -19q-50 -9 -61 -9q-4 0 -10 4t-11 4q-6 0 -15 -4t-14 -4q-6 0 -9 4t-9 4q-5 0 -8.5 -4t-8.5 -4
q-6 0 -7 4t-6 4q-13 0 -25 -25q-5 -15 -11 -29q-14 3 -27.5 13.5t-15.5 10.5l-33 -9t-62 -9q-47 0 -79 10q4 14 19 56q11 32 11 50q0 10 -3 19q1 0 5 -6t10 -6q3 0 25 21t23 32q8 -16 44 -62q13 19 22 44q4 -4 13.5 -11t13.5 -11q16 11 45 30q-5 -5 3 -12q16 6 44 22
q6 -31 26 -31q4 0 36 22q0 -13 12 -13q5 0 12 8.5t12 8.5q6 0 24.5 -11t24.5 -11q14 0 14 13q15 -4 37 -26q15 6 21 22q5 -8 14 -15q6 -5 6 -9zM209 389v2v-2zM180 394l22 17zM144 405q0 10 -11 21l-5 -17q2 0 8 -2t8 -2zM75 393q0 10 -6 15q-27 -4 -34 -24q18 -9 24 -15
q16 15 16 24z" />
    <glyph glyph-name="emdash" unicode="&#x2014;" horiz-adv-x="739" 
d="M747 481v2v-2zM676 458q-10 -5 -36 -5q-6 -10 -4 -27q-26 10 -29 39q35 0 43 12q1 4 -9 23q16 1 35 -18v-24zM606 492q0 -10 -10.5 -25t-10.5 -25q0 -7 3 -15q-35 -9 -100 -18q-58 -9 -69 -9q-5 0 -15.5 4t-14.5 4q-5 0 -15.5 -4t-15.5 -4t-9.5 4t-10.5 4q-5 0 -10.5 -4
t-11.5 -4q-5 0 -7.5 4t-7.5 4q-11 0 -22.5 -20t-10.5 -31q-6 -6 -15 -6q-5 0 -22 11t-22 11q-6 0 -52 -8.5t-52 -8.5q-41 0 -92 14q18 28 18 51q0 5 -1 12t-1 9q0 11 28 18q-7 12 -7 32q-2 -9 11 -9q9 0 34.5 21.5t24.5 31.5q11 -25 49 -62q13 19 22 44q21 -22 33 -22t43 31
q0 -13 10 -13q8 0 51 22q9 -35 26 -35q6 0 45 26q-4 -13 16 -13q5 0 15 8.5t16 8.5q5 0 26 -11t26 -11t10 7t10 7q6 0 20 -13.5t20 -13.5q8 0 18 22q30 -3 30 -26zM222 408v3v-3zM237 390v-13v13zM162 405l-5 19q-3 -1 -16 -14q2 0 10.5 -2.5t10.5 -2.5zM83 379v19
q-10 10 -20 10q-14 -14 -14 -30q1 0 8 -4.5t13 -4.5q7 0 9 3.5t4 6.5z" />
    <glyph glyph-name="quotedblleft" unicode="&#x201c;" horiz-adv-x="409" 
d="M412 803l-5 13zM323 806v2v-2zM232 834l-9 13zM272 789l4 9zM395 584l-15 5q-9 -9 -9 -18q-3 9 -18 26q-2 -1 -12 -9t-16 -8q-30 0 -51 35q-11 24 -23 48q-4 0 -17 -13q0 2 -3 5.5t-3 9.5q0 45 47 111q35 42 69 85q27 -14 33 -14q14 -41 13 -45v-42q-2 0 -7 2t-7 2
q-7 -7 -7 -14h17q-13 -20 -26 -39.5t-31 -32.5v-21l37 -19q24 -13 29 -34v-20zM380 613v2v-2zM92 820l9 13zM211 630q0 -10 -12 -13q-7 5 -7 -15q-4 4 -11.5 13t-11.5 13q-3 -1 -11.5 -9.5t-14.5 -8.5q-34 0 -54 40q-13 26 -17 57q-6 -9 -17 -26q-7 7 -7 17q0 39 19 72
q11 19 44 57t49 64q36 -12 41 -33.5t10 -42.5q0 -7 -3 -15t-3 -9q-4 4 -13 4q-2 -3 -8 -11q8 -8 11 -8q-5 -9 -29 -43q-21 -29 -21 -35q0 -11 33 -28t33 -40zM197 649v-22v22z" />
    <glyph glyph-name="quotedblright" unicode="&#x201d;" horiz-adv-x="410" 
d="M349 801v3v-3zM296 810v2v-2zM391 674q-6 -6 -6 -15q-15 12 -22 26q3 -65 -66 -101q-2 1 -23 22q-15 0 -28 -26q-2 7 -17 21q1 27 31 45.5t30 32.5q-54 60 -52 78l13 6q0 12 -17 8q-5 10 -5 29q0 54 46 69q10 -23 39 -52q39 -39 44 -47q10 -33 33 -96zM210 811l5 14z
M178 823v3v-3zM220 696q-6 -6 -6 -15q-16 12 -23 26q-10 -76 -66 -101q-14 16 -26 22q-1 -1 -27 -26q-6 17 -18 18q-2 5 -2 10q0 19 26 34q20 12 41 24v21q-21 9 -34 33l-19 36l13 7q0 12 -16 8q-5 10 -5 29q0 54 46 69q7 -24 25 -24q3 0 6 2q-4 -14 17 -38q17 -19 35 -39
q9 -14 18 -46q10 -39 15 -50zM39 833l5 14zM241 627v-22v22zM108 744v3v-3zM70 649v-22v22z" />
    <glyph glyph-name="quoteleft" unicode="&#x2018;" horiz-adv-x="216" 
d="M232 834l-5 9zM138 837v2v-2zM210 791q-6 0 -15 8q-3 -5 -11 -15q8 -8 17 -6q-2 -1 -19 -35q-14 -26 -33 -30v-26q2 -1 36 -22q26 -16 26 -35q0 -6 -2 -13q-1 1 -5 22q-1 3 -4 7q-10 -9 -10 -20q2 -21 1 -22q-11 18 -22 28q-11 -8 -16 -21q-38 5 -60 34q-21 26 -21 58
q-6 -7 -17 -22q-7 7 -7 15q0 48 44 108q34 44 68 87q27 -13 37 -13q0 -7 7 -25.5t6 -24.5v-37z" />
    <glyph glyph-name="quoteright" unicode="&#x2019;" horiz-adv-x="244" 
d="M178 823v3v-3zM220 696q-6 -6 -6 -15q-15 12 -22 26q2 -65 -67 -101q-1 1 -23 22q-14 0 -27 -26q-2 7 -18 21q2 27 32 45.5t30 32.5q-54 60 -53 78l13 6q0 12 -16 8q-5 11 -5 29q0 55 46 69l46 -64q5 -7 37 -35q9 -33 33 -96zM39 833l3 10zM108 744v3v-3zM69 646v-19v19z
" />
    <glyph glyph-name="guilsinglright" unicode="&#x203a;" 
 />
    <glyph glyph-name="Iacute" unicode="&#xcd;" 
 />
  </font>
</defs>
</svg>
